<svg viewBox="0 0 14 16" fill="none">
<path d="M1.3869 11.2876C1.14277 10.6329 0.952272 9.96194 0.825422 9.27562C0.723497 8.72282 0.646497 8.16513 0.697905 7.59853C0.752873 6.99121 0.958058 6.43619 1.2714 5.91877C1.39113 5.72138 1.51241 5.52242 1.69223 5.36998C1.75521 5.36464 1.80461 5.40047 1.85736 5.42562C2.03717 5.5113 2.20987 5.61233 2.40036 5.67598C2.45222 5.69334 2.50117 5.72026 2.51252 5.78324C2.5152 5.88072 2.49183 5.97441 2.47336 6.06877C2.29354 6.98253 2.25638 7.90675 2.29176 8.83343C2.30289 9.12429 2.33293 9.41849 2.39747 9.7058C2.42596 9.83242 2.46757 9.95171 2.55815 10.0503C2.64694 10.1471 2.75154 10.1907 2.87883 10.1513C3.00056 10.1137 3.06154 10.0231 3.08246 9.89896C3.11117 9.72894 3.09448 9.55892 3.07155 9.39223C3.00613 8.91688 3.02081 8.44197 3.04997 7.96573C3.06733 7.68243 3.076 7.39824 3.11384 7.1165C3.14188 6.90709 3.18372 6.70057 3.25382 6.5005C3.27362 6.44398 3.2961 6.38901 3.32659 6.33738C3.4136 6.18983 3.54134 6.12997 3.69579 6.16357C3.83243 6.19317 3.93858 6.31178 3.95572 6.46668C3.9713 6.60799 3.97108 6.75131 3.95795 6.89262C3.91166 7.39157 3.9437 7.89118 3.93858 8.39056C3.93747 8.50095 3.96751 8.60843 4.00379 8.71303C4.0779 8.92689 4.20185 9.01814 4.40949 9.01369C4.63025 9.00901 4.75443 8.91532 4.81741 8.69612C4.87839 8.48314 4.89641 8.26349 4.89864 8.04317C4.90264 7.65394 4.88373 7.26383 4.95516 6.87749C4.97697 6.75999 5.00368 6.64404 5.03928 6.53032C5.05709 6.4738 5.07445 6.41482 5.13698 6.38812C5.27051 6.35229 5.4027 6.3899 5.53244 6.40592C6.2902 6.49961 7.05108 6.48759 7.81129 6.4758C7.99578 6.47291 8.18761 6.4827 8.36742 6.41371C8.45444 6.40904 8.45177 6.48604 8.46935 6.53544C8.53322 6.71704 8.5962 6.89796 8.67876 7.07288C8.8252 7.38289 9.05508 7.54957 9.40581 7.52999C9.44698 7.52776 9.48815 7.53199 9.52932 7.53711C9.81618 7.57338 9.89229 7.64393 9.96929 7.92634C10.0777 8.32269 10.1117 8.72883 10.1224 9.13631C10.128 9.35151 10.1649 9.5647 10.1536 9.78079C10.1248 10.3245 10.1093 10.8686 10.0539 11.4111C10.0334 11.6114 10.0038 11.8108 9.98687 12.0113C9.9822 12.0661 9.98287 12.1231 9.92701 12.1567C9.59698 12.2352 9.26183 12.2791 8.9249 12.3153C8.46089 12.3652 7.99555 12.4015 7.52977 12.4155C6.9812 12.4317 6.43218 12.4364 5.88272 12.4073C5.35151 12.379 4.82475 12.3205 4.30133 12.2308C3.28497 12.0565 2.306 11.7637 1.38668 11.2876H1.3869Z" fill="#DF7F14"/>
<path d="M6.73482 12.5508C6.42459 12.5508 6.14574 12.5437 5.87647 12.5294C5.34014 12.5009 4.80336 12.4411 4.28083 12.3514C3.16811 12.1607 2.20316 11.8482 1.33057 11.3962C1.30364 11.3822 1.28272 11.3588 1.27226 11.3304C1.02012 10.654 0.8294 9.97017 0.705221 9.29787C0.606189 8.76176 0.522068 8.18359 0.576146 7.5874C0.630446 6.98853 0.823614 6.42194 1.16678 5.85534C1.28361 5.6624 1.41625 5.44364 1.61298 5.27673C1.63234 5.26026 1.65637 5.25025 1.68152 5.24824C1.76742 5.24068 1.83352 5.27562 1.88181 5.30099C1.89116 5.30588 1.90028 5.31078 1.90985 5.31523C1.9637 5.34082 2.01712 5.36797 2.06875 5.39423C2.19404 5.45788 2.31265 5.51797 2.43884 5.56003C2.54988 5.59719 2.61509 5.66484 2.63267 5.76143C2.63378 5.76766 2.63445 5.77389 2.63467 5.78012C2.63734 5.87648 2.61932 5.96461 2.60174 6.04984C2.59884 6.06409 2.59595 6.07833 2.59306 6.09257C2.43305 6.9053 2.3743 7.80037 2.41369 8.82897C2.42593 9.14698 2.45953 9.42516 2.5165 9.67931C2.54677 9.81417 2.58594 9.90052 2.64803 9.96795C2.72792 10.055 2.79112 10.0507 2.84253 10.0347C2.89104 10.0198 2.9429 9.98953 2.96159 9.87893C2.98852 9.71892 2.96982 9.55268 2.95002 9.40936C2.88214 8.91621 2.89928 8.42082 2.92754 7.9586C2.93155 7.89362 2.93511 7.82841 2.93867 7.76343C2.95046 7.54645 2.9627 7.32235 2.9923 7.1007C3.02546 6.85278 3.07175 6.64938 3.13807 6.46066C3.1641 6.38611 3.19036 6.32758 3.22085 6.27595C3.33368 6.08456 3.51617 6 3.72158 6.04473C3.91185 6.0859 4.05495 6.25036 4.0772 6.45398C4.09322 6.59886 4.09389 6.75041 4.07965 6.90441C4.04894 7.23578 4.05361 7.57649 4.05806 7.90586C4.06029 8.0652 4.06251 8.22966 4.06073 8.39234C4.05962 8.48848 4.08966 8.5884 4.11904 8.67341C4.17601 8.83787 4.25145 8.89506 4.40657 8.89173C4.57525 8.88817 4.65181 8.8283 4.69943 8.66273C4.74906 8.48981 4.77332 8.29264 4.77599 8.04228C4.77688 7.96439 4.77666 7.88627 4.77643 7.80838C4.77599 7.49705 4.77532 7.17525 4.83452 6.85545C4.85922 6.72126 4.88793 6.60309 4.92242 6.49382L4.92353 6.49048C4.94423 6.42439 4.97561 6.32424 5.08888 6.27573C5.09422 6.2735 5.09979 6.2715 5.10535 6.27016C5.2342 6.23545 5.3566 6.25503 5.46454 6.27239C5.49347 6.27706 5.52084 6.28151 5.54755 6.28463C6.29373 6.37698 7.05973 6.36519 7.80035 6.35362H7.80948C7.83529 6.35317 7.86111 6.35295 7.88715 6.35273C8.0427 6.35184 8.18958 6.35095 8.32355 6.29932C8.33557 6.29464 8.34803 6.29197 8.36094 6.2913C8.47422 6.28552 8.54788 6.34694 8.57926 6.47446C8.58104 6.48202 8.58326 6.49048 8.5846 6.49449L8.59127 6.51363C8.65359 6.69032 8.71234 6.85723 8.78934 7.02036C8.92153 7.30032 9.11514 7.42338 9.39888 7.40758C9.45185 7.40469 9.5017 7.41003 9.54443 7.41559C9.87958 7.45788 9.99619 7.56069 10.0872 7.89384C10.2098 8.34271 10.2356 8.7918 10.2445 9.13296C10.2466 9.21419 10.2535 9.29453 10.2606 9.37954C10.2717 9.51151 10.283 9.64771 10.2757 9.78724C10.2686 9.92121 10.2624 10.0552 10.2561 10.1892C10.2372 10.5935 10.2176 11.0117 10.1756 11.4234C10.1669 11.5079 10.1566 11.5932 10.1466 11.6755C10.1328 11.789 10.1186 11.9065 10.109 12.0214L10.1079 12.0343C10.1037 12.0915 10.0957 12.1978 9.99041 12.2613C9.9795 12.2677 9.96793 12.2726 9.95547 12.2755C9.60674 12.3587 9.26046 12.4021 8.938 12.4366C8.42637 12.4916 7.96704 12.5245 7.53352 12.5374C7.24088 12.5461 6.97828 12.5506 6.73482 12.5506V12.5508ZM1.48524 11.2006C2.324 11.6292 3.25268 11.9268 4.32222 12.1102C4.83518 12.1981 5.36261 12.2568 5.88937 12.2851C6.36295 12.3102 6.86767 12.3129 7.52618 12.2931C7.95324 12.2804 8.40656 12.2479 8.91174 12.1936C9.21417 12.1611 9.53797 12.1208 9.86066 12.0465C9.862 12.0372 9.86289 12.0251 9.86355 12.016L9.86467 12.0011C9.87468 11.8816 9.88915 11.7619 9.90339 11.6459C9.91318 11.5647 9.92342 11.4808 9.93188 11.3985C9.97327 10.9934 9.99263 10.5786 10.0115 10.1776C10.0178 10.0432 10.0242 9.90853 10.0311 9.77411C10.0376 9.65149 10.0273 9.52909 10.0164 9.39979C10.0093 9.315 10.002 9.22754 9.99975 9.13919C9.99129 8.81183 9.96659 8.38166 9.85109 7.95838C9.78656 7.72181 9.74872 7.68799 9.51372 7.65839C9.48167 7.65438 9.44473 7.65016 9.41246 7.65194C9.02768 7.67397 8.74327 7.49616 8.56791 7.12473C8.48557 6.95048 8.42192 6.76955 8.36027 6.59485L8.3536 6.57594C8.35048 6.56704 8.34781 6.55836 8.34559 6.5499C8.19159 6.59552 8.03759 6.59641 7.88826 6.5973C7.86311 6.5973 7.83796 6.59752 7.81282 6.59797H7.80369C7.05461 6.60976 6.28016 6.62156 5.51706 6.5272C5.4859 6.52342 5.45497 6.5183 5.42537 6.51363C5.33858 6.49983 5.25646 6.48648 5.18146 6.50294C5.17301 6.51185 5.16433 6.539 5.15676 6.56348L5.15565 6.56704C5.12427 6.66673 5.09801 6.77556 5.07509 6.89974C5.02012 7.19706 5.02056 7.49371 5.02101 7.80772C5.02101 7.88672 5.02123 7.9655 5.02056 8.0445C5.01789 8.31734 4.99052 8.53521 4.93466 8.72994C4.85788 8.99743 4.68697 9.13029 4.41168 9.1363C4.15109 9.14186 3.97884 9.01657 3.88782 8.7533C3.85154 8.64849 3.8146 8.52319 3.81593 8.38967C3.81771 8.22988 3.81549 8.06676 3.81326 7.90897C3.80859 7.57316 3.80392 7.22599 3.83596 6.88171C3.84865 6.74396 3.84798 6.6091 3.83396 6.48047C3.82306 6.38166 3.75718 6.30265 3.66995 6.28374C3.60541 6.26994 3.5106 6.2666 3.43205 6.40013C3.40957 6.43818 3.39043 6.48158 3.36951 6.54144C3.30898 6.71414 3.26625 6.90219 3.23532 7.13319C3.20683 7.34527 3.19504 7.56448 3.18347 7.77678C3.17991 7.84243 3.17634 7.90808 3.17234 7.97373C3.14474 8.42327 3.12805 8.90419 3.19304 9.37598C3.21529 9.53732 3.23621 9.7256 3.20327 9.91965C3.16499 10.1462 3.02546 10.2346 2.91486 10.2686C2.80002 10.304 2.62933 10.3093 2.46777 10.1333C2.35026 10.0053 2.30464 9.852 2.27794 9.73272C2.21763 9.46389 2.18224 9.17146 2.16933 8.83809C2.12928 7.79036 2.18936 6.87659 2.35316 6.04517C2.35605 6.03026 2.35916 6.01535 2.36228 6.00044C2.3763 5.93212 2.38965 5.86714 2.39032 5.80438C2.38631 5.80171 2.37786 5.79748 2.36161 5.79192C2.21829 5.74407 2.0861 5.67708 1.95814 5.61232C1.90785 5.58673 1.85577 5.56047 1.80481 5.53621C1.79257 5.53043 1.78033 5.52397 1.76809 5.51752C1.75474 5.5104 1.74227 5.50395 1.73137 5.49927C1.58583 5.63614 1.47945 5.81172 1.37619 5.98219C1.05261 6.5163 0.870571 7.04862 0.819831 7.60965C0.768423 8.17647 0.850097 8.73461 0.945791 9.25358C1.06463 9.8974 1.246 10.5521 1.48501 11.2006H1.48524Z" fill="#4F4F4F"/>
<path d="M5.13619 6.41371C5.01735 6.6258 5.002 6.86325 4.9675 7.09603C4.91677 7.43741 4.95504 7.78147 4.93791 8.12352C4.927 8.34116 4.91454 8.55992 4.83798 8.76911C4.77411 8.94337 4.64081 9.04173 4.46144 9.05664C4.18326 9.07956 4.07533 8.97274 3.99432 8.80428C3.92511 8.66029 3.89373 8.50251 3.8944 8.33938C3.89618 7.93636 3.88728 7.53289 3.89841 7.13008C3.90397 6.92979 3.92823 6.7295 3.92311 6.52832C3.91888 6.35919 3.8243 6.22299 3.69122 6.19629C3.5321 6.16447 3.42461 6.2221 3.34227 6.39302C3.23233 6.62135 3.18248 6.86881 3.15511 7.11673C3.09102 7.69779 3.06097 8.28108 3.06721 8.86637C3.07032 9.14566 3.1155 9.41983 3.14532 9.69556C3.17692 9.98977 3.0178 10.2268 2.76477 10.2092C2.57961 10.1965 2.48236 10.0612 2.41871 9.91388C2.33704 9.72516 2.32413 9.51753 2.29587 9.31412C2.22154 8.77668 2.23912 8.23701 2.24802 7.69846C2.25381 7.34417 2.29965 6.99099 2.34305 6.63826C2.37977 6.33961 2.44564 6.04674 2.48815 5.74987C2.45187 5.64193 2.4946 5.53778 2.50373 5.43207C2.50818 5.37844 2.50617 5.32459 2.50706 5.27095C2.51908 5.14878 2.46745 5.04841 2.3998 4.95272C2.23823 4.72439 2.07822 4.49561 1.97919 4.23056C1.9102 4.04607 1.89262 3.85647 1.90931 3.66241C1.91443 3.60299 1.92689 3.54424 1.96829 3.49661C2.13275 2.87238 2.57828 2.59798 3.18137 2.50118C3.52898 2.44532 3.87215 2.44554 4.21531 2.50985C4.39713 2.5439 4.57338 2.59976 4.72961 2.70681C4.77679 2.73907 4.81773 2.78892 4.88383 2.78648C4.99799 2.90042 5.08122 3.03083 5.11839 3.19062C5.14465 3.30278 5.13708 3.40537 5.07166 3.50151C5.01468 3.59119 4.93012 3.64015 4.83109 3.67198C4.65172 3.72962 4.46478 3.75187 4.28296 3.79593C4.16857 3.82375 3.99788 3.81863 3.99076 3.96974C3.98386 4.11795 4.15344 4.13509 4.26382 4.17648C4.61277 4.30778 4.97952 4.36743 5.34694 4.41505C5.99566 4.49895 6.64726 4.53945 7.30199 4.53233C7.44442 4.53077 7.58328 4.49428 7.72571 4.50273C8.30366 4.48181 8.87559 4.40615 9.44597 4.31802C9.69478 4.28442 9.9389 4.22834 10.1793 4.15556C10.2405 4.13709 10.2994 4.11239 10.3573 4.08524C10.4198 4.05586 10.4886 4.02204 10.4944 3.94571C10.501 3.85869 10.416 3.84445 10.3588 3.81218C10.2948 3.77591 10.2211 3.76478 10.1528 3.73963C10.0938 3.7058 10.0929 3.6584 10.1345 3.61501C10.376 3.36398 10.6177 3.11339 10.8754 2.87905C10.8892 2.86637 10.9085 2.86503 10.9272 2.87104C11.2199 2.8884 11.48 2.99544 11.7157 3.16347C11.9155 3.30589 12.0595 3.48793 12.1009 3.73896C12.1074 3.77791 12.1307 3.81418 12.1463 3.85179C12.1868 4.25771 12.1116 4.64138 11.9262 5.00412C11.9224 5.06443 11.8621 5.10738 11.8744 5.17281C11.8715 5.36153 11.7825 5.52599 11.7277 5.70046C11.5595 6.27195 11.3692 6.83677 11.2127 7.4116C11.1631 7.59408 11.1478 7.77924 11.1418 7.9684C11.1204 8.65028 11.1017 9.33193 11.0821 10.0138C11.0643 10.6351 11.0434 11.258 10.9722 11.8772C10.911 12.298 10.8723 12.7228 10.7494 13.133C10.7027 13.2894 10.6339 13.4312 10.5075 13.5402C10.3028 13.7165 10.0359 13.6766 9.89618 13.4463C9.83832 13.3511 9.8056 13.2467 9.79937 13.1345C9.7829 12.8401 9.81851 12.5497 9.86435 12.2602C9.87147 12.2145 9.88639 12.1711 9.91888 12.1362C9.94625 11.9671 9.98631 11.799 9.99877 11.6288C10.033 11.1601 10.0597 10.6906 10.0945 10.2223C10.1245 9.81774 10.094 9.41805 10.0793 9.01747C10.066 8.65451 10.0322 8.29065 9.92911 7.93702C9.84165 7.63681 9.77778 7.57962 9.45955 7.57005C9.3683 7.56738 9.2755 7.57161 9.18604 7.55692C8.89095 7.50863 8.74229 7.29699 8.62189 7.04841C8.52242 6.84278 8.46967 6.6209 8.38177 6.41149C8.34683 6.40348 8.32658 6.37766 8.31567 6.3474C8.21442 6.06387 7.97785 5.95705 7.71236 5.91499C7.10481 5.81863 6.49438 5.81529 5.88327 5.89229C5.58974 5.92924 5.3712 6.07233 5.21876 6.32203C5.19672 6.35808 5.16579 6.38456 5.13642 6.41305L5.13619 6.41371Z" fill="#FEB804"/>
<path d="M10.2328 13.773C10.2072 13.773 10.1816 13.771 10.156 13.767C10.0069 13.7434 9.8774 13.6522 9.79149 13.5104C9.72295 13.3973 9.68445 13.2734 9.67711 13.1421C9.65975 12.8303 9.69869 12.525 9.7432 12.2417C9.75299 12.18 9.77258 12.1284 9.80307 12.0852C9.81063 12.0416 9.81864 11.998 9.82643 11.9555C9.84802 11.8398 9.86827 11.7305 9.87628 11.6203C9.89275 11.3942 9.90788 11.1639 9.92235 10.9414C9.93793 10.7028 9.95395 10.4562 9.97198 10.2136C9.99512 9.89963 9.98088 9.58005 9.96708 9.27094C9.9633 9.18815 9.95974 9.10515 9.95662 9.02236C9.94594 8.72838 9.91968 8.3436 9.8113 7.97173C9.73697 7.71625 9.71694 7.70067 9.45545 7.69288C9.43142 7.69222 9.40761 7.69199 9.38357 7.69177C9.31325 7.6911 9.24025 7.69044 9.16592 7.6782C8.80629 7.61945 8.63315 7.35395 8.5112 7.10225C8.45111 6.97808 8.4075 6.84967 8.36543 6.72549C8.33917 6.64804 8.31425 6.57438 8.28576 6.50205C8.24704 6.47624 8.21722 6.43752 8.19986 6.389C8.12865 6.18938 7.9722 6.08056 7.69269 6.03627C7.11407 5.94458 6.51009 5.93702 5.8981 6.01424C5.64417 6.04628 5.45612 6.16802 5.32282 6.38633C5.29611 6.43017 5.26362 6.46111 5.23492 6.48826L5.23425 6.48892C5.15235 6.64359 5.12876 6.81807 5.10384 7.00255C5.09872 7.03972 5.09382 7.07688 5.08826 7.11383C5.05844 7.31478 5.06089 7.51529 5.06333 7.72782C5.06489 7.8589 5.06645 7.99443 5.05977 8.12952C5.04931 8.34049 5.0373 8.57994 4.95251 8.81094C4.87261 9.02881 4.7017 9.15922 4.47115 9.17836C4.10395 9.20885 3.9682 9.03304 3.88363 8.85701C3.80841 8.70078 3.7708 8.52631 3.77169 8.33871C3.77236 8.19939 3.77169 8.05719 3.77102 7.91988C3.76969 7.66017 3.76858 7.39134 3.77592 7.12651C3.77815 7.0464 3.78326 6.96628 3.78816 6.88861C3.79595 6.76532 3.80352 6.64893 3.80062 6.53121C3.79773 6.41994 3.74298 6.33136 3.6671 6.31623C3.57519 6.29776 3.51666 6.31289 3.45256 6.4462C3.36377 6.63068 3.30791 6.84811 3.27675 7.13029C3.21288 7.71069 3.18351 8.29442 3.18952 8.86524C3.19174 9.06264 3.21645 9.26382 3.24048 9.45855C3.2496 9.53176 3.25895 9.60765 3.26696 9.68265C3.28877 9.88583 3.23403 10.0725 3.1163 10.1949C3.02239 10.2926 2.89443 10.3412 2.75623 10.3316C2.4569 10.3109 2.34363 10.049 2.30624 9.96283C2.23236 9.79214 2.2101 9.61344 2.18874 9.44052C2.18429 9.40402 2.17962 9.36753 2.17472 9.33125C2.10551 8.83142 2.11463 8.32647 2.12331 7.83821L2.12576 7.69667C2.13132 7.3544 2.17383 7.01101 2.215 6.67898L2.2219 6.62356C2.24282 6.45421 2.27286 6.28574 2.30201 6.12284C2.32338 6.00333 2.34541 5.88004 2.36344 5.75854C2.34029 5.66462 2.35631 5.57716 2.36922 5.50528C2.37456 5.47568 2.37968 5.44787 2.38191 5.42205C2.38458 5.39067 2.38458 5.35751 2.38458 5.32257C2.38458 5.30477 2.38458 5.28697 2.3848 5.26894C2.3848 5.2656 2.38502 5.26249 2.38547 5.25915C2.39259 5.18749 2.36766 5.11939 2.30001 5.0237C2.14623 4.80649 1.97176 4.56014 1.86449 4.27373C1.79306 4.08278 1.76769 3.8796 1.78727 3.65238C1.79217 3.59519 1.80485 3.51396 1.85626 3.44141C2.02294 2.8421 2.45023 2.49493 3.1617 2.38099C3.53379 2.32135 3.88586 2.32424 4.2377 2.39012C4.46781 2.43329 4.64607 2.50183 4.79851 2.60621C4.81342 2.61644 4.82677 2.62713 4.83857 2.63647C4.85103 2.64649 4.87195 2.66296 4.87907 2.66451C4.91289 2.66273 4.94605 2.67609 4.97009 2.70012C5.10985 2.83943 5.19731 2.99098 5.23759 3.16323C5.27386 3.31901 5.25316 3.45187 5.17416 3.56915C5.10829 3.67219 5.00837 3.74407 4.86861 3.78903C4.75111 3.82686 4.63227 3.85 4.51721 3.87226C4.446 3.88605 4.37901 3.89918 4.31203 3.91543C4.28666 3.92166 4.2604 3.92611 4.23525 3.93056C4.20009 3.93657 4.12709 3.94926 4.11508 3.96461C4.11508 3.96461 4.11374 3.96773 4.1133 3.97596C4.11241 3.99399 4.12887 4.00667 4.23325 4.03827C4.25773 4.04562 4.28287 4.05341 4.30735 4.06253C4.62715 4.18271 4.96052 4.24212 5.3631 4.2942C6.01226 4.3781 6.66409 4.41749 7.30123 4.41059C7.35709 4.40992 7.41384 4.40325 7.47393 4.39612C7.55493 4.38655 7.63861 4.37632 7.7274 4.38099C8.32404 4.35896 8.92179 4.27617 9.42786 4.19784C9.42853 4.19784 9.42942 4.19784 9.43008 4.19762C9.66264 4.16601 9.89631 4.11438 10.1442 4.03916C10.1925 4.02448 10.2437 4.00423 10.3056 3.97507C10.318 3.96929 10.3416 3.95816 10.3579 3.94792C10.3543 3.94636 10.351 3.94481 10.3479 3.94347C10.3329 3.93679 10.316 3.92901 10.2989 3.91944C10.2704 3.90341 10.2335 3.89273 10.1943 3.88138C10.1674 3.87359 10.1396 3.86558 10.1108 3.85512C10.1044 3.85267 10.0982 3.84978 10.0924 3.84644C10.0109 3.79971 9.99045 3.73495 9.98555 3.70045C9.9771 3.64103 9.9989 3.58072 10.047 3.53065C10.2726 3.29609 10.5283 3.03037 10.7938 2.78891C10.835 2.75153 10.8915 2.73751 10.9478 2.75019C11.2403 2.77 11.5229 2.87548 11.7877 3.0642C12.0372 3.24179 12.1794 3.4561 12.2226 3.71959C12.2241 3.72872 12.233 3.74719 12.241 3.76343C12.2477 3.77723 12.2544 3.79125 12.2602 3.80527C12.2648 3.8164 12.2677 3.82797 12.2688 3.83999C12.3105 4.25748 12.2352 4.66184 12.0452 5.04172C12.0374 5.08067 12.0207 5.1116 12.0078 5.13541C12.0038 5.14276 11.9987 5.1521 11.9965 5.15767C11.9971 5.16323 11.9976 5.16902 11.9973 5.1748C11.9951 5.33081 11.9444 5.46567 11.8954 5.59586C11.8772 5.64459 11.8598 5.69066 11.8451 5.73717C11.779 5.9615 11.708 6.19005 11.6393 6.41103C11.5342 6.74863 11.4256 7.0978 11.3315 7.44386C11.2816 7.62701 11.2699 7.81373 11.2647 7.9724C11.2478 8.51029 11.2325 9.05752 11.2173 9.58651L11.2051 10.0176C11.1862 10.681 11.1648 11.2801 11.0945 11.8914C11.0945 11.8925 11.0943 11.8938 11.094 11.895C11.0814 11.9824 11.0693 12.0721 11.0578 12.1587C11.0133 12.4911 10.9672 12.835 10.8675 13.1683C10.8056 13.3746 10.7171 13.5222 10.5882 13.6332C10.4823 13.7245 10.3585 13.7726 10.2335 13.7726L10.2328 13.773ZM8.42775 6.29887C8.45757 6.31111 8.4816 6.3347 8.49429 6.36474C8.53368 6.45866 8.56617 6.55435 8.59755 6.64693C8.63894 6.76933 8.67833 6.88505 8.73174 6.99543C8.84657 7.23244 8.97098 7.39824 9.20554 7.43651C9.26162 7.44564 9.32193 7.44631 9.38602 7.44675C9.41183 7.44697 9.43743 7.4472 9.46302 7.44809C9.82866 7.45899 9.94305 7.54845 10.0465 7.90319C10.1625 8.30087 10.1903 8.70524 10.2014 9.01324C10.2045 9.09535 10.2081 9.17769 10.2119 9.25981C10.2261 9.57605 10.2406 9.90319 10.2163 10.2317C10.1985 10.4731 10.1825 10.7193 10.1669 10.9572C10.1525 11.1804 10.1373 11.4111 10.1209 11.6381C10.1117 11.7619 10.0893 11.8829 10.0674 12.0002C10.0579 12.0516 10.0481 12.1046 10.0396 12.1562C10.0358 12.18 10.0249 12.2023 10.0085 12.2199C10.0014 12.2277 9.99112 12.2421 9.98533 12.2795C9.94282 12.5495 9.90566 12.8392 9.92168 13.1281C9.9268 13.2189 9.95351 13.3045 10.0011 13.3831C10.0492 13.4623 10.1177 13.5126 10.1945 13.5249C10.2729 13.5373 10.3556 13.51 10.4277 13.4479C10.5208 13.3677 10.584 13.2598 10.6323 13.0982C10.7266 12.7833 10.7714 12.4493 10.8145 12.1262C10.8261 12.0396 10.8381 11.9499 10.851 11.8616C10.92 11.2605 10.9412 10.6676 10.9601 10.0107L10.9723 9.57961C10.9872 9.0504 11.0028 8.50317 11.0197 7.96483C11.0251 7.79192 11.0382 7.5874 11.0949 7.37954C11.1904 7.02926 11.2997 6.67809 11.4052 6.33848C11.4737 6.11839 11.5445 5.8905 11.6106 5.66596C11.6277 5.61099 11.6471 5.55958 11.6658 5.50973C11.708 5.39713 11.7481 5.29053 11.7519 5.18015C11.7436 5.10826 11.7737 5.05263 11.7922 5.01858C11.7966 5.01034 11.8026 4.99922 11.8044 4.9941C11.8057 4.9783 11.8102 4.96272 11.8173 4.9487C11.9893 4.61177 12.0597 4.25347 12.0265 3.88361C12.0245 3.87916 12.0223 3.8747 12.02 3.87025C12.0056 3.84043 11.9876 3.80349 11.9804 3.75898C11.9484 3.56337 11.8387 3.40135 11.6451 3.26338C11.4145 3.09914 11.1808 3.01101 10.9311 2.99432C10.6999 3.20663 10.4825 3.43051 10.272 3.64905C10.318 3.6624 10.3692 3.67798 10.4188 3.70624C10.4262 3.71047 10.4366 3.71514 10.448 3.72026C10.5019 3.74452 10.6283 3.80149 10.6162 3.95593C10.6047 4.10504 10.4774 4.16468 10.4091 4.19673C10.3363 4.231 10.2744 4.25525 10.2145 4.2735C9.9544 4.35228 9.70871 4.40681 9.46346 4.43997C8.94894 4.51964 8.34073 4.60398 7.72985 4.62601C7.72607 4.62601 7.72206 4.62601 7.71828 4.62601C7.64907 4.62201 7.57785 4.63046 7.50219 4.63959C7.43832 4.64715 7.37222 4.65516 7.30301 4.65583C6.65497 4.66273 5.99134 4.6229 5.33083 4.53744C4.91156 4.48314 4.56217 4.4206 4.22034 4.2922C4.20343 4.28574 4.18295 4.27951 4.16114 4.27306C4.05521 4.24079 3.85804 4.18092 3.86783 3.96528C3.87807 3.74429 4.09037 3.70757 4.19252 3.68977C4.21478 3.68599 4.23592 3.6822 4.25328 3.67798C4.32583 3.6604 4.39882 3.64615 4.46959 3.63236C4.58264 3.61032 4.68924 3.58963 4.79272 3.55625C4.87862 3.52865 4.9327 3.49171 4.96742 3.43674C4.96809 3.43563 4.96875 3.43451 4.96942 3.43362C5.01059 3.37309 5.01905 3.309 4.99813 3.21931C4.97142 3.10493 4.91468 3.00144 4.82521 2.90397C4.76268 2.89017 4.7175 2.85412 4.68501 2.82808C4.67566 2.82052 4.66676 2.81362 4.65942 2.8085C4.53591 2.72393 4.38725 2.66763 4.19163 2.63091C3.86805 2.57015 3.54358 2.56771 3.19953 2.6229C2.57597 2.72304 2.2219 3.01079 2.08548 3.52865C2.08081 3.54668 2.0719 3.56359 2.05966 3.57761C2.0432 3.59653 2.03429 3.62523 2.03029 3.67353C2.01404 3.8638 2.03452 4.03227 2.09282 4.18827C2.18896 4.44508 2.35364 4.67742 2.49874 4.8826C2.56706 4.97897 2.64317 5.11071 2.62849 5.27806C2.62849 5.29297 2.62849 5.30766 2.62849 5.32257C2.62849 5.36107 2.62849 5.40091 2.62492 5.44275C2.62181 5.48036 2.61536 5.5153 2.60912 5.54912C2.59777 5.61143 2.58798 5.66529 2.60334 5.71091C2.60935 5.72916 2.61113 5.7483 2.60846 5.76744C2.58932 5.90163 2.56528 6.03605 2.54192 6.16601C2.51321 6.3258 2.48383 6.49093 2.4638 6.65338L2.4569 6.70902C2.41662 7.03482 2.37501 7.37153 2.36967 7.70067L2.36722 7.84266C2.35854 8.32157 2.34964 8.81695 2.4164 9.29765C2.42152 9.33503 2.42619 9.37287 2.43087 9.41025C2.45112 9.57315 2.47026 9.72715 2.53012 9.86558C2.59421 10.0138 2.66654 10.0801 2.77225 10.0872C2.83901 10.0919 2.89487 10.071 2.93916 10.0251C3.00547 9.95615 3.03685 9.83798 3.02283 9.70891C3.01504 9.63569 3.0057 9.56092 2.9968 9.48859C2.97209 9.28719 2.94628 9.07911 2.94405 8.86791C2.93782 8.28708 2.96764 7.69355 3.03262 7.10337C3.0669 6.7927 3.12988 6.55012 3.23113 6.34004C3.33617 6.12173 3.49863 6.03293 3.71428 6.07633C3.90299 6.11416 4.03874 6.29865 4.04453 6.5252C4.04787 6.65361 4.03963 6.78112 4.03184 6.90441C4.02695 6.97986 4.02205 7.05797 4.01983 7.13341C4.01248 7.39445 4.01382 7.66106 4.01515 7.91877C4.01582 8.05674 4.01649 8.19939 4.01582 8.33982C4.01515 8.49004 4.04475 8.62846 4.10373 8.75108C4.17004 8.88928 4.23903 8.95181 4.45045 8.93445C4.58442 8.92333 4.67566 8.85345 4.72218 8.72682C4.79406 8.53054 4.80452 8.32046 4.81475 8.11727C4.82121 7.98998 4.81965 7.85823 4.81809 7.73072C4.81564 7.51797 4.81297 7.29809 4.84569 7.07777C4.85103 7.04172 4.85592 7.00567 4.86082 6.96962C4.88864 6.76466 4.91712 6.55257 5.02884 6.35362C5.03463 6.34338 5.04197 6.33381 5.05043 6.32558C5.05555 6.32046 5.06089 6.31556 5.066 6.31067C5.08626 6.29153 5.10361 6.27484 5.11341 6.25881C5.28566 5.97663 5.53913 5.81261 5.86716 5.77122C6.50208 5.69111 7.12921 5.69889 7.73074 5.79437C8.09571 5.85223 8.3236 6.01713 8.4273 6.29843L8.42775 6.29887Z" fill="#4F4F4F"/>
<path d="M9.91872 12.1369C9.88177 12.4627 9.81746 12.7856 9.8366 13.1168C9.84995 13.3451 9.95833 13.5347 10.1223 13.5932C10.3033 13.6578 10.5171 13.5523 10.6251 13.3386C10.7417 13.1076 10.7853 12.8551 10.8271 12.6031C10.8668 12.3655 10.9008 12.1271 10.9375 11.889C10.9947 11.8207 11.0817 11.8122 11.1576 11.7873C11.5046 11.6727 11.8419 11.538 12.1506 11.3391C12.1838 11.3177 12.2189 11.2908 12.2643 11.3095C12.1773 11.6308 12.0442 11.9357 11.9263 12.246C11.7609 12.6808 11.5635 13.1019 11.3695 13.5243C11.3528 13.5605 11.323 13.5906 11.2992 13.6235C11.2226 13.7003 11.1242 13.7388 11.0265 13.7786C10.2269 14.1055 9.38839 14.2738 8.53538 14.3739C7.98526 14.4387 7.43179 14.4714 6.87766 14.4585C5.75404 14.432 4.63887 14.3276 3.54707 14.0437C3.2769 13.9733 3.00918 13.893 2.74725 13.7951C2.68672 13.7724 2.6293 13.7452 2.57967 13.703C2.37627 13.3981 2.22116 13.066 2.04446 12.7462C1.78564 12.278 1.56666 11.7915 1.38684 11.2877C1.42512 11.2327 1.46206 11.2777 1.49299 11.2939C2.2216 11.6767 3.00228 11.9135 3.79921 12.0951C4.24185 12.1959 4.69428 12.2513 5.14627 12.3065C5.91649 12.4006 6.68872 12.3964 7.46028 12.377C7.90981 12.3657 8.36024 12.3285 8.80956 12.2838C9.18165 12.2469 9.54751 12.1741 9.91849 12.1365L9.91872 12.1369Z" fill="#AB5811"/>
<path d="M7.12336 14.5835C7.04013 14.5835 6.95734 14.5827 6.875 14.5807C5.56355 14.5497 4.49623 14.4166 3.51637 14.162C3.21483 14.0837 2.94911 14.0011 2.70453 13.9097C2.64578 13.8876 2.56945 13.8549 2.50046 13.796C2.492 13.7886 2.48444 13.7802 2.47821 13.7708C2.33422 13.5552 2.2136 13.3253 2.09677 13.1032C2.04514 13.005 1.99195 12.9036 1.93765 12.8056C1.67794 12.3361 1.45406 11.8391 1.2718 11.3291C1.25845 11.2917 1.26401 11.2503 1.28671 11.2178C1.3103 11.1842 1.39798 11.0823 1.54308 11.1811C1.54575 11.1829 1.54842 11.1849 1.55109 11.1864C2.17199 11.5127 2.89548 11.7637 3.82638 11.976C4.26434 12.0759 4.72033 12.1316 5.16119 12.1854C5.95923 12.2829 6.76484 12.2724 7.4574 12.2551C7.94187 12.2428 8.42813 12.1992 8.79778 12.1625C8.98226 12.144 9.16987 12.1162 9.35124 12.0891C9.53239 12.0621 9.71955 12.0341 9.90649 12.0152C9.94321 12.0114 9.97993 12.0245 10.006 12.051C10.032 12.0775 10.0447 12.114 10.0405 12.1509C10.0311 12.2324 10.0202 12.3143 10.0095 12.3937C9.97637 12.6396 9.94521 12.8722 9.95901 13.1099C9.96947 13.2901 10.0518 13.4381 10.1637 13.4782C10.2864 13.522 10.4379 13.4383 10.516 13.2834C10.6264 13.0651 10.6671 12.8201 10.7068 12.5829C10.7341 12.4186 10.7595 12.2506 10.7838 12.0884C10.7947 12.0156 10.8056 11.9431 10.8167 11.8703C10.82 11.8483 10.8296 11.8273 10.8438 11.8102C10.9128 11.7279 11.0056 11.7027 11.0733 11.6842C11.0889 11.68 11.1042 11.6758 11.1191 11.6709C11.3966 11.5792 11.7572 11.4468 12.0843 11.236L12.0912 11.2316C12.1297 11.2064 12.2098 11.1541 12.3113 11.1964C12.368 11.22 12.3985 11.2821 12.3823 11.3413C12.3151 11.5899 12.2205 11.8296 12.1293 12.0612C12.0994 12.1371 12.0694 12.213 12.0405 12.2893C11.8887 12.6884 11.7082 13.0805 11.5337 13.4597L11.4805 13.5752C11.463 13.6137 11.4383 13.6444 11.4182 13.6693C11.4113 13.6778 11.4044 13.6862 11.3982 13.6951C11.3944 13.7005 11.3902 13.7054 11.3857 13.7101C11.2945 13.8017 11.1823 13.8474 11.0835 13.8879L11.0728 13.8923C10.3534 14.1863 9.55153 14.3781 8.54964 14.4959C8.04714 14.5551 7.57779 14.584 7.12314 14.584L7.12336 14.5835ZM2.6716 13.6195C2.70097 13.6417 2.73836 13.6609 2.79021 13.6802C3.027 13.7686 3.2847 13.8487 3.57802 13.925C4.53918 14.175 5.5887 14.3054 6.88079 14.3359C7.40154 14.3481 7.93809 14.3207 8.52115 14.2522C9.50057 14.1371 10.2819 13.9504 10.9803 13.6651L10.9912 13.6607C11.0731 13.6273 11.1507 13.5957 11.2066 13.5427C11.2133 13.5338 11.2204 13.5249 11.2275 13.516C11.2402 13.5002 11.2533 13.484 11.2582 13.4728L11.3114 13.3571C11.4843 12.9817 11.663 12.5933 11.8117 12.2021C11.8411 12.1247 11.8718 12.0468 11.9016 11.9713C11.9581 11.8276 12.0162 11.6807 12.0672 11.5322C11.7612 11.7061 11.4463 11.8204 11.1961 11.9032C11.1761 11.9099 11.1565 11.9152 11.1376 11.9204C11.0998 11.9306 11.0717 11.9386 11.0519 11.9504C11.043 12.0085 11.0343 12.0666 11.0257 12.1247C11.0012 12.288 10.9756 12.4569 10.948 12.6232C10.9075 12.8664 10.8614 13.1421 10.7344 13.3938C10.5984 13.6629 10.3238 13.7953 10.0812 13.7085C9.87155 13.6337 9.73112 13.4096 9.71443 13.1239C9.6993 12.8626 9.73357 12.6076 9.76673 12.361C9.77051 12.333 9.7743 12.3047 9.77808 12.2762C9.647 12.2925 9.51548 12.312 9.38729 12.3312C9.20303 12.3588 9.01253 12.387 8.82181 12.406C8.44816 12.4431 7.95589 12.4874 7.4634 12.4996C6.76217 12.5172 5.94588 12.5277 5.13137 12.4282C4.68428 12.3737 4.22206 12.3172 3.77185 12.2146C2.89414 12.0145 2.19491 11.7797 1.58892 11.4804C1.74938 11.8961 1.93809 12.3011 2.15151 12.6872C2.20693 12.7876 2.261 12.8902 2.31308 12.9895C2.42413 13.2007 2.53874 13.419 2.67137 13.6197L2.6716 13.6195Z" fill="#4F4F4F"/>
<path d="M2.57996 13.703C2.88417 13.7975 3.18572 13.9021 3.49327 13.9843C4.07456 14.1391 4.66497 14.2493 5.26428 14.3116C5.68666 14.3555 6.10905 14.3844 6.53366 14.3997C6.80316 14.4095 7.07311 14.4262 7.34217 14.4164C8.29621 14.3822 9.24046 14.2789 10.1658 14.0263C10.555 13.9202 10.926 13.7699 11.2994 13.6233C11.064 14.1127 10.7972 14.5833 10.4482 15.0024C10.2286 15.2661 9.91699 15.3856 9.6061 15.4871C8.41193 15.8772 7.18438 15.9335 5.94214 15.8343C5.37421 15.7889 4.82008 15.6838 4.28375 15.4911C4.0078 15.3921 3.74742 15.2597 3.50351 15.097C3.34373 14.9904 3.2467 14.827 3.14499 14.6708C2.94137 14.3575 2.75087 14.0359 2.57996 13.703Z" fill="#DF8014"/>
<path d="M6.97163 15.9996C6.63981 15.9996 6.29443 15.9849 5.93212 15.9562C5.31323 15.9068 4.76043 15.7924 4.24213 15.6063C3.96106 15.5053 3.68955 15.3682 3.43541 15.1989C3.26783 15.0872 3.16591 14.9291 3.06754 14.7767L3.0424 14.7378C2.82186 14.3984 2.63492 14.0781 2.47113 13.759C2.44865 13.7152 2.45466 13.6622 2.48626 13.6244C2.51786 13.5868 2.56927 13.5716 2.61622 13.5863C2.71147 13.6159 2.80784 13.6469 2.90086 13.6769C3.10493 13.7425 3.3159 13.8104 3.52465 13.8661C4.10371 14.0203 4.69322 14.1293 5.27673 14.1901C5.68733 14.2328 6.11172 14.2622 6.53789 14.2778C6.59441 14.2798 6.65116 14.2822 6.70791 14.2844C6.91532 14.2931 7.12985 14.302 7.33771 14.2945C8.42372 14.2555 9.31212 14.1329 10.1335 13.9086C10.4856 13.8124 10.8314 13.6762 11.1659 13.5445L11.2547 13.5095C11.3017 13.4911 11.3548 13.5033 11.3891 13.5403C11.4234 13.5772 11.4316 13.6313 11.4096 13.6767C11.1274 14.2629 10.8517 14.7091 10.5421 15.0809C10.3 15.3716 9.96573 15.4986 9.64393 15.6037C8.82786 15.8703 7.96128 16 6.97163 16V15.9996ZM2.82942 13.9106C2.95427 14.1362 3.09225 14.365 3.24758 14.6038L3.27317 14.6434C3.36197 14.7812 3.44587 14.9111 3.57116 14.9948C3.80884 15.1532 4.06231 15.2814 4.32469 15.3756C4.8223 15.5543 5.3544 15.6642 5.95149 15.7118C7.36085 15.8242 8.51007 15.7158 9.56782 15.3702C9.85557 15.2763 10.1533 15.1644 10.3538 14.9236C10.5989 14.6294 10.8225 14.2847 11.0471 13.8534C10.7716 13.9604 10.4887 14.0648 10.1978 14.1442C9.35774 14.3737 8.45176 14.499 7.34639 14.5386C7.12896 14.5464 6.90954 14.5372 6.69767 14.5286C6.64137 14.5261 6.58529 14.5239 6.52899 14.5219C6.09725 14.5063 5.66752 14.4765 5.25136 14.4331C4.65517 14.371 4.05297 14.2597 3.46145 14.1022C3.2478 14.0452 3.03505 13.9769 2.8292 13.9106H2.82942Z" fill="#4F4F4F"/>
<path d="M12.2643 11.309C11.8573 11.5827 11.4073 11.7579 10.9377 11.8885C10.9738 11.283 11.0098 10.6776 11.0455 10.0721C11.0479 10.0309 11.0481 9.98955 11.0468 9.94838C11.0297 9.41716 11.0853 8.88729 11.0764 8.3563C11.0653 7.684 11.2486 7.0513 11.4658 6.42462C11.5359 6.22233 11.5914 6.0147 11.653 5.80951C11.6672 5.76189 11.6719 5.71092 11.7066 5.67131C11.8617 5.62391 11.9884 5.50974 12.1513 5.48059C12.6297 6.03628 12.8576 6.69412 12.9442 7.41138C13.0063 7.92612 12.9571 8.43619 12.8879 8.9447C12.7795 9.73985 12.5525 10.5054 12.2868 11.2605C12.281 11.2772 12.2719 11.2928 12.2641 11.3088L12.2643 11.309Z" fill="#DF8014"/>
<path d="M10.9377 12.0109C10.9101 12.0109 10.8827 12.0016 10.8607 11.9838C10.83 11.9589 10.8131 11.9208 10.8155 11.8814L10.8358 11.5425C10.8652 11.05 10.8943 10.5575 10.9233 10.065C10.9253 10.0296 10.9257 9.99179 10.9246 9.9524C10.9155 9.66643 10.927 9.37846 10.9382 9.09984C10.948 8.85637 10.9582 8.60468 10.954 8.35877C10.9431 7.70115 11.1044 7.09405 11.3501 6.3848C11.3986 6.2446 11.4411 6.09817 11.4823 5.95641C11.4999 5.89565 11.5174 5.8349 11.5357 5.77437C11.5386 5.7648 11.5408 5.75501 11.5433 5.74544C11.5539 5.70226 11.5686 5.64307 11.6147 5.59055C11.6296 5.57341 11.6492 5.56095 11.671 5.55427C11.7277 5.53691 11.7836 5.50687 11.8426 5.47505C11.9254 5.43031 12.0195 5.3798 12.1299 5.35999C12.1726 5.35242 12.216 5.36778 12.2443 5.40072C12.6987 5.92859 12.9675 6.58153 13.0661 7.39671C13.1307 7.9317 13.077 8.46492 13.0096 8.96141C12.915 9.65575 12.7279 10.3775 12.4027 11.3012C12.396 11.3202 12.3878 11.3364 12.3814 11.3493C12.3794 11.3533 12.3774 11.3573 12.3753 11.3613C12.366 11.3814 12.3513 11.3983 12.3331 11.4105C11.9574 11.6631 11.5246 11.8525 10.9709 12.0065C10.96 12.0094 10.9491 12.0109 10.9382 12.0109H10.9377ZM11.7896 5.77214C11.7867 5.78149 11.7838 5.79284 11.7812 5.80397C11.7778 5.81754 11.7745 5.83112 11.7703 5.84447C11.7522 5.90433 11.7349 5.96442 11.7175 6.02428C11.6754 6.16894 11.6321 6.31849 11.5815 6.46448C11.3443 7.14902 11.1885 7.73253 11.1988 8.35409C11.203 8.60712 11.1928 8.86238 11.1827 9.10918C11.1716 9.38336 11.1603 9.6671 11.1692 9.94417C11.1707 9.9909 11.1701 10.0363 11.1676 10.079C11.1387 10.5715 11.1093 11.064 11.0801 11.5565L11.0704 11.7221C11.507 11.5885 11.8602 11.4285 12.1695 11.2249C12.1704 11.2229 12.1713 11.2211 12.1717 11.2198C12.4913 10.312 12.6749 9.60545 12.767 8.92803C12.8325 8.44778 12.8845 7.93326 12.8231 7.42586C12.7343 6.69058 12.5002 6.09839 12.1079 5.61859C12.0587 5.63639 12.0095 5.66287 11.9587 5.69025C11.9053 5.71895 11.8504 5.74855 11.7896 5.77192V5.77214Z" fill="#4F4F4F"/>
<path d="M9.48117 4.34849C9.16516 4.41859 8.84359 4.45553 8.52246 4.48468C8.25518 4.50894 7.98902 4.55857 7.71863 4.54099C7.76002 4.38565 7.89132 4.29619 7.99792 4.19983C8.20288 4.01467 8.36601 3.79102 8.57186 3.6092C8.6206 3.56603 8.54783 3.55067 8.56897 3.52196C8.68269 3.49147 8.7628 3.41447 8.84292 3.33369C8.98935 3.18592 9.13178 3.03392 9.28711 2.89506C9.34186 2.8866 9.37057 2.84231 9.40506 2.80715C9.76046 2.4453 10.1141 2.08166 10.4719 1.72225C10.5351 1.6586 10.5647 1.59562 10.5543 1.50505C10.5033 1.05685 10.6115 0.662277 10.9471 0.342482C11.231 0.071869 11.4478 0.0500597 11.7585 0.285733C12.1188 0.558794 12.4252 0.882595 12.6611 1.2716C12.7499 1.41804 12.7392 1.55356 12.6602 1.69799C12.4339 2.11059 12.0829 2.30888 11.6174 2.30687C11.5226 2.30643 11.4542 2.33291 11.3895 2.40235C11.2397 2.5628 11.0824 2.71613 10.9279 2.87236C10.6713 3.12672 10.415 3.38087 10.1581 3.63479C10.133 3.65972 10.1163 3.68353 10.1441 3.71646C9.90289 3.90585 9.70973 4.14553 9.48184 4.34893L9.48117 4.34849Z" fill="#AD5714"/>
<path d="M7.83572 4.66719C7.7941 4.66719 7.75249 4.66608 7.71065 4.66319C7.67415 4.66074 7.64055 4.64227 7.61918 4.61245C7.59782 4.58262 7.59092 4.54501 7.60027 4.50963C7.64455 4.34317 7.76629 4.23835 7.8642 4.15423C7.88179 4.1391 7.89914 4.12419 7.91583 4.10905C8.01108 4.02293 8.09654 3.92857 8.18689 3.82887C8.26879 3.73852 8.35291 3.64549 8.44527 3.55892C8.43458 3.50551 8.45929 3.46434 8.46997 3.44966C8.48644 3.42718 8.51025 3.41071 8.53718 3.40359C8.61774 3.382 8.67871 3.32525 8.75571 3.24736C8.79088 3.21198 8.82581 3.17615 8.86053 3.14054C8.97047 3.02816 9.08419 2.91177 9.20525 2.80383C9.22239 2.78848 9.24375 2.77824 9.26645 2.77446C9.27268 2.77045 9.28559 2.75599 9.29427 2.74642C9.30184 2.73796 9.30962 2.7295 9.31741 2.72149C9.41778 2.61935 9.51793 2.51698 9.61807 2.41483C9.86865 2.1589 10.1277 1.8943 10.385 1.63593C10.4315 1.58919 10.4373 1.56093 10.4326 1.51909C10.3743 1.00702 10.5189 0.581515 10.8625 0.254153C11.195 -0.0627489 11.4761 -0.0816651 11.8324 0.18828C12.2189 0.48137 12.5329 0.82431 12.7657 1.2082C12.8725 1.38445 12.8732 1.56404 12.7675 1.75699C12.5216 2.20564 12.1337 2.4313 11.6167 2.42929H11.615C11.5529 2.42929 11.5184 2.44376 11.4788 2.48582C11.3706 2.60154 11.2575 2.71482 11.1483 2.82431C11.1038 2.86882 11.0593 2.91355 11.015 2.95828L10.8318 3.13988C10.6431 3.32703 10.4544 3.51397 10.2654 3.70068C10.2666 3.71003 10.2668 3.71938 10.2659 3.72873C10.2626 3.76166 10.2459 3.79193 10.2196 3.81262C10.0859 3.91766 9.96813 4.03806 9.84373 4.1658C9.75427 4.25749 9.66191 4.35207 9.5631 4.4402C9.54752 4.45422 9.52861 4.46379 9.50813 4.46846C9.17031 4.54346 8.82626 4.58062 8.53406 4.6071C8.4624 4.61356 8.38896 4.62224 8.31797 4.63047C8.1613 4.64872 8.0004 4.66764 7.83639 4.66764L7.83572 4.66719ZM8.71009 3.59653C8.7052 3.63882 8.68116 3.67554 8.65268 3.70091C8.55231 3.7897 8.46285 3.88851 8.36827 3.99311C8.27791 4.09303 8.18444 4.19629 8.07985 4.29065C8.0616 4.30712 8.04291 4.32336 8.02377 4.33961C7.99261 4.36654 7.96212 4.3928 7.93475 4.41995C8.0507 4.4146 8.16753 4.40103 8.28882 4.38679C8.36137 4.37833 8.43659 4.36943 8.51136 4.36275C8.78665 4.33783 9.10867 4.30311 9.42312 4.23568C9.50724 4.1589 9.58869 4.07523 9.66792 3.99422C9.77496 3.88451 9.88512 3.77168 10.0069 3.66908C10.0102 3.63236 10.0276 3.59053 10.0716 3.54713C10.2677 3.35352 10.4633 3.15946 10.6589 2.9654L10.8412 2.7847C10.8848 2.74041 10.9297 2.69546 10.9747 2.65072C11.0826 2.54257 11.1943 2.43085 11.2996 2.31824C11.3853 2.22656 11.4854 2.18405 11.6147 2.18405C11.6181 2.18405 11.6212 2.18405 11.6245 2.18405C12.0476 2.18405 12.3511 2.00557 12.5525 1.63882C12.616 1.5231 12.6171 1.43497 12.5561 1.3346C12.3396 0.97742 12.0462 0.657179 11.6844 0.383006C11.4271 0.188058 11.2745 0.199185 11.0314 0.430853C10.7424 0.706362 10.6262 1.05308 10.6758 1.49105C10.6896 1.61323 10.6525 1.71382 10.5585 1.8084C10.3022 2.0661 10.0434 2.33026 9.79321 2.58596C9.69307 2.68833 9.5927 2.7907 9.49233 2.89285C9.48677 2.89864 9.48143 2.90442 9.47609 2.91043C9.44849 2.94092 9.40932 2.98432 9.34701 3.0059C9.23997 3.10316 9.13626 3.20909 9.0359 3.3119C9.00051 3.34795 8.96535 3.38401 8.92974 3.41983C8.87433 3.47569 8.80378 3.54691 8.71031 3.59653H8.71009Z" fill="#4F4F4F"/>
<path d="M9.28684 2.89505C9.27727 2.97673 9.20494 3.011 9.15665 3.06196C9.03492 3.1897 8.9054 3.3101 8.78523 3.4394C8.72469 3.50438 8.65904 3.53798 8.57114 3.52864C8.53108 3.56825 8.47967 3.56936 8.4296 3.56469C7.9745 3.5224 7.51873 3.48769 7.06252 3.46966C6.59673 3.45141 6.12984 3.4414 5.66405 3.47812C5.49536 3.49147 5.32556 3.47812 5.15754 3.50571C5.12127 3.51172 5.08433 3.50304 5.05517 3.47634C5.15554 3.26314 5.06741 3.08488 4.94657 2.91531C4.91786 2.87503 4.87692 2.84409 4.88337 2.78757C5.87769 2.67184 6.87469 2.67718 7.87124 2.73749C8.34459 2.7662 8.81994 2.79736 9.28662 2.89528L9.28684 2.89505Z" fill="#E17F13"/>
<path d="M8.46529 3.68887C8.44593 3.68887 8.42968 3.68732 8.41855 3.68643C7.8938 3.63769 7.46162 3.60765 7.05792 3.59184C6.61484 3.57426 6.14037 3.56336 5.67392 3.59986C5.60382 3.60542 5.53417 3.60653 5.46674 3.60765C5.36592 3.60943 5.27067 3.61098 5.17765 3.62612C5.10243 3.63858 5.02766 3.61655 4.97269 3.56603C4.9333 3.52975 4.92195 3.47212 4.94487 3.42382C5.00696 3.29186 4.9807 3.17324 4.8474 2.98608C4.8425 2.9794 4.83716 2.97295 4.83204 2.96672C4.80178 2.93022 4.75148 2.8688 4.76238 2.77333C4.76884 2.7168 4.81335 2.67229 4.86987 2.66584C5.76739 2.56125 6.72366 2.54522 7.87933 2.61532C8.32063 2.64203 8.82113 2.67229 9.31229 2.77555C9.37438 2.78846 9.41622 2.84677 9.40865 2.90975C9.39596 3.01724 9.3252 3.07732 9.27846 3.11716C9.266 3.12784 9.2542 3.13786 9.24575 3.14654C9.18878 3.2064 9.1298 3.26493 9.07283 3.32168C9.00696 3.3871 8.93886 3.45476 8.87521 3.52308C8.79665 3.60765 8.70942 3.65037 8.60994 3.65282C8.55898 3.68287 8.50557 3.68932 8.46551 3.68932L8.46529 3.68887ZM6.35535 3.33058C6.59792 3.33058 6.83694 3.33792 7.06749 3.34705C7.47564 3.36307 7.91204 3.39356 8.44125 3.44252C8.47508 3.44563 8.48354 3.44252 8.48487 3.44185C8.51113 3.41581 8.54807 3.40291 8.58457 3.40669C8.62129 3.41069 8.65133 3.40357 8.69584 3.35573C8.76261 3.28384 8.83248 3.21463 8.90014 3.14743C8.95577 3.09223 9.01341 3.03504 9.06771 2.97785C8.65556 2.9073 8.23829 2.88193 7.8642 2.85945C6.80044 2.79492 5.90893 2.80426 5.07773 2.88905C5.17053 3.02792 5.24575 3.18882 5.21504 3.3742C5.29916 3.36552 5.38195 3.36396 5.46251 3.36262C5.52905 3.36151 5.59203 3.3604 5.65478 3.3555C5.8889 3.33703 6.12391 3.33036 6.35557 3.33036L6.35535 3.33058Z" fill="#4F4F4F"/>
<path d="M1.96794 3.49725C1.90296 3.85221 1.95726 4.18202 2.14464 4.49625C2.24323 4.6616 2.35739 4.81516 2.46154 4.97583C2.51784 5.06262 2.55612 5.15275 2.54722 5.25824C2.34092 5.24266 2.15554 5.17501 1.99665 5.04015C1.80904 4.92576 1.61588 4.81449 1.52842 4.59751C1.39155 4.25902 1.49971 3.85644 1.78901 3.62077C1.84465 3.57537 1.89517 3.51884 1.96816 3.49725H1.96794Z" fill="#E07F12"/>
<path d="M2.54725 5.38064C2.54413 5.38064 2.54101 5.38064 2.5379 5.38019C2.30111 5.36239 2.09481 5.28138 1.92479 5.13962L1.91277 5.13228C1.72606 5.01878 1.5142 4.88993 1.4145 4.64313C1.25783 4.25523 1.37978 3.79568 1.71115 3.52574C1.7225 3.51639 1.73363 3.50682 1.74453 3.49703C1.79171 3.45563 1.85046 3.404 1.93303 3.37975C1.97375 3.36773 2.01781 3.37774 2.04942 3.40623C2.08102 3.43472 2.09548 3.47744 2.08792 3.51928C2.02716 3.85043 2.08013 4.14953 2.24948 4.43349C2.30801 4.53163 2.37433 4.62866 2.43842 4.72235C2.47981 4.78311 2.52277 4.84564 2.56394 4.90929C2.61534 4.98874 2.68211 5.11225 2.66875 5.2687C2.66319 5.33234 2.60978 5.38064 2.54702 5.38064H2.54725ZM1.81908 3.7574C1.60589 3.96348 1.53245 4.28127 1.64172 4.55166C1.71115 4.72324 1.87094 4.82049 2.04029 4.92353L2.06032 4.93577C2.06588 4.93911 2.071 4.94289 2.0759 4.9469C2.17003 5.02701 2.27641 5.08131 2.3977 5.11136C2.38768 5.08977 2.37477 5.06707 2.35875 5.04259C2.31936 4.98162 2.2773 4.92019 2.23657 4.86077C2.17026 4.76397 2.10194 4.66382 2.0394 4.55923C1.88763 4.30486 1.81463 4.04048 1.81886 3.75763L1.81908 3.7574Z" fill="#4F4F4F"/>
<path d="M1.99658 5.04016C2.18018 5.11293 2.36378 5.1857 2.54715 5.25825C2.55672 5.42583 2.52645 5.58851 2.48818 5.7503C2.21356 5.64281 1.94361 5.52575 1.69214 5.36997C1.79362 5.26003 1.89488 5.1501 1.99636 5.04016H1.99658Z" fill="#AC5810"/>
<path d="M2.48816 5.87269C2.47303 5.87269 2.4579 5.87002 2.44366 5.86423C2.19441 5.76676 1.90265 5.64413 1.62781 5.47389C1.59688 5.45475 1.57596 5.42248 1.57106 5.38643C1.56617 5.35038 1.57752 5.31366 1.60244 5.28695L1.90666 4.95714C1.94093 4.91998 1.99479 4.90774 2.04174 4.92643L2.59231 5.14452C2.6366 5.16211 2.66664 5.20372 2.66931 5.25135C2.68 5.43939 2.64573 5.61587 2.60722 5.77855C2.59899 5.81305 2.57629 5.8422 2.54491 5.85867C2.52711 5.86801 2.50775 5.87269 2.48816 5.87269ZM1.88529 5.34125C2.05754 5.43695 2.23469 5.51573 2.39915 5.58294C2.41406 5.50438 2.42474 5.42359 2.4263 5.34192L2.0295 5.18458L1.88529 5.34103V5.34125Z" fill="#4F4F4F"/>
<path d="M11.9262 5.00483C11.9857 4.75892 12.0682 4.51924 12.1105 4.26821C12.1339 4.12934 12.0838 3.98625 12.1461 3.85272C12.4679 4.11955 12.3451 4.63051 12.0985 4.87397C12.0469 4.92494 11.9952 4.97657 11.926 5.00505L11.9262 5.00483Z" fill="#E08012"/>
<path d="M11.9263 5.12721C11.8976 5.12721 11.8691 5.11697 11.8466 5.09761C11.8117 5.06757 11.7965 5.02061 11.8074 4.97588C11.8297 4.88419 11.8551 4.79317 11.8795 4.70482C11.9232 4.54859 11.9641 4.40105 11.9899 4.24772C11.997 4.20543 11.995 4.15781 11.993 4.10729C11.9893 4.01404 11.985 3.90856 12.0353 3.80063C12.0513 3.76635 12.0825 3.74121 12.1194 3.73297C12.1564 3.72474 12.1951 3.73408 12.2243 3.75812C12.3709 3.87963 12.453 4.05099 12.4617 4.2535C12.4726 4.50609 12.3638 4.7836 12.1844 4.96052L12.1815 4.96342C12.1259 5.01838 12.0627 5.0807 11.9726 5.11764C11.9577 5.12387 11.9419 5.12676 11.9261 5.12676L11.9263 5.12721Z" fill="#4F4F4F"/>
<path d="M12.1514 5.48057C12.0092 5.55846 11.8842 5.67597 11.7068 5.67129C11.7626 5.50527 11.8185 5.33948 11.8744 5.17346C11.9814 5.2627 12.0789 5.3604 12.1514 5.48057Z" fill="#AD5910"/>
<path d="M11.7173 5.79395C11.7127 5.79395 11.7082 5.79395 11.7035 5.79395C11.6648 5.79284 11.6288 5.77347 11.6065 5.74165C11.5843 5.70983 11.5785 5.66932 11.5909 5.6326L11.7585 5.13478C11.7714 5.0965 11.8023 5.06712 11.8411 5.05599C11.8798 5.04509 11.9216 5.05377 11.9528 5.07981C12.0892 5.1933 12.1856 5.30057 12.2563 5.41763C12.2737 5.44611 12.2784 5.48061 12.2697 5.51265C12.261 5.54492 12.2396 5.57207 12.2103 5.5881C12.1789 5.60523 12.1477 5.62504 12.1146 5.64618C12.0053 5.71561 11.8818 5.79417 11.7173 5.79417V5.79395ZM11.9299 5.39226L11.896 5.49285C11.9221 5.47816 11.9483 5.46169 11.9757 5.44433C11.9615 5.42697 11.9461 5.40962 11.9299 5.39226Z" fill="#4F4F4F"/>
<path d="M5.13599 6.41371C5.25928 6.11238 5.47804 5.92634 5.80006 5.86781C6.31213 5.77501 6.82709 5.79526 7.34251 5.82998C7.49294 5.83999 7.64138 5.85957 7.7887 5.89073C8.08513 5.95327 8.29343 6.1135 8.38134 6.41193C8.38423 6.4778 8.34929 6.49338 8.28809 6.49739C7.64962 6.53767 7.01003 6.53633 6.37133 6.5183C5.95895 6.50673 5.54769 6.44998 5.13599 6.41349V6.41371Z" fill="#AB5811"/>
<path d="M7.16358 6.65293C6.91499 6.65293 6.65128 6.64892 6.36798 6.64091C6.07845 6.63268 5.78714 6.60241 5.5054 6.57326C5.38078 6.56035 5.2517 6.547 5.1253 6.53565C5.08658 6.53231 5.05186 6.5105 5.03161 6.47734C5.01136 6.44418 5.00824 6.40324 5.02293 6.36741C5.16469 6.02135 5.41883 5.81261 5.77846 5.7474C6.31813 5.6497 6.85112 5.67418 7.35096 5.70801C7.51297 5.71891 7.66452 5.73961 7.81429 5.77099C8.17259 5.84643 8.40292 6.0505 8.49906 6.37742C8.50195 6.38699 8.50351 6.39678 8.50396 6.40657C8.50663 6.46644 8.49172 6.60709 8.2961 6.61955C7.9447 6.6418 7.57461 6.65271 7.1638 6.65271L7.16358 6.65293ZM5.32715 6.30888C5.39569 6.31578 5.46379 6.32268 5.53055 6.32957C5.80784 6.35828 6.09448 6.3881 6.37488 6.39589C7.1006 6.41637 7.69479 6.41058 8.24024 6.37764C8.16057 6.17936 8.00724 6.06185 7.76355 6.01045C7.62513 5.98129 7.48471 5.96215 7.33427 5.95214C6.84979 5.91965 6.33393 5.89561 5.82186 5.98819C5.60288 6.02781 5.43975 6.13329 5.32692 6.30865L5.32715 6.30888Z" fill="#4F4F4F"/>
<path d="M5.05538 3.47591C5.70698 3.40047 6.36148 3.40069 7.01487 3.42183C7.53429 3.43852 8.05259 3.49149 8.57134 3.52843C8.64011 3.55491 8.641 3.58229 8.58781 3.63659C8.29583 3.93591 8.00786 4.23924 7.71878 4.54123C7.05048 4.60109 6.38485 4.56259 5.719 4.49605C5.24521 4.44865 4.77542 4.38522 4.31987 4.24146C4.22462 4.21142 4.13271 4.16869 4.04236 4.12552C3.97849 4.09503 3.92307 4.04607 3.92641 3.96884C3.92997 3.88561 3.99273 3.84288 4.06417 3.81484C4.19703 3.76321 4.33879 3.7483 4.47632 3.7167C4.68195 3.66952 4.91006 3.67041 5.05538 3.47613V3.47591Z" fill="#89450B"/>
<path d="M7.02327 4.69277C6.53968 4.69277 6.08302 4.65516 5.70693 4.61755C5.24982 4.57193 4.76089 4.50873 4.28309 4.35784C4.18161 4.3258 4.08636 4.28173 3.98956 4.23545C3.82154 4.15533 3.80106 4.03048 3.80396 3.96305C3.80752 3.88004 3.8478 3.76721 4.0196 3.70023C4.1213 3.66062 4.22412 3.64103 4.32337 3.62234C4.36699 3.6141 4.40794 3.60631 4.44889 3.59697C4.49273 3.58695 4.53679 3.57894 4.5793 3.57138C4.73508 3.54334 4.86972 3.5193 4.9574 3.40224C4.97765 3.37531 5.00792 3.35773 5.0413 3.35395C5.74787 3.27228 6.43754 3.28029 7.01882 3.29898C7.38157 3.31078 7.74832 3.34015 8.10305 3.36886C8.2595 3.38155 8.42129 3.39445 8.57996 3.4058C8.59198 3.40669 8.604 3.40936 8.61535 3.41381C8.6425 3.42427 8.72551 3.45632 8.74442 3.54311C8.76356 3.63124 8.69947 3.69689 8.67543 3.72159C8.4589 3.94347 8.24081 4.1718 8.02984 4.39256C7.95573 4.47023 7.8814 4.5479 7.80707 4.62534C7.7866 4.64671 7.759 4.65984 7.72962 4.66251C7.49195 4.68387 7.25449 4.69233 7.02327 4.69233V4.69277ZM5.1183 3.59207C4.97632 3.74941 4.78916 3.78279 4.62269 3.81261C4.58108 3.81996 4.54191 3.82708 4.50386 3.83576C4.45846 3.84622 4.41306 3.8549 4.36922 3.86313C4.27686 3.88071 4.1894 3.89718 4.10862 3.92856C4.04964 3.95148 4.04898 3.96706 4.04875 3.97351C4.04809 3.9902 4.08102 4.00778 4.09527 4.01446C4.18384 4.05674 4.27063 4.09702 4.35698 4.12417C4.81341 4.26838 5.28721 4.32936 5.73141 4.37365C6.298 4.43039 6.96875 4.48002 7.66242 4.4226C7.72606 4.35629 7.78949 4.28975 7.85291 4.22321C8.03629 4.03115 8.22523 3.83353 8.41417 3.63903C8.30312 3.63057 8.19185 3.62167 8.08347 3.61277C7.73163 3.58428 7.36799 3.55513 7.01103 3.54356C6.45222 3.52553 5.79216 3.51752 5.1183 3.5914V3.59207Z" fill="#4F4F4F"/>
<path d="M3.29332 2.95024C3.29043 2.99809 3.26506 3.03703 3.23924 3.0742C3.09281 3.28606 3.09682 3.50771 3.19674 3.73448C3.23324 3.81727 3.26706 3.90095 3.17693 3.96771C3.09504 4.02846 2.99155 4.01734 2.91722 3.97416C2.67198 3.83196 2.51442 3.61809 2.45767 3.33591C2.42607 3.26069 2.42652 3.18547 2.45723 3.11025C2.49662 2.86679 2.66664 2.75307 2.8834 2.69498C3.0305 2.65559 3.17916 2.64513 3.29355 2.78022C3.32381 2.83697 3.32448 2.89349 3.29288 2.95002L3.29332 2.95024Z" fill="#FEFEFD"/>
<path d="M3.04654 4.1324C2.982 4.1324 2.91613 4.11504 2.85604 4.08032C2.57875 3.91965 2.40539 3.68108 2.34041 3.37152C2.3028 3.27449 2.30235 3.17568 2.33929 3.07754C2.38514 2.82429 2.55783 2.65582 2.85226 2.57704C2.94817 2.55145 3.20276 2.48335 3.38747 2.70144C3.39304 2.70812 3.39793 2.71524 3.40194 2.72281C3.44756 2.80827 3.45112 2.90062 3.4124 2.98586C3.40083 3.05573 3.36477 3.10781 3.34007 3.14386C3.22769 3.30654 3.2179 3.47857 3.30892 3.68531C3.3423 3.76142 3.42085 3.93923 3.25016 4.06608C3.19097 4.11014 3.11953 4.13218 3.04654 4.13218V4.1324ZM3.05143 2.79157C3.0136 2.79157 2.96931 2.79892 2.91546 2.81338C2.70605 2.86946 2.60546 2.96405 2.57853 3.13006C2.57697 3.13919 2.57452 3.14831 2.57096 3.15677C2.55227 3.20239 2.55227 3.24423 2.57096 3.28874C2.57408 3.2963 2.57652 3.30409 2.57808 3.3121C2.62682 3.55534 2.76168 3.74273 2.97888 3.86869C3.01182 3.88782 3.06434 3.89962 3.10418 3.8698C3.10863 3.86646 3.11107 3.86401 3.11219 3.86268C3.11219 3.84621 3.09305 3.80303 3.08481 3.78412C2.95974 3.49993 2.97777 3.23777 3.13867 3.00477C3.15536 2.98074 3.17027 2.95781 3.17116 2.9429C3.17227 2.92466 3.17739 2.90685 3.18629 2.89083C3.1952 2.87503 3.19675 2.8639 3.19097 2.84899C3.15425 2.81027 3.11107 2.79157 3.05143 2.79157Z" fill="#4F4F4F"/>
<path d="M4.92323 5.23402C4.52977 5.21511 4.18371 5.1094 3.86948 4.90911C3.80339 4.86705 3.75287 4.80451 3.71148 4.73018C3.66185 4.64094 3.65762 4.56884 3.72305 4.49518C3.78937 4.4204 3.86548 4.42997 3.9585 4.45356C4.14455 4.50119 4.30322 4.61313 4.48838 4.65919C4.69044 4.70971 4.89207 4.76312 5.09458 4.81208C5.13976 4.82298 5.1796 4.84101 5.21988 4.86282C5.3554 4.9367 5.36453 5.05532 5.2399 5.14567C5.13865 5.21933 5.02003 5.22601 4.92323 5.2338V5.23402Z" fill="#FDFDFB"/>
<path d="M4.92326 5.3564C4.92125 5.3564 4.91925 5.3564 4.91725 5.3564C4.49909 5.33615 4.13478 5.22376 3.80364 5.01234C3.7253 4.96227 3.6601 4.8895 3.60446 4.7898C3.52591 4.64893 3.53503 4.52253 3.63139 4.41393C3.75446 4.27528 3.91269 4.31556 3.98857 4.33514C4.09183 4.36163 4.18419 4.40413 4.27343 4.4453C4.35711 4.4838 4.43589 4.5203 4.51778 4.54077C4.59812 4.5608 4.67846 4.58128 4.75857 4.60197C4.87808 4.63246 5.00159 4.66406 5.1231 4.69344C5.17362 4.70568 5.22146 4.72482 5.27821 4.75575C5.38236 4.8125 5.44334 4.89618 5.44957 4.99143C5.4558 5.08601 5.40684 5.17614 5.31182 5.24513C5.18719 5.3357 5.04744 5.34705 4.94573 5.35528L4.93327 5.3564C4.92993 5.35662 4.92659 5.35684 4.92326 5.35684V5.3564ZM3.85193 4.5588C3.83034 4.5588 3.82367 4.56637 3.81477 4.57638C3.79541 4.59819 3.78472 4.61021 3.81855 4.67052C3.85393 4.73394 3.89221 4.77823 3.93561 4.80582C4.22803 4.99232 4.5505 5.09224 4.9217 5.11138L4.92637 5.11093C5.01138 5.10403 5.09929 5.09691 5.16828 5.04662C5.19676 5.02592 5.205 5.0099 5.20566 5.00589C5.20455 5.00344 5.19409 4.98786 5.1616 4.97028C5.12399 4.94981 5.09528 4.93802 5.06613 4.93089C4.94306 4.90107 4.81888 4.86947 4.69849 4.83854C4.61859 4.81806 4.53892 4.79781 4.45903 4.77778C4.35488 4.75175 4.26163 4.7088 4.17128 4.66718C4.08827 4.6289 4.01016 4.59285 3.92849 4.57193C3.8911 4.56236 3.86773 4.55858 3.85215 4.55858L3.85193 4.5588Z" fill="#4F4F4F"/>
<path d="M9.23031 7.07822C8.97083 6.97496 8.87758 6.7424 8.79546 6.50673C8.75073 6.3781 8.72336 6.24346 8.73538 6.10348C8.74183 6.02915 8.73849 5.94881 8.82061 5.92055C8.91853 5.88672 8.96304 5.9704 8.9982 6.03605C9.14263 6.30599 9.27282 6.58417 9.47912 6.81629C9.50182 6.84166 9.5125 6.88149 9.51918 6.91643C9.53186 6.98208 9.52407 7.04373 9.45286 7.07666C9.37897 7.1145 9.30487 7.11271 9.23031 7.07822Z" fill="#FCFDFB"/>
<path d="M9.34213 7.22667C9.28894 7.22667 9.23531 7.21465 9.18234 7.19062C8.85921 7.06043 8.75573 6.76378 8.68006 6.5468C8.62309 6.38345 8.60128 6.23501 8.61352 6.09259C8.61419 6.08569 8.61464 6.07857 8.61508 6.07144C8.62042 5.99622 8.63066 5.85624 8.78043 5.80439C8.97694 5.73629 9.07063 5.91144 9.10579 5.97753C9.12871 6.02026 9.15097 6.06276 9.17322 6.10527C9.29317 6.33382 9.40622 6.54969 9.57046 6.73462C9.6143 6.78403 9.63077 6.84879 9.63923 6.89308C9.6755 7.08224 9.56045 7.16057 9.50659 7.18639C9.45362 7.21332 9.39799 7.22667 9.34191 7.22667H9.34213ZM8.86322 6.04652C8.86144 6.05965 8.8601 6.07656 8.85921 6.08925C8.85854 6.09748 8.8581 6.10549 8.85743 6.11351C8.84831 6.22055 8.86589 6.33605 8.91129 6.46601C8.99229 6.69835 9.07063 6.88239 9.27581 6.96407C9.27782 6.96496 9.27982 6.96585 9.28182 6.96674C9.32477 6.98654 9.35927 6.98677 9.39732 6.9674C9.39866 6.96674 9.39999 6.96607 9.40155 6.9654C9.40155 6.9654 9.40177 6.9654 9.40199 6.9654C9.40199 6.96073 9.40177 6.95249 9.39932 6.93936C9.39354 6.90954 9.38842 6.89908 9.38686 6.89619C9.20326 6.68923 9.07797 6.45021 8.95691 6.21921C8.93488 6.17738 8.91284 6.13531 8.89059 6.0937C8.88369 6.08079 8.87301 6.06098 8.86366 6.04674L8.86322 6.04652Z" fill="#4F4F4F"/>
<path d="M11.3823 3.83067C11.3366 4.00648 11.1764 4.14802 11.0162 4.16315C10.9238 4.17183 10.8746 4.14624 10.8833 4.04587C10.8875 3.9958 10.8835 3.94484 10.8893 3.89499C10.9047 3.76146 10.8824 3.64329 10.7772 3.54693C10.7157 3.49085 10.691 3.41229 10.7326 3.33729C10.7705 3.26919 10.8308 3.22535 10.92 3.22068C11.1602 3.20777 11.3084 3.31059 11.3809 3.55272C11.4078 3.64529 11.4239 3.73787 11.3823 3.83067Z" fill="#FDFDFB"/>
<path d="M10.9849 4.28735C10.9384 4.28735 10.871 4.278 10.8198 4.22748C10.774 4.18208 10.7542 4.11732 10.7611 4.03565C10.7626 4.01718 10.7628 3.99693 10.7631 3.97534C10.7633 3.9453 10.7637 3.91436 10.7675 3.8812C10.7804 3.76748 10.7593 3.69694 10.6943 3.63752C10.5861 3.53849 10.5592 3.39739 10.6255 3.27811C10.6861 3.16906 10.7882 3.10542 10.9133 3.09852C11.213 3.08249 11.4096 3.22336 11.4979 3.51757C11.5282 3.62127 11.5513 3.74345 11.4979 3.87119C11.4372 4.08817 11.2366 4.26531 11.0274 4.28512C11.0179 4.28601 11.003 4.28735 10.9849 4.28735ZM10.9605 3.34198C10.9496 3.34198 10.9382 3.3422 10.9264 3.34287C10.8846 3.3451 10.8594 3.36067 10.8396 3.39673C10.8354 3.40429 10.8243 3.42432 10.8597 3.45681C10.9832 3.56987 11.0326 3.71786 11.0108 3.90902C11.0083 3.92972 11.0081 3.95309 11.0079 3.97779C11.0079 3.99826 11.0074 4.01918 11.0061 4.04121C11.1167 4.02986 11.232 3.92193 11.2636 3.79998C11.2653 3.79352 11.2676 3.78707 11.2702 3.78084C11.2916 3.73277 11.2898 3.67847 11.2631 3.587C11.211 3.41319 11.1247 3.34198 10.9605 3.34198Z" fill="#4F4F4F"/>
<path d="M9.48132 4.34853C9.48355 4.27998 9.54186 4.25039 9.58147 4.20966C9.72078 4.06701 9.86365 3.9277 10.0034 3.78549C10.043 3.74521 10.0833 3.71183 10.1436 3.71628C10.2607 3.72451 10.3666 3.76724 10.4643 3.82778C10.5856 3.90299 10.5863 3.98778 10.4621 4.07057C10.3154 4.16827 10.1445 4.20966 9.97626 4.25128C9.81314 4.29156 9.64979 4.33428 9.48132 4.34875V4.34853Z" fill="#8A450A"/>
<path d="M9.48125 4.47092C9.45009 4.47092 9.41983 4.4589 9.39713 4.43732C9.37176 4.41328 9.35796 4.37945 9.35907 4.34452C9.36241 4.23836 9.43051 4.17961 9.47123 4.14467C9.47991 4.1371 9.48815 4.12998 9.49393 4.1242C9.56893 4.04742 9.64593 3.97042 9.72048 3.89609C9.78591 3.83088 9.85134 3.76546 9.9161 3.69958C9.95259 3.66242 10.0285 3.5852 10.1522 3.59388C10.2793 3.60278 10.4026 3.64528 10.5288 3.72362C10.65 3.79884 10.6765 3.88429 10.6776 3.9426C10.679 4.02895 10.6293 4.10617 10.5299 4.17227C10.367 4.28087 10.186 4.32538 10.0109 4.36855L9.96839 4.37901C9.81528 4.41684 9.65706 4.45623 9.49171 4.47025C9.48815 4.47047 9.48481 4.4707 9.48125 4.4707V4.47092ZM10.1337 3.83823C10.1295 3.83823 10.1206 3.84068 10.0906 3.87139C10.0251 3.93793 9.95927 4.0038 9.89318 4.06967C9.86002 4.10283 9.82619 4.13644 9.79259 4.17026C9.83109 4.16114 9.87003 4.15157 9.90942 4.14178L9.95215 4.1311C10.1139 4.09126 10.2666 4.05365 10.3939 3.96886C10.4066 3.9604 10.4157 3.95328 10.4219 3.9475C10.4166 3.94305 10.4093 3.93793 10.3997 3.93192C10.308 3.87517 10.2214 3.84446 10.1351 3.83845C10.1346 3.83845 10.1342 3.83845 10.1337 3.83845V3.83823Z" fill="#4F4F4F"/>
<path d="M4.49553 8.6069C4.49464 8.73909 4.48707 8.84547 4.37825 8.88641C4.25162 8.93404 4.16528 8.88641 4.09607 8.72908C4.02841 8.57508 3.97656 8.41484 4.0451 8.24215C4.10608 8.08837 4.23938 8.06234 4.34576 8.19275C4.45058 8.32115 4.47439 8.47938 4.49553 8.6069Z" fill="#FCF9F7"/>
<path d="M4.28964 9.02683C4.18282 9.02683 4.06799 8.96985 3.98387 8.77824C3.90665 8.60221 3.84656 8.40994 3.93113 8.19696C3.97719 8.08057 4.06131 8.00513 4.1619 7.98955C4.26116 7.97397 4.36264 8.02004 4.4403 8.11529C4.56248 8.26506 4.5923 8.44443 4.61411 8.57551L4.61589 8.58663C4.617 8.59353 4.61767 8.60065 4.61767 8.60755C4.61678 8.72728 4.61545 8.92757 4.42094 9.00079C4.38066 9.01592 4.33593 9.0266 4.28942 9.0266L4.28964 9.02683ZM4.20018 8.23168C4.20018 8.23168 4.19951 8.23168 4.19929 8.23168C4.19506 8.23235 4.17615 8.2437 4.15879 8.28754C4.11005 8.41016 4.14165 8.52855 4.20797 8.67988C4.26071 8.79983 4.29187 8.78804 4.33504 8.77179C4.35685 8.76356 4.37132 8.7482 4.37287 8.61646V8.61579C4.35351 8.50029 4.3317 8.36966 4.2507 8.27018C4.22666 8.24058 4.20663 8.23146 4.20018 8.23146V8.23168Z" fill="#4F4F4F"/>
<path d="M10.1076 13.2965C10.078 13.2878 10.0624 13.2682 10.0597 13.2373C10.0424 13.0357 10.0486 12.8341 10.0629 12.6329C10.0686 12.5517 10.1287 12.5049 10.2077 12.4942C10.2665 12.4862 10.3248 12.5071 10.3355 12.5715C10.376 12.8158 10.3844 13.0591 10.2783 13.2925C10.2224 13.3299 10.1652 13.3257 10.1078 13.2967L10.1076 13.2965Z" fill="#FCFCFB"/>
<path d="M10.1937 13.4421C10.1541 13.4421 10.1098 13.4332 10.0615 13.4103C9.9903 13.3849 9.94446 13.325 9.93801 13.2478C9.92243 13.0658 9.92332 12.8735 9.94112 12.6243C9.95069 12.4907 10.0491 12.3921 10.1917 12.373C10.3272 12.3548 10.4361 12.4282 10.4565 12.5515C10.493 12.7718 10.5184 13.0611 10.39 13.3431C10.3806 13.3638 10.3655 13.3814 10.3466 13.394C10.3092 13.419 10.2576 13.4419 10.1942 13.4419L10.1937 13.4421ZM10.1792 13.1944C10.1817 13.1953 10.1839 13.1957 10.1859 13.1962C10.2467 13.0377 10.2565 12.8597 10.2186 12.6165C10.1864 12.622 10.1855 12.6347 10.185 12.6416C10.1695 12.8624 10.1674 13.0348 10.1792 13.1944Z" fill="#4F4F4F"/>
<path d="M2.45861 9.60298C2.47553 9.52442 2.41655 9.41226 2.55609 9.38444C2.6905 9.35752 2.75348 9.42606 2.80111 9.54067C2.83649 9.6259 2.85585 9.71403 2.87077 9.80216C2.88634 9.89362 2.90459 10.0007 2.78842 10.0456C2.69763 10.0808 2.56699 10.0102 2.5256 9.90609C2.48755 9.81017 2.44081 9.71359 2.45861 9.60298Z" fill="#FCFAFA"/>
<path d="M2.73725 10.1769C2.60506 10.1769 2.46531 10.0864 2.41167 9.95105C2.40767 9.94104 2.40366 9.93102 2.39965 9.92101C2.36249 9.82954 2.3162 9.71582 2.33757 9.58319C2.33779 9.58141 2.33846 9.57851 2.33868 9.57695C2.34001 9.5705 2.33912 9.55092 2.33868 9.53801C2.33578 9.47414 2.32777 9.30478 2.53207 9.26406C2.70766 9.2289 2.83629 9.30612 2.91418 9.49328C2.95646 9.59498 2.97693 9.69602 2.9914 9.78125C3.00653 9.87027 3.04192 10.0783 2.83272 10.1594C2.80246 10.1711 2.77019 10.1767 2.73748 10.1767L2.73725 10.1769ZM2.57903 9.62458C2.56946 9.68889 2.59594 9.75388 2.62643 9.82887C2.63066 9.83956 2.63511 9.85002 2.63933 9.8607C2.65936 9.91122 2.72546 9.93859 2.74415 9.93124C2.75417 9.92746 2.75728 9.92412 2.75728 9.92412C2.76485 9.90988 2.75483 9.85091 2.75016 9.82264C2.73792 9.75032 2.72101 9.6662 2.68807 9.58719C2.64846 9.49217 2.62598 9.49484 2.58236 9.50352C2.58236 9.51108 2.58281 9.51976 2.58325 9.52644C2.58459 9.55426 2.58615 9.58831 2.57903 9.62413V9.62458Z" fill="#4F4F4F"/>
<path d="M11.3821 3.83069C11.3816 3.73811 11.3812 3.64531 11.3807 3.55273C11.4359 3.64509 11.4802 3.73745 11.3821 3.83069Z" fill="#EDD760"/>
<path d="M11.3822 3.95308C11.3659 3.95308 11.3497 3.94996 11.3341 3.94329C11.2891 3.92415 11.26 3.88009 11.2598 3.83135L11.2584 3.55339C11.2582 3.4982 11.2949 3.44969 11.3481 3.43478C11.4013 3.41987 11.4578 3.44257 11.4861 3.48997C11.533 3.56852 11.6428 3.75235 11.4665 3.91948C11.4434 3.94151 11.4131 3.95308 11.3822 3.95308Z" fill="#4F4F4F"/>
<path d="M2.45775 3.11053C2.45775 3.18575 2.45797 3.26097 2.45819 3.33619C2.38319 3.2612 2.38408 3.18598 2.45775 3.11053Z" fill="#F1D25F"/>
<path d="M2.4582 3.45858C2.42638 3.45858 2.395 3.44612 2.37163 3.42275C2.2499 3.3008 2.24946 3.14858 2.37052 3.02507C2.40524 2.98968 2.45798 2.97856 2.50405 2.99725C2.55011 3.01594 2.58016 3.06067 2.58038 3.1103L2.58083 3.33596C2.58083 3.38559 2.551 3.43032 2.50538 3.44924C2.49025 3.45547 2.47423 3.45858 2.45843 3.45858H2.4582Z" fill="#4F4F4F"/>
<path d="M9.23035 7.07828C9.30445 7.07783 9.37878 7.07717 9.45289 7.07672C9.37945 7.16129 9.30512 7.15862 9.23035 7.07828Z" fill="#F2CE56"/>
<path d="M9.34231 7.26162C9.27043 7.26162 9.20277 7.22801 9.14091 7.16169C9.10775 7.12609 9.09885 7.07446 9.11799 7.02973C9.13712 6.98522 9.18097 6.95606 9.22948 6.95584L9.45202 6.95428C9.49943 6.95428 9.54393 6.98188 9.56419 7.0255C9.58444 7.06912 9.57687 7.12075 9.54527 7.15702C9.48585 7.22512 9.41886 7.26028 9.34632 7.26162C9.34498 7.26162 9.34364 7.26162 9.34231 7.26162Z" fill="#4F4F4F"/>
<path d="M3.29333 2.95026C3.29333 2.89373 3.29378 2.83698 3.294 2.78046C3.371 2.83743 3.36655 2.89395 3.29333 2.95026Z" fill="#F0D464"/>
<path d="M3.29332 3.07267C3.27485 3.07267 3.25638 3.06844 3.23924 3.05998C3.1974 3.03929 3.17092 2.99656 3.17114 2.94983L3.17181 2.78002C3.17181 2.73396 3.19807 2.6919 3.23924 2.67098C3.28041 2.65028 3.32982 2.65451 3.36698 2.68188C3.45355 2.74575 3.47225 2.81519 3.47269 2.86214C3.47336 2.93113 3.43842 2.99322 3.36832 3.04708C3.34651 3.06399 3.32003 3.07245 3.29354 3.07245L3.29332 3.07267ZM3.22767 2.86504C3.22767 2.86659 3.22767 2.86837 3.22789 2.86993L3.22967 2.86748L3.22767 2.86481V2.86504Z" fill="#4F4F4F"/>
<path d="M10.1075 13.2965C10.1643 13.2952 10.2213 13.2936 10.278 13.2923C10.2233 13.3778 10.1661 13.3704 10.1075 13.2965Z" fill="#F8E398"/>
<path d="M10.1946 13.4766C10.1281 13.4766 10.0665 13.4417 10.0117 13.3727C9.98278 13.3364 9.97699 13.2868 9.99658 13.2447C10.0162 13.2026 10.058 13.1753 10.1045 13.1742L10.275 13.1699C10.3197 13.1684 10.3624 13.1929 10.3847 13.2322C10.4069 13.2716 10.4054 13.3201 10.3809 13.3584C10.3213 13.4514 10.2518 13.4739 10.2042 13.4764C10.2009 13.4764 10.1978 13.4766 10.1944 13.4766H10.1946ZM10.1848 13.2327L10.1866 13.2338L10.1886 13.2322C10.1875 13.2322 10.1862 13.2325 10.1851 13.2327H10.1848Z" fill="#4F4F4F"/>
<path d="M10.7715 1.24164C10.7764 0.949667 10.879 0.701976 11.1066 0.509921C11.2691 0.372834 11.3543 0.393975 11.4244 0.596045C11.4638 0.709097 11.5168 0.811245 11.5971 0.903378C11.7137 1.03713 11.7051 1.09298 11.5833 1.21605C11.4734 1.3271 11.341 1.40744 11.2117 1.49245C11.1033 1.56366 10.9793 1.61685 10.8658 1.55387C10.757 1.49334 10.7768 1.35603 10.7717 1.24187L10.7715 1.24164Z" fill="#DE8017"/>
<path d="M10.9741 1.70429C10.92 1.70429 10.863 1.69227 10.8061 1.66067C10.6525 1.57543 10.6512 1.40964 10.6503 1.29992C10.6503 1.28212 10.6501 1.26432 10.6492 1.24718C10.6492 1.24473 10.6492 1.24206 10.6492 1.23961C10.655 0.900458 10.7823 0.623391 11.0277 0.416426C11.1078 0.348995 11.2151 0.275556 11.3333 0.308047C11.4528 0.340761 11.5086 0.465163 11.54 0.55596C11.5778 0.664562 11.6252 0.749573 11.6893 0.823013C11.8447 1.00127 11.8393 1.13124 11.6702 1.30237C11.5652 1.40852 11.4445 1.48686 11.3281 1.56275C11.3117 1.57343 11.2952 1.58411 11.2787 1.59502C11.2307 1.62662 11.1118 1.70473 10.9741 1.70473V1.70429ZM10.894 1.24006C10.8946 1.25875 10.8949 1.27811 10.8951 1.2977C10.896 1.38961 10.9004 1.433 10.9251 1.44658C10.9561 1.46372 11.0124 1.47662 11.1443 1.38983C11.161 1.37893 11.1779 1.3678 11.1946 1.35689C11.3052 1.28501 11.4096 1.21714 11.4962 1.12968C11.5416 1.08361 11.5536 1.0638 11.5567 1.05646C11.5543 1.04978 11.5445 1.02909 11.5046 0.983467C11.4205 0.886883 11.3564 0.773163 11.3088 0.635854C11.2903 0.582443 11.2754 0.557963 11.2674 0.547504C11.2552 0.5524 11.2296 0.566197 11.1855 0.60314C10.9946 0.764261 10.8991 0.972562 10.8937 1.23984L10.894 1.24006Z" fill="#4F4F4F"/>
</svg>
