<svg width="56" height="49" viewBox="0 0 56 49" fill="none" xmlns="http://www.w3.org/2000/svg">
<path d="M44.5935 36.3553L42.3385 29.8862C41.0284 30.3723 39.8546 31.128 38.8854 32.0859C37.658 33.294 36.7619 34.8295 36.3284 36.543L44.5935 36.3553ZM9.02 21.3087L12.6387 18.9021L12.6777 18.878L12.7215 18.8636L15.4002 18.1127L12.0835 13.8384L5.69838 12.6062L5.57662 12.5821L5.50844 12.481L4.08628 10.291L3.96452 10.1032L4.1155 9.93959L6.60428 7.33075L6.94034 6.11297L6.51661 6.18998L6.2877 6.22849L6.20004 6.0167L5.48895 4.29352L5.41103 4.11542L5.55227 3.98546L8.56219 1.16483L8.6255 1.10707L8.7083 1.09263L14.5674 0L14.5723 0.0336935L19.9249 0.0722004H20.1732L20.2073 0.312868L20.3291 1.13595L20.3388 1.22741L20.295 1.30923L19.2479 3.23458L30.8492 6.57986L30.9028 6.5943L30.9417 6.62318L37.9113 11.7879L37.999 11.8553L38.0184 11.9564L39.3675 18.6133L39.3773 18.6566L39.3675 18.7095L38.6954 23.2245L38.6906 23.2533L38.6759 23.287L38.4714 23.7924L40.4244 30.175C41.9732 29.246 43.7899 28.7117 45.738 28.7117C48.5678 28.7117 51.1345 29.8476 52.995 31.6815C54.8506 33.5202 56 36.0521 56 38.8534C56 41.6548 54.8506 44.1915 52.995 46.0302C51.1345 47.864 48.5678 49 45.738 49C42.9035 49 40.3368 47.864 38.4763 46.0302C37.5217 45.0867 36.757 43.9556 36.2359 42.7041L32.963 42.7763C32.6172 42.8148 32.2714 42.7956 31.9353 42.7234L26.4415 42.4538L25.8862 42.4298L26.232 41.9966L28.302 39.4118L25.1313 38.9882L23.1345 38.7427L22.3503 38.6465L23.0176 38.2229L25.0242 36.9473L24.9414 36.7741L17.9134 29.6792L17.0075 30.897C18.0741 31.8211 18.9508 32.9523 19.5596 34.2374C20.1781 35.5418 20.5288 37.0051 20.5288 38.5406C20.5288 41.3419 19.3794 43.8786 17.5237 45.7125C15.6632 47.5512 13.0965 48.6871 10.2668 48.6871C7.43225 48.6871 4.86554 47.5512 3.00504 45.7125C1.14942 43.8786 0 41.3419 0 38.5406C0 35.7392 1.14942 33.2074 3.00504 31.3687C4.86554 29.5348 7.43225 28.3988 10.2668 28.3988C11.0558 28.3988 11.8302 28.4903 12.5754 28.6587C13.2962 28.8224 13.9878 29.0583 14.6356 29.3663L15.9847 27.0511L14.0706 24.5866L11.1825 24.269L11.0558 24.2545L10.9779 24.1534L9.07845 21.4916L9.12228 21.4628L9.02 21.3087ZM14.4359 0.596857L12.478 0.962672L18.6878 3.06611L19.7447 1.12633L19.6765 0.635363L14.4359 0.596857ZM11.3383 1.17927L8.89824 1.63654L6.08802 4.25982L6.63837 5.59312L7.2764 5.4776L17.738 3.34047L11.3383 1.17927ZM7.56375 5.99745L7.16925 7.43183L7.5881 8.12976L7.97774 7.57623L8.33328 6.72426L10.7734 6.43065L10.1158 7.38369L8.48426 7.84096L7.91442 8.65923L8.42094 9.49676L15.746 7.64843L18.2202 3.82181L7.56375 5.99745ZM6.80884 7.94204L5.70325 9.10206L5.57175 11.528L5.5961 11.5617L7.92903 11.1766L7.99722 9.89627L6.80884 7.94204ZM4.69021 10.1706L5.04088 10.7097L4.69021 10.1706ZM5.95651 12.0767L7.87059 12.4473L7.90468 11.759L5.95651 12.0767ZM8.43555 12.5532L12.1078 13.2656L15.2931 8.34637L8.56219 10.0455L8.43555 12.5532ZM12.5949 13.564L15.6048 17.4436L15.634 8.86621L12.5949 13.564ZM16.2574 18.286L16.3695 18.4304L15.9652 18.5459L13.3693 19.2727L19.1261 24.5289L22.9202 23.3689L20.1099 13.9924L16.2574 18.286ZM12.7702 19.4941L9.77979 21.4868L11.3724 23.7202L18.2202 24.4711L12.7702 19.4941ZM23.5923 23.547L25.4917 26.95L38.3399 18.801L26.8603 16.4136L23.5923 23.547ZM25.3359 27.7442L22.3795 29.9535L25.482 36.5767L25.6476 36.9329L25.7547 37.1591L25.5404 37.2939L23.9917 38.2758L26.987 38.6465L29.5731 38.7572L29.9287 33.6261L25.3359 27.7442ZM30.2696 33.14L35.6806 29.1305L35.7099 29.0631L25.8229 27.4121L25.8034 27.4217L30.2696 33.14ZM35.929 28.524L38.1305 23.1089L38.71 19.2438L26.5389 26.9548L35.929 28.524ZM38.7198 18.3004L37.4973 12.2548L24.3326 9.77112L26.9723 15.8552L38.7198 18.3004ZM36.5768 11.5039L30.6398 7.10452L18.9508 3.73998L16.3938 7.69656L36.5768 11.5039ZM38.1256 24.6348L36.4161 28.8417L37.1905 30.7911L37.2879 31.0317L37.1612 31.2724L34.4387 36.5863L35.7342 36.5575C36.1774 34.6803 37.1466 33.0004 38.4763 31.6815C38.9292 31.2387 39.4211 30.8344 39.9471 30.4782L39.9179 30.4878L38.1256 24.6348ZM36.08 29.5444L30.4985 33.6791L30.3232 37.5635C30.3427 37.5442 30.3622 37.5201 30.3816 37.5009C30.9515 36.9377 31.7356 36.5912 32.6025 36.5912C32.7487 36.5912 32.8899 36.6008 33.0263 36.62L33.7861 36.6056L36.6596 31.0028L36.08 29.5444ZM30.2745 38.6368L30.2647 38.7861L30.255 39.046L30.1625 39.0508L32.6415 39.4118L32.6025 39.6958L32.5636 39.975H32.5587L32.5197 39.9701L30.0407 39.638C30.0407 39.6573 30.0407 39.6765 30.0407 39.6958C30.0407 40.3937 30.3281 41.0243 30.7907 41.4863C31.1219 41.8137 31.5457 42.0543 32.023 42.1602L32.9289 42.2084C33.5084 42.1313 34.0247 41.8714 34.4143 41.4863C34.877 41.0243 35.1644 40.3937 35.1644 39.6958C35.1644 38.993 34.877 38.3625 34.4143 37.9004C34.0344 37.525 33.5377 37.2698 32.9824 37.188L32.1058 37.2073C31.5944 37.3083 31.1414 37.5538 30.7907 37.9004C30.5764 38.1122 30.4011 38.3625 30.2745 38.6368ZM24.2206 35.2386L21.7854 30.0306L18.1423 26.5361L17.5968 26.021L18.3517 26.0547L24.4884 26.3291L23.1345 23.8983L19.1359 25.1161L19.0823 25.1354L19.0238 25.1306L14.8596 24.6733L16.5545 26.8537L16.6714 27.0029L16.5789 27.1666L11.2701 36.2783L11.9374 36.7885L17.6504 29.0727L17.8501 28.8031L18.0838 29.0438L24.2206 35.2386ZM22.0435 29.4915L25.0144 27.2725L24.8148 26.9115L19.0823 26.6516L22.0435 29.4915ZM10.6516 36.2109L10.6565 36.2013L14.2362 29.8043C13.6664 29.554 13.0673 29.3519 12.4488 29.2123C11.7474 29.0534 11.0169 28.9668 10.2668 28.9668C8.48426 28.9668 6.81371 29.4433 5.37694 30.2712L9.25378 36.4949C9.5801 36.3697 9.93564 36.3024 10.3058 36.3024C10.4032 36.3024 10.4957 36.3072 10.5931 36.3168L10.6467 36.2157L10.6516 36.2109ZM29.466 39.5658L28.9595 39.4984L27.0259 41.9195L30.6154 42.0928C30.5326 42.0254 30.4547 41.9581 30.3816 41.8859C29.8167 41.3227 29.466 40.5477 29.466 39.6958C29.466 39.6476 29.466 39.6091 29.466 39.5658ZM4.89476 30.5696C4.35902 30.921 3.86224 31.3253 3.41416 31.773C1.66081 33.5058 0.574709 35.898 0.574709 38.5406C0.574709 41.1879 1.66081 43.5802 3.41416 45.313C3.94503 45.8424 4.54409 46.3045 5.18699 46.6992L8.50374 41.5056C8.40633 41.4286 8.31379 41.3468 8.22613 41.2601C7.69525 40.7355 7.36406 40.0086 7.36406 39.2096C7.36406 38.4058 7.69525 37.679 8.22613 37.1543C8.38198 37.0003 8.55244 36.8655 8.74239 36.7452L4.89476 30.5696ZM5.68377 46.9832C7.04749 47.7052 8.60602 48.1192 10.2668 48.1192C12.9407 48.1192 15.3613 47.0458 17.1146 45.313C18.7998 43.6475 19.8664 41.3756 19.9492 38.8534L13.2329 39.4647C13.1696 40.1675 12.8579 40.7932 12.3806 41.2601C11.8497 41.7896 11.1143 42.1121 10.3058 42.1121C9.82849 42.1121 9.38528 42.0014 8.98591 41.804L5.68377 46.9832ZM19.9492 38.2855C19.9151 36.9233 19.5937 35.6333 19.0384 34.4733C18.4735 33.2844 17.665 32.2303 16.6812 31.3687L12.3806 37.1495V37.1543C12.8433 37.6116 13.155 38.2181 13.228 38.8968L19.9492 38.2855ZM11.7913 37.3902L11.6987 37.318C11.3091 37.0388 10.8269 36.8703 10.3058 36.8703C9.65316 36.8703 9.05897 37.1303 8.63037 37.5538C8.20177 37.9774 7.93877 38.5598 7.93877 39.2096C7.93877 39.8546 8.20177 40.437 8.63037 40.8606C9.05897 41.2842 9.65316 41.5441 10.3058 41.5441C10.9584 41.5441 11.5477 41.2842 11.9763 40.8606C12.4049 40.437 12.6679 39.8546 12.6679 39.2096C12.6679 38.5598 12.4049 37.9774 11.9763 37.5538C11.9179 37.4961 11.8595 37.4431 11.7913 37.3902ZM45.738 36.3024C46.5465 36.3024 47.282 36.6297 47.8128 37.1543C48.0807 37.4191 48.295 37.7319 48.446 38.0785L55.3912 38.04C55.1915 35.7199 54.159 33.6358 52.5858 32.0859C50.8325 30.353 48.4119 29.2797 45.738 29.2797C44.7396 29.2797 43.7801 29.4289 42.8791 29.7032L45.1974 36.3409H45.2802C45.4263 36.3168 45.5822 36.3024 45.738 36.3024ZM48.6213 38.6417C48.6554 38.8246 48.6749 39.0171 48.6749 39.2096C48.6749 40.0135 48.3486 40.7403 47.8128 41.2649C47.282 41.7896 46.5465 42.1169 45.738 42.1169H45.7332L44.2623 42.2035L40.1906 46.7088C41.7589 47.7918 43.673 48.432 45.738 48.432C48.4119 48.432 50.8325 47.3586 52.5858 45.6258C54.3392 43.893 55.4253 41.5008 55.4253 38.8534C55.4253 38.7716 55.4253 38.685 55.4204 38.6031L48.6213 38.6417ZM44.1357 41.6452C43.9603 41.5345 43.7996 41.4093 43.6584 41.2649C43.1275 40.7403 42.7963 40.0135 42.7963 39.2096C42.7963 38.4058 43.1275 37.679 43.6584 37.1543C43.7363 37.0773 43.8191 37.0051 43.9068 36.9377L36.2066 37.1158C36.0995 37.679 36.0459 38.2614 36.0459 38.8534C36.0459 39.999 36.2505 41.0965 36.6206 42.1121L44.1357 41.6452ZM47.4086 37.5586C47.0433 37.1928 46.5563 36.9522 46.0108 36.8896L45.3484 36.904C44.8516 36.9859 44.4035 37.2169 44.0626 37.5586C43.634 37.9774 43.371 38.5646 43.371 39.2096C43.371 39.8546 43.634 40.4418 44.0626 40.8606C44.4912 41.2842 45.0805 41.5489 45.738 41.5489C46.3907 41.5489 46.98 41.2842 47.4086 40.8606C47.8372 40.4418 48.1002 39.8546 48.1002 39.2096C48.1002 38.5646 47.8372 37.9774 47.4086 37.5586ZM35.6222 37.1254L34.4046 37.1543C34.5556 37.2602 34.6919 37.3757 34.8186 37.5009C35.0962 37.7752 35.3202 38.0977 35.481 38.4587C35.4956 38.0063 35.5443 37.5635 35.6222 37.1254ZM35.6173 40.5574C35.4663 41.0676 35.1887 41.52 34.8186 41.8859C34.6871 42.0206 34.5361 42.141 34.3802 42.2517L36.0264 42.1458C35.8462 41.6356 35.7099 41.1013 35.6173 40.5574ZM39.728 46.3671L43.4489 42.2565L36.8447 42.6656C37.3317 43.7775 38.0282 44.7787 38.8854 45.6258C39.1484 45.8906 39.4309 46.1361 39.728 46.3671ZM23.3098 9.57859L16.2087 8.23566L20.2463 12.9913L23.3098 9.57859ZM16.2039 9.11169L16.1746 17.5254L19.8615 13.4196L16.2039 9.11169ZM23.3293 22.7479L26.4122 16.0092L23.7725 9.91552L20.558 13.4918L23.3293 22.7479Z" fill="url(#paint0_linear_27_2039)"/>
<defs>
<linearGradient id="paint0_linear_27_2039" x1="-1.89475e-07" y1="24.8356" x2="56" y2="24.8356" gradientUnits="userSpaceOnUse">
<stop stop-color="#8FACFF"/>
<stop offset="0.0001" stop-color="#8FACFF"/>
<stop offset="1" stop-color="#D776FF"/>
</linearGradient>
</defs>
</svg>
