<svg width="34" height="40" viewBox="0 0 34 40" fill="none" xmlns="http://www.w3.org/2000/svg">
<path d="M17.125 30.7417C25.239 30.7417 31.8167 24.164 31.8167 16.05C31.8167 7.93602 25.239 1.35834 17.125 1.35834C9.01103 1.35834 2.43335 7.93602 2.43335 16.05C2.43335 24.164 9.01103 30.7417 17.125 30.7417Z" fill="#FFE500"/>
<path d="M17.125 1.35834C9.06252 1.35834 2.43335 7.89792 2.43335 16.05C2.43335 24.2021 9.06252 30.7417 17.125 30.7417C25.1875 30.7417 31.8167 24.2021 31.8167 16.05C31.8167 7.89792 25.1875 1.35834 17.125 1.35834ZM17.125 28.5021C9.77918 28.5021 3.7771 22.5 3.7771 15.1542C3.7771 7.71875 9.77918 1.71667 17.125 1.71667C24.4708 1.71667 30.4729 7.71875 30.4729 15.0646C30.4729 22.5 24.4708 28.5021 17.125 28.5021Z" fill="#EBCB00"/>
<path d="M17.125 5.38959C19.5493 5.38959 21.5146 4.9083 21.5146 4.31459C21.5146 3.72089 19.5493 3.23959 17.125 3.23959C14.7007 3.23959 12.7354 3.72089 12.7354 4.31459C12.7354 4.9083 14.7007 5.38959 17.125 5.38959Z" fill="#FFF48C"/>
<path d="M17.125 30.7417C25.239 30.7417 31.8167 24.164 31.8167 16.05C31.8167 7.93602 25.239 1.35834 17.125 1.35834C9.01103 1.35834 2.43335 7.93602 2.43335 16.05C2.43335 24.164 9.01103 30.7417 17.125 30.7417Z" stroke="#45413C" stroke-miterlimit="10" stroke-linecap="round" stroke-linejoin="round"/>
<path d="M26.9792 20.7979C27.9687 20.7979 28.7708 20.3166 28.7708 19.7229C28.7708 19.1292 27.9687 18.6479 26.9792 18.6479C25.9897 18.6479 25.1875 19.1292 25.1875 19.7229C25.1875 20.3166 25.9897 20.7979 26.9792 20.7979Z" fill="#FFAA54"/>
<path d="M7.27085 20.7979C8.26036 20.7979 9.06252 20.3166 9.06252 19.7229C9.06252 19.1292 8.26036 18.6479 7.27085 18.6479C6.28134 18.6479 5.47919 19.1292 5.47919 19.7229C5.47919 20.3166 6.28134 20.7979 7.27085 20.7979Z" fill="#FFAA54"/>
<path d="M11.5709 20.4396C11.9292 26.3521 15.3334 28.7708 16.5875 29.4875C16.8563 29.6666 17.3042 29.6666 17.5729 29.4875C18.8271 28.7708 22.2313 26.3521 22.5896 20.4396C22.5896 19.9021 22.1417 19.3646 21.6042 19.3646H12.5563C12.0188 19.3646 11.5709 19.9021 11.5709 20.4396Z" fill="#FFB0CA" stroke="#45413C" stroke-miterlimit="10" stroke-linecap="round" stroke-linejoin="round"/>
<path d="M17.125 24.4708C17.125 23.3958 20.4396 23.6646 20.4396 24.8291V29.5771C20.4396 31.3687 19.0063 32.8916 17.125 32.8916C15.2438 32.8916 13.8104 31.4583 13.8104 29.5771V24.8291C13.8104 23.6646 17.125 23.3958 17.125 24.4708Z" fill="#FF6242"/>
<path d="M17.125 24.4708C17.125 23.3958 13.8104 23.6646 13.8104 24.8291V26.2625C13.8104 25.0979 20.4396 25.0979 20.4396 26.2625V24.8291C20.4396 23.6646 17.125 23.3958 17.125 24.4708Z" fill="#FF866E"/>
<path d="M17.125 24.4708C17.125 23.3958 20.4396 23.6646 20.4396 24.8291V29.5771C20.4396 31.3687 19.0063 32.8916 17.125 32.8916C15.2438 32.8916 13.8104 31.4583 13.8104 29.5771V24.8291C13.8104 23.6646 17.125 23.3958 17.125 24.4708V24.4708Z" stroke="#45413C" stroke-miterlimit="10" stroke-linecap="round" stroke-linejoin="round"/>
<path d="M20.7979 37.1021C20.7979 39.3417 17.8417 39.3417 17.8417 37.1021C17.8417 35.8479 19.275 34.0563 19.275 34.0563C19.275 34.0563 20.7979 35.7584 20.7979 37.1021Z" fill="#4AEFF7" stroke="#45413C" stroke-miterlimit="10" stroke-linecap="round" stroke-linejoin="round"/>
<path opacity="0.15" d="M22.6791 2.52292C21.2369 3.15734 20.0111 4.19869 19.1518 5.51939C18.2926 6.84008 17.8373 8.38274 17.8416 9.95833C17.8416 14.5271 21.5146 18.2 26.0833 18.2C28.3229 18.2 30.2937 17.3042 31.7271 15.9604C31.7271 9.86875 28.0541 4.67292 22.6791 2.52292Z" fill="#45413C"/>
<path d="M25.6354 16.2292C29.8408 16.2292 33.25 12.82 33.25 8.61458C33.25 4.40917 29.8408 1 25.6354 1C21.43 1 18.0208 4.40917 18.0208 8.61458C18.0208 12.82 21.43 16.2292 25.6354 16.2292Z" fill="#FFFACF"/>
<path d="M25.6354 14.7958C21.6937 14.7958 18.4687 11.75 18.1104 7.89789V8.61455C18.1104 12.825 21.5146 16.2291 25.725 16.2291C29.9354 16.2291 33.3396 12.825 33.3396 8.61455V7.89789C32.8917 11.75 29.5771 14.7958 25.6354 14.7958Z" fill="#FFE500"/>
<path d="M25.6354 3.41875C29.3979 3.41875 32.5333 6.19583 33.1604 9.86875C33.25 9.42083 33.25 9.0625 33.25 8.61458C33.25 4.40417 29.8458 1 25.6354 1C21.425 1 18.0208 4.40417 18.0208 8.61458C18.0208 9.0625 18.0208 9.42083 18.1104 9.77917C18.7375 6.19583 21.8729 3.41875 25.6354 3.41875Z" fill="white"/>
<path d="M25.6354 16.2292C29.8408 16.2292 33.25 12.82 33.25 8.61458C33.25 4.40917 29.8408 1 25.6354 1C21.43 1 18.0208 4.40917 18.0208 8.61458C18.0208 12.82 21.43 16.2292 25.6354 16.2292Z" stroke="#45413C" stroke-miterlimit="10" stroke-linejoin="round"/>
<path d="M25.6354 4.04584V13.1833" stroke="#45413C" stroke-miterlimit="10" stroke-linecap="round" stroke-linejoin="round"/>
<path d="M23.8438 10.4062C23.8438 11.3917 24.65 12.1979 25.6354 12.1979C26.6208 12.1979 27.4271 11.3917 27.4271 10.4062C27.4271 9.42083 26.6208 8.61458 25.6354 8.61458C24.65 8.61458 23.8438 7.80833 23.8438 6.82292C23.8438 5.8375 24.65 5.03125 25.6354 5.03125C26.6208 5.03125 27.4271 5.8375 27.4271 6.82292" stroke="#45413C" stroke-miterlimit="10" stroke-linecap="round" stroke-linejoin="round"/>
<path opacity="0.15" d="M11.5708 2.52292C14.4375 3.77709 16.4083 6.73334 16.4083 10.0479C16.4083 14.6167 12.7354 18.2896 8.16664 18.2896C5.92706 18.2896 3.95622 17.3938 2.52289 16.05C2.52289 9.86875 6.1958 4.67292 11.5708 2.52292Z" fill="#45413C"/>
<path d="M8.61458 16.2292C12.82 16.2292 16.2292 12.82 16.2292 8.61458C16.2292 4.40917 12.82 1 8.61458 1C4.40917 1 1 4.40917 1 8.61458C1 12.82 4.40917 16.2292 8.61458 16.2292Z" fill="#FFFACF"/>
<path d="M8.61458 14.7958C12.5562 14.7958 15.7812 11.75 16.1396 7.89789V8.61455C16.1396 12.825 12.7354 16.2291 8.525 16.2291C4.40417 16.2291 1 12.825 1 8.61455V7.89789C1.35833 11.75 4.67292 14.7958 8.61458 14.7958Z" fill="#FFE500"/>
<path d="M8.61458 3.41875C4.85208 3.41875 1.71667 6.19583 1.08958 9.86875C1 9.42083 1 9.0625 1 8.61458C1 4.40417 4.40417 1 8.61458 1C12.825 1 16.2292 4.40417 16.2292 8.61458C16.2292 9.0625 16.2292 9.42083 16.1396 9.77917C15.5125 6.19583 12.3771 3.41875 8.61458 3.41875Z" fill="white"/>
<path d="M8.61458 16.2292C12.82 16.2292 16.2292 12.82 16.2292 8.61458C16.2292 4.40917 12.82 1 8.61458 1C4.40917 1 1 4.40917 1 8.61458C1 12.82 4.40917 16.2292 8.61458 16.2292Z" stroke="#45413C" stroke-miterlimit="10" stroke-linejoin="round"/>
<path d="M8.70416 4.04584V13.1833" stroke="#45413C" stroke-miterlimit="10" stroke-linecap="round" stroke-linejoin="round"/>
<path d="M6.82294 10.4062C6.82294 11.3917 7.62919 12.1979 8.6146 12.1979C9.60002 12.1979 10.4063 11.3917 10.4063 10.4062C10.4063 9.42083 9.60002 8.61458 8.6146 8.61458C7.62919 8.61458 6.82294 7.80833 6.82294 6.82292C6.82294 5.8375 7.62919 5.03125 8.6146 5.03125C9.60002 5.03125 10.4063 5.8375 10.4063 6.82292" stroke="#45413C" stroke-miterlimit="10" stroke-linecap="round" stroke-linejoin="round"/>
</svg>
