<svg width="14" height="12" viewBox="0 0 14 12" fill="none" xmlns="http://www.w3.org/2000/svg">
<path fill-rule="evenodd" clip-rule="evenodd" d="M12.7748 5.63723V4.47056C12.7748 3.53606 12.0178 2.7789 11.0834 2.7789C8.95433 2.7789 4.46227 2.7789 2.33316 2.7789C1.39884 2.7789 0.641846 3.53606 0.641846 4.47056C0.641846 6.02281 0.641846 8.75165 0.641846 10.3039C0.641846 11.2384 1.39884 11.9956 2.33316 11.9956C4.46227 11.9956 8.95433 11.9956 11.0834 11.9956C12.0178 11.9956 12.7748 11.2384 12.7748 10.3039C12.7748 9.72056 12.7748 9.13723 12.7748 9.13723C12.7748 8.84731 12.5398 8.61223 12.25 8.61223C11.9601 8.61223 11.7252 8.84731 11.7252 9.13723C11.7252 9.13723 11.7252 9.72056 11.7252 10.3039C11.7252 10.6586 11.4376 10.9456 11.0834 10.9456C8.95433 10.9456 4.46227 10.9456 2.33316 10.9456C1.97905 10.9456 1.69143 10.6586 1.69143 10.3039C1.69143 8.75165 1.69143 6.02281 1.69143 4.47056C1.69143 4.1159 1.97905 3.82889 2.33316 3.82889C4.46227 3.82889 8.95433 3.82889 11.0834 3.82889C11.4376 3.82889 11.7252 4.1159 11.7252 4.47056V5.63723C11.7252 5.92715 11.9601 6.16223 12.25 6.16223C12.5398 6.16223 12.7748 5.92715 12.7748 5.63723Z" fill="white"/>
<path fill-rule="evenodd" clip-rule="evenodd" d="M2.56789 3.77347C2.56789 3.77347 5.8083 2.15356 7.87971 1.11756C8.07863 1.01839 8.31488 1.02889 8.50388 1.14556C8.69347 1.26281 8.80838 1.4693 8.80838 1.69155C8.80838 2.51814 8.80838 3.30389 8.80838 3.30389H9.85838C9.85838 3.30389 9.85838 2.51814 9.85838 1.69155C9.85838 1.1053 9.55504 0.561057 9.05629 0.252473C8.55754 -0.0555266 7.93455 -0.083526 7.41013 0.178391C5.33872 1.21439 2.09888 2.83431 2.09888 2.83431L2.56789 3.77347Z" fill="white"/>
<path fill-rule="evenodd" clip-rule="evenodd" d="M13.3583 6.80391C13.3583 5.86941 12.6011 5.11224 11.6666 5.11224C11.1375 5.11224 10.5011 5.11224 9.9166 5.11224C8.6601 5.11224 7.6416 6.13074 7.6416 7.38724C7.6416 8.64374 8.6601 9.66224 9.9166 9.66224C10.5011 9.66224 11.1375 9.66224 11.6666 9.66224C12.6011 9.66224 13.3583 8.90507 13.3583 7.97057V6.80391ZM12.3083 6.80391C12.3083 6.44924 12.0213 6.16224 11.6666 6.16224C11.1375 6.16224 10.5011 6.16224 9.9166 6.16224C9.23993 6.16224 8.69159 6.71057 8.69159 7.38724C8.69159 8.06391 9.23993 8.61224 9.9166 8.61224C10.5011 8.61224 11.1375 8.61224 11.6666 8.61224C12.0213 8.61224 12.3083 8.32524 12.3083 7.97057V6.80391Z" fill="white"/>
<path d="M9.92159 7.97085C10.2438 7.97085 10.505 7.70951 10.505 7.38713C10.505 7.06474 10.2438 6.80341 9.92159 6.80341C9.59937 6.80341 9.33813 7.06474 9.33813 7.38713C9.33813 7.70951 9.59937 7.97085 9.92159 7.97085Z" fill="white"/>
</svg>
