<svg width="36" height="35" viewBox="0 0 36 35" fill="none" xmlns="http://www.w3.org/2000/svg">
<path d="M26.9997 22.0636H9.00047C6.91613 22.0636 5.22644 23.7533 5.22644 25.8376C5.22644 27.922 6.91613 29.6117 9.00047 29.6117H26.9997C29.0841 29.6117 30.7737 27.922 30.7737 25.8376C30.7737 23.7533 29.0841 22.0636 26.9997 22.0636Z" fill="#4639BF"/>
<path d="M5.22639 34.2566C7.79173 34.2566 9.87135 32.177 9.87135 29.6116C9.87135 27.0463 7.79173 24.9667 5.22639 24.9667C2.66104 24.9667 0.581421 27.0463 0.581421 29.6116C0.581421 32.177 2.66104 34.2566 5.22639 34.2566Z" fill="#B3B3B3"/>
<path d="M5.22641 31.9343C6.50908 31.9343 7.54889 30.8945 7.54889 29.6118C7.54889 28.3291 6.50908 27.2893 5.22641 27.2893C3.94374 27.2893 2.90393 28.3291 2.90393 29.6118C2.90393 30.8945 3.94374 31.9343 5.22641 31.9343Z" fill="#9757FF"/>
<path d="M14.5163 3.48376H9.87134V19.1605H14.5163V3.48376Z" fill="#B3B3B3"/>
<path d="M14.5163 3.48376H12.1938V19.1605H14.5163V3.48376Z" fill="#E5E5E5"/>
<path d="M12.1938 1.16131V5.80627L27.29 5.80627V1.16131L12.1938 1.16131Z" fill="#B3B3B3"/>
<path d="M12.1938 1.16128V3.48376L27.29 3.48376V1.16128L12.1938 1.16128Z" fill="#E5E5E5"/>
<path d="M32.5156 15.0962L29.0318 11.0319H25.5481L22.0644 15.0962L21.7623 13.2832C21.6566 12.6491 21.6903 11.9995 21.861 11.3797C22.0318 10.7599 22.3355 10.1847 22.7511 9.69418C23.1666 9.20364 23.684 8.80949 24.2673 8.53916C24.8507 8.26882 25.4858 8.12879 26.1287 8.12878H28.4512C29.0941 8.12879 29.7293 8.26882 30.3126 8.53916C30.8959 8.80949 31.4133 9.20364 31.8289 9.69418C32.2444 10.1847 32.5482 10.7599 32.7189 11.3797C32.8897 11.9995 32.9234 12.6491 32.8177 13.2832L32.5156 15.0962Z" fill="#4639BF"/>
<path d="M24.3868 14.8995C24.7444 14.8102 25.1161 14.7922 25.4807 14.8466C25.8452 14.9009 26.1955 15.0266 26.5115 15.2163C26.8275 15.406 27.103 15.6561 27.3224 15.9524C27.5417 16.2486 27.7005 16.5851 27.7898 16.9427C27.0676 17.123 26.3034 17.0091 25.6653 16.626C25.0271 16.2429 24.5673 15.622 24.3869 14.8998L24.3868 14.8995Z" fill="#2C9851"/>
<path d="M26.7901 16.9424C26.8793 16.5848 27.0382 16.2483 27.2575 15.9521C27.4768 15.6559 27.7524 15.4058 28.0684 15.216C28.3843 15.0263 28.7346 14.9007 29.0992 14.8463C29.4637 14.792 29.8354 14.81 30.193 14.8993C30.1037 15.2569 29.9449 15.5934 29.7256 15.8896C29.5062 16.1858 29.2307 16.436 28.9147 16.6257C28.5987 16.8154 28.2484 16.941 27.8839 16.9954C27.5193 17.0497 27.1477 17.0317 26.7901 16.9424Z" fill="#2C9851"/>
<path d="M12.1939 26.128C14.4385 26.128 16.2582 24.3083 16.2582 22.0636C16.2582 19.8189 14.4385 17.9993 12.1939 17.9993C9.94919 17.9993 8.12952 19.8189 8.12952 22.0636C8.12952 24.3083 9.94919 26.128 12.1939 26.128Z" fill="#4639BF"/>
<path d="M12.1938 24.3862C13.4765 24.3862 14.5163 23.3464 14.5163 22.0637C14.5163 20.781 13.4765 19.7412 12.1938 19.7412C10.9111 19.7412 9.87134 20.781 9.87134 22.0637C9.87134 23.3464 10.9111 24.3862 12.1938 24.3862Z" fill="#9757FF"/>
<path d="M12.1938 6.96757C14.1178 6.96757 15.6775 5.40785 15.6775 3.48385C15.6775 1.55984 14.1178 0.00012207 12.1938 0.00012207C10.2698 0.00012207 8.71008 1.55984 8.71008 3.48385C8.71008 5.40785 10.2698 6.96757 12.1938 6.96757Z" fill="#4639BF"/>
<path d="M26.8018 11.572L24.7484 4.5532C24.6358 4.16824 24.6121 3.76273 24.6791 3.36726C24.7461 2.9718 24.902 2.59672 25.1352 2.27035C25.3802 1.92734 25.7035 1.64777 26.0783 1.45489C26.4531 1.262 26.8685 1.16138 27.2901 1.16138C27.7116 1.16138 28.127 1.262 28.5018 1.45489C28.8766 1.64777 29.2 1.92734 29.445 2.27035C29.6781 2.59672 29.8341 2.9718 29.9011 3.36726C29.9681 3.76273 29.9444 4.16824 29.8317 4.5532L27.7783 11.572C27.6622 12.0941 26.9179 12.0941 26.8018 11.572Z" fill="#4639BF"/>
<path d="M26.9689 11.0416L25.6183 6.42501C25.5441 6.17183 25.5285 5.90512 25.5725 5.645C25.6165 5.38489 25.719 5.13816 25.8723 4.92346C26.0335 4.69786 26.2461 4.51399 26.4927 4.38713C26.7392 4.26027 27.0124 4.19409 27.2897 4.19409C27.5669 4.19409 27.8402 4.26027 28.0867 4.38713C28.3332 4.51399 28.5459 4.69786 28.707 4.92346C28.8603 5.13816 28.9628 5.38489 29.0068 5.645C29.0508 5.90512 29.0352 6.17183 28.9611 6.42501L27.6105 11.0416C27.5939 11.1143 27.5532 11.1792 27.4949 11.2257C27.4366 11.2723 27.3642 11.2976 27.2897 11.2976C27.2151 11.2976 27.1427 11.2723 27.0845 11.2257C27.0262 11.1792 26.9854 11.1143 26.9689 11.0416Z" fill="#4639BF"/>
<path d="M27.29 20.5693C27.9314 20.5693 28.4513 20.0494 28.4513 19.4081C28.4513 18.7667 27.9314 18.2468 27.29 18.2468C26.6487 18.2468 26.1288 18.7667 26.1288 19.4081C26.1288 20.0494 26.6487 20.5693 27.29 20.5693Z" fill="#995C2E"/>
<path d="M30.7737 34.2566C33.3391 34.2566 35.4187 32.177 35.4187 29.6116C35.4187 27.0463 33.3391 24.9667 30.7737 24.9667C28.2084 24.9667 26.1288 27.0463 26.1288 29.6116C26.1288 32.177 28.2084 34.2566 30.7737 34.2566Z" fill="#B3B3B3"/>
<path d="M30.7737 31.9343C32.0563 31.9343 33.0961 30.8945 33.0961 29.6118C33.0961 28.3291 32.0563 27.2893 30.7737 27.2893C29.491 27.2893 28.4512 28.3291 28.4512 29.6118C28.4512 30.8945 29.491 31.9343 30.7737 31.9343Z" fill="#9757FF"/>
<path d="M5.22647 26.7086C4.65229 26.7086 4.091 26.8789 3.61359 27.1979C3.13618 27.5168 2.76408 27.9703 2.54435 28.5007C2.32462 29.0312 2.26713 29.6149 2.37915 30.1781C2.49116 30.7412 2.76766 31.2585 3.17366 31.6645C3.57967 32.0705 4.09695 32.347 4.6601 32.459C5.22325 32.571 5.80696 32.5135 6.33744 32.2938C6.86791 32.0741 7.32131 31.702 7.64031 31.2246C7.95931 30.7472 8.12957 30.1859 8.12957 29.6117C8.12871 28.842 7.82257 28.1041 7.27832 27.5598C6.73407 27.0156 5.99615 26.7095 5.22647 26.7086ZM5.22647 31.3536C4.88196 31.3536 4.54519 31.2514 4.25874 31.06C3.97229 30.8686 3.74904 30.5966 3.6172 30.2783C3.48536 29.96 3.45087 29.6098 3.51808 29.2719C3.58529 28.934 3.75118 28.6236 3.99479 28.38C4.23839 28.1364 4.54876 27.9705 4.88665 27.9033C5.22454 27.8361 5.57477 27.8706 5.89305 28.0024C6.21133 28.1343 6.48338 28.3575 6.67477 28.644C6.86617 28.9304 6.96833 29.2672 6.96833 29.6117C6.96779 30.0735 6.7841 30.5162 6.45756 30.8428C6.13101 31.1693 5.68827 31.353 5.22647 31.3536ZM12.1939 24.9667C12.7681 24.9667 13.3294 24.7965 13.8068 24.4775C14.2842 24.1585 14.6563 23.7051 14.876 23.1746C15.0958 22.6441 15.1533 22.0604 15.0412 21.4973C14.9292 20.9341 14.6527 20.4168 14.2467 20.0108C13.8407 19.6048 13.3234 19.3283 12.7603 19.2163C12.1971 19.1043 11.6134 19.1618 11.0829 19.3815C10.5525 19.6012 10.0991 19.9733 9.78007 20.4507C9.46108 20.9282 9.29081 21.4894 9.29081 22.0636C9.29168 22.8333 9.59782 23.5712 10.1421 24.1155C10.6863 24.6597 11.4242 24.9659 12.1939 24.9667ZM12.1939 20.3218C12.5384 20.3218 12.8752 20.4239 13.1616 20.6153C13.4481 20.8067 13.6713 21.0788 13.8032 21.397C13.935 21.7153 13.9695 22.0656 13.9023 22.4034C13.8351 22.7413 13.6692 23.0517 13.4256 23.2953C13.182 23.5389 12.8716 23.7048 12.5337 23.772C12.1958 23.8392 11.8456 23.8047 11.5273 23.6729C11.209 23.5411 10.937 23.3178 10.7456 23.0314C10.5542 22.7449 10.4521 22.4081 10.4521 22.0636C10.4526 21.6018 10.6363 21.1591 10.9628 20.8325C11.2894 20.506 11.7321 20.3223 12.1939 20.3218ZM30.7738 26.7086C30.1996 26.7086 29.6383 26.8789 29.1609 27.1979C28.6835 27.5168 28.3114 27.9703 28.0917 28.5007C27.8719 29.0312 27.8144 29.6149 27.9265 30.1781C28.0385 30.7412 28.315 31.2585 28.721 31.6645C29.127 32.0705 29.6443 32.347 30.2074 32.459C30.7706 32.571 31.3543 32.5135 31.8847 32.2938C32.4152 32.0741 32.8686 31.702 33.1876 31.2246C33.5066 30.7472 33.6769 30.1859 33.6769 29.6117C33.676 28.842 33.3699 28.1041 32.8256 27.5598C32.2814 27.0156 31.5435 26.7095 30.7738 26.7086ZM30.7738 31.3536C30.4293 31.3536 30.0925 31.2514 29.806 31.06C29.5196 30.8686 29.2963 30.5966 29.1645 30.2783C29.0327 29.96 28.9982 29.6098 29.0654 29.2719C29.1326 28.934 29.2985 28.6236 29.5421 28.38C29.7857 28.1364 30.0961 27.9705 30.434 27.9033C30.7718 27.8361 31.1221 27.8706 31.4404 28.0024C31.7586 28.1343 32.0307 28.3575 32.2221 28.644C32.4135 28.9304 32.5156 29.2672 32.5156 29.6117C32.5151 30.0735 32.3314 30.5162 32.0049 30.8428C31.6783 31.1693 31.2356 31.353 30.7738 31.3536Z" fill="#5A5A5A"/>
<path d="M31.0649 24.3947C31.0662 24.315 31.0511 24.2359 31.0203 24.1624C30.6906 23.368 30.1326 22.6893 29.4168 22.2123C28.701 21.7353 27.8598 21.4815 26.9997 21.483H16.8388C16.8262 21.483 16.8139 21.4841 16.8015 21.4849C16.6505 20.2874 16.0391 19.1959 15.097 18.4415V6.38688H24.68L25.0539 7.66512C23.8735 7.92692 22.8268 8.60481 22.1051 9.57485C21.7027 10.1138 21.414 10.7288 21.2566 11.3827C21.0992 12.0366 21.0764 12.7157 21.1895 13.3786L21.4916 15.1916C21.5098 15.3006 21.5586 15.4022 21.6325 15.4843C21.7063 15.5665 21.8021 15.6259 21.9085 15.6556C22.0149 15.6853 22.1276 15.6839 22.2333 15.6518C22.339 15.6196 22.4334 15.558 22.5053 15.4741L25.8152 11.6125H26.1288C26.1549 11.6123 26.1811 11.6103 26.207 11.6066L26.2401 11.7198C26.2976 11.9549 26.4323 12.1639 26.6226 12.3133C26.813 12.4627 27.048 12.544 27.29 12.544C27.532 12.544 27.767 12.4627 27.9574 12.3133C28.1477 12.1639 28.2824 11.9549 28.3399 11.7198L28.373 11.6066C28.3989 11.6103 28.4251 11.6123 28.4512 11.6125H28.7648L32.0747 15.4741C32.1466 15.558 32.241 15.6196 32.3467 15.6518C32.4524 15.6839 32.5651 15.6853 32.6715 15.6556C32.7779 15.6259 32.8737 15.5665 32.9475 15.4843C33.0214 15.4022 33.0702 15.3006 33.0884 15.1916L33.3905 13.3787C33.5036 12.7157 33.4808 12.0366 33.3234 11.3827C33.166 10.7288 32.8773 10.1138 32.4749 9.57485C31.7532 8.60481 30.7065 7.92692 29.5261 7.66512L30.3891 4.71615C30.5299 4.23482 30.5567 3.72731 30.4673 3.23384C30.3779 2.74037 30.1747 2.27452 29.874 1.8732C29.5733 1.47187 29.1832 1.14613 28.7346 0.921777C28.2861 0.697427 27.7915 0.58064 27.29 0.580676H14.1167C13.4471 0.136333 12.6445 -0.0627107 11.8449 0.0173101C11.0453 0.097331 10.298 0.451489 9.72979 1.01971C9.16158 1.58792 8.80742 2.33521 8.7274 3.13479C8.64738 3.93438 8.84642 4.73702 9.29076 5.40658V18.4415C8.7859 18.8454 8.37104 19.3505 8.07282 19.9241C7.77459 20.4978 7.59957 21.1275 7.55899 21.7728C7.4789 21.7713 7.39937 21.7865 7.32544 21.8173C6.267 22.2624 5.42495 23.1042 4.97966 24.1626C4.94891 24.2361 4.93374 24.3152 4.93509 24.3948C3.94014 24.4502 2.98178 24.7889 2.17299 25.3711C1.3642 25.9532 0.738717 26.7544 0.370287 27.6803C0.00185611 28.6062 -0.0941593 29.6181 0.0935613 30.5967C0.281282 31.5754 0.744911 32.48 1.42978 33.2038C2.11466 33.9276 2.99222 34.4406 3.95899 34.6821C4.92577 34.9236 5.94145 34.8837 6.88628 34.567C7.83111 34.2503 8.66569 33.6701 9.29163 32.8947C9.91756 32.1193 10.3087 31.1812 10.4191 30.1908C10.4299 30.1915 10.4408 30.1925 10.4519 30.1925H25.5481C25.5592 30.1925 25.5699 30.1915 25.5809 30.1908C25.6913 31.1812 26.0824 32.1193 26.7084 32.8947C27.3343 33.6701 28.1689 34.2503 29.1137 34.567C30.0585 34.8837 31.0742 34.9236 32.041 34.6821C33.0078 34.4406 33.8853 33.9276 34.5702 33.2038C35.2551 32.48 35.7187 31.5754 35.9064 30.5967C36.0942 29.6181 35.9981 28.6062 35.6297 27.6803C35.2613 26.7544 34.6358 25.9532 33.827 25.3711C33.0182 24.7889 32.0599 24.4502 31.0649 24.3948V24.3947ZM25.5481 10.4512C25.4644 10.4512 25.3816 10.4693 25.3055 10.5043C25.2294 10.5393 25.1618 10.5904 25.1073 10.6539L22.4327 13.7743L22.3351 13.1878C22.1706 12.2016 22.3966 11.1901 22.9651 10.3677C23.5336 9.54526 24.4 8.97651 25.3807 8.78194L25.869 10.4512H25.5481ZM31.5422 10.2666C31.8512 10.6805 32.0729 11.1529 32.1937 11.655C32.3144 12.1572 32.3319 12.6787 32.2449 13.1878L32.1473 13.7743L29.4727 10.6539C29.4182 10.5904 29.3506 10.5393 29.2745 10.5043C29.1984 10.4693 29.1156 10.4512 29.0319 10.4512H28.711L29.1993 8.78194C30.1392 8.96456 30.9758 9.49466 31.5422 10.2666V10.2666ZM25.6075 2.60777C25.8914 2.21026 26.3069 1.92611 26.7803 1.80569C27.2537 1.68527 27.7545 1.73636 28.1939 1.9499C28.6332 2.16344 28.9827 2.52564 29.1805 2.9723C29.3783 3.41896 29.4116 3.92122 29.2744 4.39005L27.29 11.1727L25.3056 4.39005C25.2168 4.08961 25.1978 3.77284 25.2501 3.46394C25.3024 3.15504 25.4247 2.86219 25.6075 2.60777V2.60777ZM15.2089 1.74192H24.8109C24.7601 1.80361 24.7099 1.86675 24.6627 1.9328C24.3771 2.33007 24.1861 2.78738 24.1044 3.26978C24.0226 3.75217 24.0522 4.24688 24.1909 4.71607L24.3402 5.22564H15.2089C15.5159 4.69647 15.6776 4.09556 15.6776 3.48378C15.6776 2.872 15.5159 2.27109 15.2089 1.74192V1.74192ZM12.1939 1.1613C12.6532 1.1613 13.1022 1.29751 13.4842 1.55271C13.8661 1.8079 14.1638 2.17063 14.3396 2.595C14.5153 3.01938 14.5613 3.48636 14.4717 3.93687C14.3821 4.38739 14.1609 4.80122 13.8361 5.12602C13.5113 5.45083 13.0975 5.67202 12.647 5.76164C12.1964 5.85125 11.7295 5.80526 11.3051 5.62947C10.8807 5.45369 10.518 5.15601 10.2628 4.77408C10.0076 4.39215 9.87138 3.94312 9.87138 3.48378C9.87208 2.86803 10.117 2.2777 10.5524 1.8423C10.9878 1.4069 11.5781 1.16199 12.1939 1.1613ZM13.9357 6.4988V17.7588C12.8188 17.3053 11.569 17.3053 10.452 17.7588V6.4988C10.9812 6.80581 11.5821 6.9675 12.1939 6.9675C12.8056 6.9675 13.4066 6.80581 13.9357 6.4988ZM12.1939 18.5799C12.8829 18.5799 13.5564 18.7842 14.1293 19.167C14.7022 19.5498 15.1487 20.0939 15.4124 20.7305C15.6761 21.367 15.7451 22.0675 15.6107 22.7433C15.4762 23.4191 15.1444 24.0398 14.6572 24.527C14.17 25.0142 13.5493 25.346 12.8735 25.4804C12.1977 25.6148 11.4973 25.5459 10.8607 25.2822C10.2241 25.0185 9.68005 24.572 9.29726 23.9991C8.91446 23.4262 8.71014 22.7527 8.71014 22.0636C8.71118 21.14 9.07855 20.2545 9.73165 19.6014C10.3847 18.9483 11.2702 18.5809 12.1939 18.5799V18.5799ZM5.22642 33.676C4.42257 33.676 3.63677 33.4377 2.96839 32.9911C2.30001 32.5445 1.77908 31.9097 1.47146 31.1671C1.16384 30.4244 1.08335 29.6072 1.24017 28.8188C1.397 28.0304 1.78409 27.3062 2.3525 26.7378C2.9209 26.1694 3.6451 25.7823 4.43351 25.6255C5.22191 25.4686 6.03912 25.5491 6.78178 25.8567C7.52444 26.1644 8.1592 26.6853 8.6058 27.3537C9.05239 28.0221 9.29076 28.8079 9.29076 29.6117C9.28955 30.6893 8.86096 31.7223 8.09901 32.4843C7.33706 33.2462 6.30398 33.6748 5.22642 33.676V33.676ZM25.5481 29.0311H10.452C10.4409 29.0311 10.4302 29.0321 10.4192 29.0328C10.292 27.9086 9.80416 26.8558 9.02859 26.0321C8.25303 25.2085 7.23152 24.6581 6.11702 24.4636C6.43579 23.801 6.97124 23.2671 7.63476 22.9502C7.84557 24.0346 8.43601 25.0083 9.30009 25.6966C10.1642 26.3848 11.2453 26.7425 12.3493 26.7054C13.4534 26.6683 14.5081 26.2389 15.324 25.4943C16.14 24.7496 16.6637 23.7384 16.8013 22.6424C16.8137 22.6432 16.8261 22.6443 16.8387 22.6443H26.9997C27.6033 22.6433 28.1947 22.8138 28.7051 23.1359C29.2155 23.458 29.624 23.9184 29.8829 24.4636C28.7685 24.6582 27.747 25.2085 26.9715 26.0322C26.196 26.8559 25.7081 27.9086 25.5809 29.0328C25.5699 29.0321 25.5592 29.0311 25.5481 29.0311ZM30.7737 33.676C29.9699 33.676 29.1841 33.4377 28.5157 32.9911C27.8473 32.5445 27.3264 31.9097 27.0188 31.1671C26.7111 30.4244 26.6307 29.6072 26.7875 28.8188C26.9443 28.0304 27.3314 27.3062 27.8998 26.7378C28.4682 26.1694 29.1924 25.7823 29.9808 25.6255C30.7692 25.4686 31.5864 25.5491 32.3291 25.8567C33.0717 26.1644 33.7065 26.6853 34.1531 27.3537C34.5997 28.0221 34.8381 28.8079 34.8381 29.6117C34.8369 30.6893 34.4083 31.7223 33.6463 32.4843C32.8844 33.2462 31.8513 33.6748 30.7737 33.676V33.676Z" fill="#5A5A5A"/>
<path d="M27.961 17.6078C28.7155 17.6058 29.4479 17.3522 30.0421 16.8871C30.6362 16.422 31.0583 15.772 31.2415 15.04C31.2788 14.8906 31.2552 14.7325 31.176 14.6005C31.0967 14.4685 30.9682 14.3733 30.8188 14.336C30.1727 14.1753 29.4936 14.2083 28.8661 14.4308C28.2386 14.6534 27.6905 15.0557 27.29 15.5875C26.8894 15.0558 26.3413 14.6536 25.7139 14.4311C25.0865 14.2085 24.4075 14.1755 23.7614 14.336C23.612 14.3733 23.4836 14.4685 23.4043 14.6005C23.325 14.7325 23.3015 14.8906 23.3388 15.04C23.5219 15.772 23.944 16.422 24.5382 16.8871C25.1324 17.3522 25.8647 17.6058 26.6193 17.6078C26.6543 17.6078 26.6895 17.6056 26.7247 17.6045V17.7609C26.3363 17.8945 26.0075 18.161 25.7966 18.5135C25.5857 18.866 25.5062 19.2816 25.5721 19.687C25.638 20.0925 25.8451 20.4615 26.1568 20.729C26.4685 20.9965 26.8648 21.1452 27.2755 21.1488C27.6862 21.1524 28.085 21.0108 28.4014 20.7488C28.7177 20.4868 28.9313 20.1215 29.0044 19.7173C29.0774 19.3131 29.0052 18.8961 28.8006 18.54C28.5959 18.1839 28.2719 17.9115 27.8859 17.7712V17.6055C27.9107 17.6061 27.9359 17.6078 27.961 17.6078ZM29.8422 15.4014C29.6554 15.6983 29.4014 15.9471 29.1006 16.1276C28.7999 16.3081 28.4609 16.4154 28.1111 16.4407C28.2979 16.1439 28.552 15.8951 28.8527 15.7146C29.1534 15.5341 29.4924 15.4269 29.8422 15.4016V15.4014ZM25.4793 16.1272C25.1782 15.9474 24.924 15.6987 24.7377 15.4014C25.0876 15.4268 25.4265 15.534 25.7273 15.7146C26.028 15.8951 26.2821 16.1438 26.4689 16.4407C26.1189 16.4162 25.7798 16.3089 25.4793 16.1277V16.1272ZM27.29 19.9886C27.1751 19.9886 27.0629 19.9546 26.9674 19.8908C26.8719 19.827 26.7975 19.7363 26.7536 19.6302C26.7096 19.5241 26.6981 19.4074 26.7205 19.2947C26.7429 19.1821 26.7982 19.0787 26.8794 18.9975C26.9606 18.9163 27.0641 18.861 27.1767 18.8386C27.2893 18.8161 27.4061 18.8276 27.5122 18.8716C27.6183 18.9155 27.709 18.99 27.7728 19.0854C27.8366 19.1809 27.8706 19.2932 27.8706 19.408C27.8704 19.562 27.8092 19.7095 27.7004 19.8184C27.5915 19.9272 27.4439 19.9885 27.29 19.9886ZM26.7094 23.8055H18.0001C17.8461 23.8055 17.6984 23.8667 17.5895 23.9755C17.4806 24.0844 17.4194 24.2321 17.4194 24.3861C17.4194 24.5401 17.4806 24.6878 17.5895 24.7967C17.6984 24.9056 17.8461 24.9667 18.0001 24.9667H26.7094C26.8634 24.9667 27.011 24.9056 27.1199 24.7967C27.2288 24.6878 27.29 24.5401 27.29 24.3861C27.29 24.2321 27.2288 24.0844 27.1199 23.9755C27.011 23.8667 26.8634 23.8055 26.7094 23.8055ZM24.9675 25.5474H18.0001C17.8461 25.5474 17.6984 25.6085 17.5895 25.7174C17.4806 25.8263 17.4194 25.974 17.4194 26.128C17.4194 26.282 17.4806 26.4296 17.5895 26.5385C17.6984 26.6474 17.8461 26.7086 18.0001 26.7086H24.9675C25.1215 26.7086 25.2692 26.6474 25.3781 26.5385C25.4869 26.4296 25.5481 26.282 25.5481 26.128C25.5481 25.974 25.4869 25.8263 25.3781 25.7174C25.2692 25.6085 25.1215 25.5474 24.9675 25.5474Z" fill="#5A5A5A"/>
</svg>
