<svg width="33" height="33" viewBox="0 0 33 33" fill="none" xmlns="http://www.w3.org/2000/svg">
<g clip-path="url(#clip0_350_181)" filter="url(#filter0_d_350_181)">
<path d="M22.1875 0.5625H10.1875C6.87379 0.5625 4.1875 3.24879 4.1875 6.5625V18.5625C4.1875 21.8762 6.87379 24.5625 10.1875 24.5625H22.1875C25.5012 24.5625 28.1875 21.8762 28.1875 18.5625V6.5625C28.1875 3.24879 25.5012 0.5625 22.1875 0.5625Z" fill="#9757FF" fill-opacity="0.15"/>
<path d="M15.0625 8.0625C11.956 8.0625 9.4375 10.581 9.4375 13.6875C9.4375 16.794 11.956 19.3125 15.0625 19.3125C18.169 19.3125 20.6875 16.794 20.6875 13.6875H15.0625V8.0625Z" stroke="#9757FF" stroke-width="1.125" stroke-linecap="round" stroke-linejoin="round"/>
<path d="M22.9375 11.0625C22.9375 8.163 20.587 5.8125 17.6875 5.8125V11.0625H22.9375Z" stroke="#9757FF" stroke-width="1.125" stroke-linecap="round" stroke-linejoin="round"/>
</g>
<defs>
<filter id="filter0_d_350_181" x="0.1875" y="0.5625" width="32" height="32" filterUnits="userSpaceOnUse" color-interpolation-filters="sRGB">
<feFlood flood-opacity="0" result="BackgroundImageFix"/>
<feColorMatrix in="SourceAlpha" type="matrix" values="0 0 0 0 0 0 0 0 0 0 0 0 0 0 0 0 0 0 127 0" result="hardAlpha"/>
<feOffset dy="4"/>
<feGaussianBlur stdDeviation="2"/>
<feComposite in2="hardAlpha" operator="out"/>
<feColorMatrix type="matrix" values="0 0 0 0 0 0 0 0 0 0 0 0 0 0 0 0 0 0 0.25 0"/>
<feBlend mode="normal" in2="BackgroundImageFix" result="effect1_dropShadow_350_181"/>
<feBlend mode="normal" in="SourceGraphic" in2="effect1_dropShadow_350_181" result="shape"/>
</filter>
<clipPath id="clip0_350_181">
<rect width="24" height="24" fill="white" transform="translate(4.1875 0.5625)"/>
</clipPath>
</defs>
</svg>
