<svg width="37" height="20" viewBox="0 0 37 20" fill="none" xmlns="http://www.w3.org/2000/svg">
<path d="M35.7667 2.98059H34.5333V4.21392H35.7667V2.98059Z" fill="#DC4D41"/>
<path d="M2.46673 2.98059H1.2334V4.21392H2.46673V2.98059Z" fill="#DC4D41"/>
<path d="M14.1833 4.21398C14.0198 4.21398 13.8629 4.14901 13.7473 4.03336C13.6316 3.91772 13.5667 3.76086 13.5667 3.59731V2.36398C13.5667 2.20043 13.6316 2.04358 13.7473 1.92793C13.8629 1.81228 14.0198 1.74731 14.1833 1.74731C14.3469 1.74731 14.5037 1.81228 14.6194 1.92793C14.735 2.04358 14.8 2.20043 14.8 2.36398V3.59731C14.8 3.76086 14.735 3.91772 14.6194 4.03336C14.5037 4.14901 14.3469 4.21398 14.1833 4.21398ZM22.8166 4.21398C22.6531 4.21398 22.4962 4.14901 22.3806 4.03336C22.265 3.91772 22.2 3.76086 22.2 3.59731V2.36398C22.2 2.20043 22.265 2.04358 22.3806 1.92793C22.4962 1.81228 22.6531 1.74731 22.8166 1.74731C22.9802 1.74731 23.1371 1.81228 23.2527 1.92793C23.3683 2.04358 23.4333 2.20043 23.4333 2.36398V3.59731C23.4333 3.76086 23.3683 3.91772 23.2527 4.03336C23.1371 4.14901 22.9802 4.21398 22.8166 4.21398Z" fill="#B94137"/>
<path d="M19.1166 3.59729H17.8833V6.68062H19.1166V3.59729Z" fill="#B94137"/>
<path d="M10.4833 7.29728C10.1427 7.29728 9.86663 7.63783 9.86663 7.29728V4.83061C9.86663 4.66706 9.9316 4.51021 10.0472 4.39456C10.1629 4.27892 10.3197 4.21395 10.4833 4.21395C10.6468 4.21395 10.8037 4.27892 10.9193 4.39456C11.035 4.51021 11.1 4.66706 11.1 4.83061V7.29728C11.1 7.63783 10.8238 7.29728 10.4833 7.29728ZM14.1833 6.68061C13.8427 6.68061 13.5666 7.02117 13.5666 6.68061V3.59728C13.5666 3.25673 13.8427 3.59728 14.1833 3.59728C14.5238 3.59728 14.8 3.25673 14.8 3.59728V6.68061C14.8 7.02117 14.5238 6.68061 14.1833 6.68061ZM26.5166 7.29728C26.1761 7.29728 25.9 7.63783 25.9 7.29728V4.83061C25.9 4.49006 26.1761 4.83061 26.5166 4.83061C26.8572 4.83061 27.1333 4.49006 27.1333 4.83061V7.29728C27.1333 7.63783 26.8572 7.29728 26.5166 7.29728ZM30.2166 8.53061C29.8761 8.53061 29.6 8.87117 29.6 8.53061V5.44728C29.6 5.10673 29.8761 5.44728 30.2166 5.44728C30.5572 5.44728 30.8333 5.10673 30.8333 5.44728V8.53061C30.8333 8.87117 30.5572 8.53061 30.2166 8.53061ZM22.8166 6.68061C22.4761 6.68061 22.2 7.02117 22.2 6.68061V3.59728C22.2 3.25673 22.4761 3.59728 22.8166 3.59728C23.1572 3.59728 23.4333 3.25673 23.4333 3.59728V6.68061C23.4333 7.02117 23.1572 6.68061 22.8166 6.68061ZM6.78329 8.53061C6.44274 8.53061 6.16663 8.87117 6.16663 8.53061V5.44728C6.16663 5.28373 6.2316 5.12688 6.34724 5.01123C6.46289 4.89558 6.61974 4.83061 6.78329 4.83061C6.94684 4.83061 7.10369 4.89558 7.21934 5.01123C7.33499 5.12688 7.39996 5.28373 7.39996 5.44728V8.53061C7.39996 8.87117 7.12385 8.53061 6.78329 8.53061Z" fill="#B94137"/>
<path d="M35.2837 5.73601L22.9504 2.99524C22.9065 2.98551 22.8616 2.9806 22.8167 2.98059H14.1833C14.1384 2.9806 14.0935 2.98551 14.0496 2.99524L2.12303 5.64559C1.96337 5.68107 1.82435 5.77852 1.73655 5.91651C1.64874 6.05449 1.61934 6.2217 1.65482 6.38135C1.6903 6.54101 1.78775 6.68003 1.92574 6.76784C2.06372 6.85564 2.23093 6.88504 2.39059 6.84956L14.251 4.21392H22.749L35.0163 6.93998C35.0955 6.95798 35.1775 6.96015 35.2575 6.94637C35.3376 6.93258 35.4141 6.90312 35.4827 6.85967C35.5514 6.81622 35.6108 6.75964 35.6575 6.69318C35.7042 6.62671 35.7373 6.55168 35.7549 6.47238C35.7725 6.39308 35.7743 6.31108 35.7601 6.2311C35.7459 6.15111 35.7161 6.07471 35.6723 6.00628C35.6286 5.93786 35.5717 5.87876 35.505 5.83238C35.4383 5.786 35.3631 5.75325 35.2837 5.73601Z" fill="#F55648"/>
<path d="M35.0093 9.41373L22.3569 6.08412C22.3056 6.07064 22.2529 6.06383 22.1999 6.06384H14.7999C14.747 6.06383 14.6942 6.07064 14.643 6.08412L2.92631 9.16745C2.76814 9.20907 2.63298 9.31182 2.55056 9.4531C2.46815 9.59438 2.44523 9.76261 2.48686 9.92078C2.52848 10.079 2.63123 10.2141 2.77251 10.2965C2.91379 10.3789 3.08202 10.4019 3.24019 10.3602L14.8798 7.29718H22.1202L34.6951 10.6065C34.7734 10.6271 34.8551 10.6321 34.9353 10.6212C35.0155 10.6102 35.0928 10.5836 35.1628 10.5428C35.2328 10.502 35.294 10.4478 35.343 10.3833C35.392 10.3189 35.4278 10.2454 35.4485 10.1671C35.4691 10.0887 35.4741 10.0071 35.4631 9.92689C35.4522 9.84664 35.4256 9.76934 35.3848 9.69938C35.3439 9.62943 35.2898 9.5682 35.2253 9.51919C35.1608 9.47017 35.0873 9.43434 35.009 9.41373H35.0093Z" fill="#C7463B"/>
<path d="M33.9167 9.76388V15.9305H30.2167V15.3139L28.7922 13.7306C27.4937 12.288 25.9064 11.1344 24.1333 10.3448C22.3603 9.55523 20.441 9.14719 18.5 9.14719C16.5591 9.14719 14.6398 9.55523 12.8667 10.3448C11.0937 11.1344 9.50638 12.288 8.20787 13.7306L6.78337 15.3139L6.16671 15.9305H3.08337V9.76388L14.8 6.68054H22.2L33.9167 9.76388Z" fill="#A8A8A8"/>
<path d="M33.9167 9.76388V15.3139H30.2167V14.6972L28.7922 13.1139C27.4937 11.6713 25.9064 10.5178 24.1333 9.72816C22.3603 8.93856 20.441 8.53052 18.5 8.53052C16.5591 8.53052 14.6398 8.93856 12.8667 9.72816C11.0937 10.5178 9.50638 11.6713 8.20787 13.1139L6.78337 14.6972L5.55004 15.9305L3.08337 15.3139V9.76388L14.8 6.68054H22.2L33.9167 9.76388Z" fill="#CBCBCB"/>
<path d="M1.85003 3.59728C2.53118 3.59728 3.08337 3.0451 3.08337 2.36395C3.08337 1.6828 2.53118 1.13062 1.85003 1.13062C1.16888 1.13062 0.616699 1.6828 0.616699 2.36395C0.616699 3.0451 1.16888 3.59728 1.85003 3.59728Z" fill="#9757FF"/>
<path d="M35.15 3.59728C35.8311 3.59728 36.3833 3.0451 36.3833 2.36395C36.3833 1.6828 35.8311 1.13062 35.15 1.13062C34.4688 1.13062 33.9166 1.6828 33.9166 2.36395C33.9166 3.0451 34.4688 3.59728 35.15 3.59728Z" fill="#9757FF"/>
<path d="M7.39998 10.9973H3.00623V12.2306H7.39998V10.9973Z" fill="#A8A8A8"/>
<path d="M6.16664 12.8473H3.00623V14.0806H6.16664V12.8473Z" fill="#A8A8A8"/>
<path d="M33.9937 10.9973H29.6V12.2306H33.9937V10.9973Z" fill="#A8A8A8"/>
<path d="M33.9938 12.8473H30.8334V14.0806H33.9938V12.8473Z" fill="#A8A8A8"/>
<path d="M3.08337 15.9306H0.616699V4.21396L1.23337 3.59729H2.4667L3.08337 4.21396V15.9306Z" fill="#9757FF"/>
<path d="M33.9166 15.9306H36.3833V4.21396L35.7666 3.59729H34.5333L33.9166 4.21396V15.9306Z" fill="#9757FF"/>
<path d="M37 18.5515C33.3 18.5515 33.3 17.0098 29.6 17.0098C25.9 17.0098 25.9 18.5515 22.2 18.5515C18.5 18.5515 18.5 17.0098 14.8 17.0098C11.1 17.0098 11.1 18.5515 7.4 18.5515C3.7 18.5515 3.7 17.0098 0 17.0098V13.9265C3.7 13.9265 3.7 15.4682 7.4 15.4682C11.1 15.4682 11.1 13.9265 14.8 13.9265C18.5 13.9265 18.5 15.4682 22.2 15.4682C25.9 15.4682 25.9 13.9265 29.6 13.9265C33.3 13.9265 33.3 15.4682 37 15.4682V18.5515Z" fill="#6CBAE5"/>
<path d="M36.579 3.53754C36.8016 3.26674 36.9428 2.93824 36.9859 2.59032C37.0291 2.2424 36.9725 1.88938 36.8227 1.57238C36.673 1.25538 36.4363 0.987458 36.1401 0.799825C35.844 0.612192 35.5006 0.512573 35.15 0.512573C34.7994 0.512573 34.456 0.612192 34.1599 0.799825C33.8637 0.987458 33.627 1.25538 33.4772 1.57238C33.3275 1.88938 33.2709 2.2424 33.3141 2.59032C33.3572 2.93824 33.4984 3.26674 33.721 3.53754L33.4806 3.77788C33.4233 3.83515 33.3779 3.90313 33.3469 3.97795C33.3159 4.05277 33.3 4.13296 33.3 4.21394V5.29519L23.4333 3.10263V2.36394C23.4333 2.20039 23.3684 2.04354 23.2527 1.92789C23.1371 1.81225 22.9802 1.74728 22.8167 1.74728C22.6531 1.74728 22.4963 1.81225 22.3806 1.92789C22.265 2.04354 22.2 2.20039 22.2 2.36394V2.98061H14.8V2.36394C14.8 2.20039 14.735 2.04354 14.6194 1.92789C14.5037 1.81225 14.3469 1.74728 14.1833 1.74728C14.0198 1.74728 13.8629 1.81225 13.7473 1.92789C13.6316 2.04354 13.5667 2.20039 13.5667 2.36394V3.10263L3.7 5.29519V4.21394C3.7 4.13296 3.68406 4.05277 3.65307 3.97795C3.62208 3.90313 3.57666 3.83515 3.51939 3.77788L3.27897 3.53754C3.50164 3.26674 3.64277 2.93824 3.68593 2.59032C3.72909 2.2424 3.6725 1.88938 3.52275 1.57238C3.373 1.25538 3.13626 0.987458 2.84011 0.799825C2.54396 0.612192 2.20059 0.512573 1.85 0.512573C1.49941 0.512573 1.15604 0.612192 0.85989 0.799825C0.563738 0.987458 0.326999 1.25538 0.177251 1.57238C0.0275036 1.88938 -0.0290866 2.2424 0.0140733 2.59032C0.0572331 2.93824 0.198366 3.26674 0.42103 3.53754L0.180607 3.77788C0.123345 3.83515 0.0779231 3.90313 0.0469346 3.97795C0.0159461 4.05277 -1.85347e-06 4.13296 1.09734e-06 4.21394V17.6264C1.72667 17.6264 2.56996 17.9779 3.46274 18.3499C4.42821 18.7519 5.42667 19.1681 7.4 19.1681C9.37333 19.1681 10.3716 18.7519 11.337 18.3499C12.2297 17.9779 13.0733 17.6264 14.7995 17.6264C16.5257 17.6264 17.3695 17.9779 18.2624 18.3499C19.2278 18.7519 20.2262 19.1681 22.1995 19.1681C24.1727 19.1681 25.1713 18.7519 26.1367 18.3499C27.0297 17.9779 27.8733 17.6264 29.6 17.6264C31.3267 17.6264 32.17 17.9779 33.0629 18.3499C34.0282 18.7519 35.0267 19.1681 37 19.1681V4.21394C37 4.13296 36.9841 4.05277 36.9531 3.97795C36.9221 3.90313 36.8767 3.83515 36.8194 3.77788L36.579 3.53754ZM35.15 1.74728C35.272 1.74728 35.3912 1.78344 35.4926 1.8512C35.594 1.91896 35.673 2.01528 35.7197 2.12796C35.7664 2.24064 35.7786 2.36463 35.7548 2.48425C35.731 2.60387 35.6723 2.71375 35.586 2.79999C35.4998 2.88624 35.3899 2.94497 35.2703 2.96876C35.1507 2.99256 35.0267 2.98034 34.914 2.93367C34.8013 2.887 34.705 2.80796 34.6373 2.70655C34.5695 2.60514 34.5333 2.48591 34.5333 2.36394C34.5335 2.20045 34.5985 2.04371 34.7141 1.9281C34.8298 1.81249 34.9865 1.74746 35.15 1.74728ZM30.8333 6.01045L33.3 6.55859V8.96397L30.8333 8.31478V6.01045ZM27.1333 7.29728V5.18828L29.6 5.73642V7.99033L27.1312 7.3406C27.1322 7.32626 27.1333 7.31192 27.1333 7.29728ZM23.4333 4.36603L25.9 4.91417V7.01662L23.4333 6.3675V4.36603ZM19.1167 4.21394H22.2V6.06394H19.1167V4.21394ZM14.8 4.21394H17.8833V6.06394H14.8V4.21394ZM11.1 4.91417L13.5667 4.36603V6.3675L11.1 7.01662V4.91417ZM7.4 5.73642L9.86667 5.18828V7.29728C9.86667 7.31192 9.86782 7.32626 9.86882 7.3406L7.4 7.99033V5.73642ZM3.7 6.55859L6.16667 6.01045V8.31478L3.7 8.9639V6.55859ZM3.7 12.2306H7.4V10.9973H3.7V10.2393L14.8798 7.29728H22.1202L33.3 10.2393V10.9973H29.6V12.2306H33.3V12.8473H30.8333V13.3725C30.4237 13.3293 30.0119 13.3084 29.6 13.3098C29.4788 13.3098 29.3613 13.3113 29.2473 13.3144C27.8908 11.8083 26.2328 10.6042 24.3809 9.78004C22.529 8.95592 20.5246 8.53024 18.4977 8.53059C16.4707 8.53095 14.4664 8.95734 12.6148 9.78211C10.7633 10.6069 9.10569 11.8116 7.74965 13.3182L6.41002 14.8069C5.31289 14.7011 4.64019 14.421 3.93711 14.128L3.82333 14.0806H6.16667V12.8473H3.7V12.2306ZM27.6858 13.4732C26.8557 13.6312 26.2527 13.8821 25.6624 14.1284C24.7695 14.5 23.9262 14.8514 22.1995 14.8514C20.4727 14.8514 19.6295 14.5 18.7367 14.128C17.7712 13.726 16.7729 13.3098 14.7995 13.3098C12.8262 13.3098 11.8279 13.726 10.8624 14.1281C10.0887 14.4505 9.3516 14.7572 8.04527 14.8333L8.66617 14.1432C9.85428 12.8232 11.296 11.7558 12.9054 11.0049C14.5148 10.2539 16.2589 9.83467 18.0338 9.77215C19.8087 9.70962 21.578 10.0051 23.2362 10.641C24.8945 11.2768 26.4077 12.24 27.6858 13.4732ZM1.85 1.74728C1.97197 1.74728 2.09119 1.78344 2.1926 1.8512C2.29401 1.91896 2.37305 2.01528 2.41973 2.12796C2.4664 2.24064 2.47861 2.36463 2.45482 2.48425C2.43102 2.60387 2.37229 2.71375 2.28605 2.79999C2.19981 2.88624 2.08993 2.94497 1.97031 2.96876C1.85068 2.99256 1.72669 2.98034 1.61401 2.93367C1.50133 2.887 1.40502 2.80796 1.33726 2.70655C1.2695 2.60514 1.23333 2.48591 1.23333 2.36394C1.23352 2.20045 1.29855 2.04371 1.41415 1.9281C1.52976 1.81249 1.68651 1.74746 1.85 1.74728ZM1.23333 4.46932L1.48871 4.21394H2.21129L2.46667 4.46932V13.5992C2.06201 13.492 1.64967 13.4162 1.23333 13.3724V4.46932ZM35.7667 17.863C34.8103 17.7416 34.1865 17.482 33.537 17.2113C32.5715 16.8094 31.5733 16.3931 29.6 16.3931C27.6267 16.3931 26.6281 16.8094 25.6627 17.2113C24.7695 17.5834 23.9262 17.9348 22.1995 17.9348C20.4727 17.9348 19.6295 17.5834 18.7367 17.2113C17.7712 16.8094 16.7729 16.3931 14.7995 16.3931C12.8262 16.3931 11.8279 16.8094 10.8624 17.2114C9.96965 17.5834 9.12667 17.9348 7.4 17.9348C5.67333 17.9348 4.83004 17.5834 3.93726 17.2113C3.19726 16.903 2.43691 16.587 1.23349 16.4559V14.6149C2.18971 14.7364 2.8137 14.9959 3.46289 15.2665C4.42821 15.6685 5.42667 16.0848 7.4 16.0848C9.37333 16.0848 10.3716 15.6685 11.337 15.2665C12.2297 14.8945 13.0733 14.5431 14.7995 14.5431C16.5257 14.5431 17.3695 14.8945 18.2624 15.2665C19.2278 15.6685 20.2262 16.0848 22.1995 16.0848C24.1727 16.0848 25.1713 15.6685 26.1367 15.2665C27.0297 14.8945 27.8733 14.5431 29.6 14.5431C31.3267 14.5431 32.17 14.8945 33.0629 15.2665C33.8029 15.5749 34.5633 15.8909 35.7669 16.022L35.7667 17.863ZM35.7667 14.7797C35.348 14.7281 34.9351 14.6373 34.5333 14.5087V4.46932L34.7887 4.21394H35.5113L35.7667 4.46932V14.7797Z" fill="#575757"/>
</svg>
