<svg width="31" height="32" viewBox="0 0 31 32" fill="none" xmlns="http://www.w3.org/2000/svg">
<path d="M8.26673 31.2803C9.79954 31.2803 11.2979 30.8258 12.5724 29.9742C13.8469 29.1226 14.8402 27.9122 15.4268 26.4961C16.0134 25.08 16.1669 23.5217 15.8678 22.0183C15.5688 20.515 14.8307 19.1341 13.7468 18.0502C12.663 16.9664 11.282 16.2282 9.77869 15.9292C8.27533 15.6302 6.71706 15.7836 5.30093 16.3702C3.8848 16.9568 2.67442 17.9501 1.82284 19.2246C0.971254 20.4991 0.516724 21.9975 0.516724 23.5303C0.516724 25.5857 1.33324 27.557 2.78665 29.0104C4.24006 30.4638 6.2113 31.2803 8.26673 31.2803ZM8.26673 17.3303C9.49298 17.3303 10.6917 17.6939 11.7113 18.3752C12.7309 19.0564 13.5255 20.0247 13.9948 21.1577C14.4641 22.2906 14.5868 23.5372 14.3476 24.7399C14.1084 25.9425 13.5179 27.0473 12.6508 27.9144C11.7837 28.7814 10.679 29.3719 9.47629 29.6112C8.27361 29.8504 7.027 29.7276 5.89409 29.2584C4.76119 28.7891 3.79288 27.9944 3.11162 26.9748C2.43035 25.9552 2.06673 24.7565 2.06673 23.5303C2.06673 21.8859 2.71994 20.309 3.88267 19.1462C5.04539 17.9835 6.62239 17.3303 8.26673 17.3303V17.3303ZM22.7334 1.3136C21.2006 1.3136 19.7022 1.76813 18.4277 2.61971C17.1533 3.47129 16.1599 4.68168 15.5733 6.09781C14.9868 7.51394 14.8333 9.07221 15.1323 10.5756C15.4314 12.0789 16.1695 13.4598 17.2533 14.5437C18.3372 15.6276 19.7181 16.3657 21.2215 16.6647C22.7248 16.9637 24.2831 16.8103 25.6992 16.2237C27.1153 15.6371 28.3257 14.6438 29.1773 13.3693C30.0289 12.0948 30.4834 10.5964 30.4834 9.06361C30.4834 7.00818 29.6669 5.03693 28.2135 3.58352C26.7601 2.13012 24.7888 1.3136 22.7334 1.3136V1.3136ZM22.7334 15.2636C21.5072 15.2636 20.3085 14.9 19.2889 14.2187C18.2693 13.5375 17.4746 12.5692 17.0054 11.4362C16.5361 10.3033 16.4133 9.05673 16.6525 7.85405C16.8918 6.65136 17.4823 5.54663 18.3493 4.67954C19.2164 3.81245 20.3212 3.22196 21.5239 2.98273C22.7265 2.7435 23.9732 2.86628 25.1061 3.33555C26.239 3.80481 27.2073 4.59948 27.8885 5.61907C28.5698 6.63865 28.9334 7.83736 28.9334 9.06361C28.9334 10.708 28.2802 12.2849 27.1175 13.4477C25.9548 14.6104 24.3778 15.2636 22.7334 15.2636Z" fill="#FF9478"/>
<path d="M22.7335 15.2635C26.1576 15.2635 28.9335 12.4877 28.9335 9.06353C28.9335 5.63936 26.1576 2.86353 22.7335 2.86353C19.3093 2.86353 16.5334 5.63936 16.5334 9.06353C16.5334 12.4877 19.3093 15.2635 22.7335 15.2635Z" fill="#FFB655"/>
<path d="M8.26666 29.7303C11.6908 29.7303 14.4667 26.9545 14.4667 23.5303C14.4667 20.1062 11.6908 17.3303 8.26666 17.3303C4.84249 17.3303 2.06665 20.1062 2.06665 23.5303C2.06665 26.9545 4.84249 29.7303 8.26666 29.7303Z" fill="#FFDE55"/>
<path d="M8.26668 15.2635C6.63169 15.2635 5.03341 15.7484 3.67396 16.6567C2.31451 17.5651 1.25495 18.8562 0.629267 20.3667C0.00358179 21.8772 -0.160126 23.5394 0.158846 25.143C0.477817 26.7466 1.26514 28.2195 2.42126 29.3757C3.57737 30.5318 5.05035 31.3191 6.65393 31.6381C8.25751 31.957 9.91966 31.7933 11.4302 31.1676C12.9407 30.542 14.2318 29.4824 15.1402 28.1229C16.0485 26.7635 16.5334 25.1652 16.5334 23.5302C16.5308 21.3386 15.659 19.2374 14.1092 17.6877C12.5595 16.1379 10.4583 15.2661 8.26668 15.2635V15.2635ZM8.26668 30.7636C6.83606 30.7636 5.43757 30.3393 4.24805 29.5445C3.05853 28.7497 2.13142 27.62 1.58394 26.2983C1.03647 24.9766 0.893225 23.5222 1.17233 22.1191C1.45143 20.7159 2.14033 19.4271 3.15194 18.4155C4.16354 17.4039 5.45239 16.715 6.85553 16.4359C8.25866 16.1568 9.71304 16.3 11.0348 16.8475C12.3565 17.395 13.4862 18.3221 14.281 19.5116C15.0758 20.7011 15.5 22.0996 15.5 23.5302C15.498 25.448 14.7352 27.2866 13.3792 28.6427C12.0231 29.9988 10.1845 30.7615 8.26668 30.7636V30.7636Z" fill="#3E3D42"/>
<path d="M7.75008 21.9802H8.78341C8.92044 21.9802 9.05186 22.0346 9.14875 22.1315C9.24564 22.2284 9.30008 22.3598 9.30008 22.4968H10.3334C10.3334 22.0858 10.1701 21.6915 9.87943 21.4008C9.58875 21.1101 9.1945 20.9468 8.78341 20.9468V20.4302H7.75008V20.9468C7.33899 20.9468 6.94474 21.1101 6.65406 21.4008C6.36338 21.6915 6.20007 22.0858 6.20007 22.4968C6.20007 22.9079 6.36338 23.3022 6.65406 23.5929C6.94474 23.8835 7.33899 24.0468 7.75008 24.0468H8.78341C8.92044 24.0468 9.05186 24.1013 9.14875 24.1982C9.24564 24.2951 9.30008 24.4265 9.30008 24.5635C9.30008 24.7005 9.24564 24.832 9.14875 24.9289C9.05186 25.0257 8.92044 25.0802 8.78341 25.0802H7.75008C7.61305 25.0802 7.48163 25.0257 7.38474 24.9289C7.28784 24.832 7.23341 24.7005 7.23341 24.5635H6.20007C6.20007 24.9746 6.36338 25.3688 6.65406 25.6595C6.94474 25.9502 7.33899 26.1135 7.75008 26.1135V26.6302H8.78341V26.1135C9.1945 26.1135 9.58875 25.9502 9.87943 25.6595C10.1701 25.3688 10.3334 24.9746 10.3334 24.5635C10.3334 24.1524 10.1701 23.7582 9.87943 23.4675C9.58875 23.1768 9.1945 23.0135 8.78341 23.0135H7.75008C7.61305 23.0135 7.48163 22.9591 7.38474 22.8622C7.28784 22.7653 7.23341 22.6339 7.23341 22.4968C7.23341 22.3598 7.28784 22.2284 7.38474 22.1315C7.48163 22.0346 7.61305 21.9802 7.75008 21.9802Z" fill="#3E3D42"/>
<path d="M8.2666 16.8136C6.93817 16.8136 5.63957 17.2075 4.53502 17.9455C3.43047 18.6836 2.56958 19.7326 2.06121 20.9599C1.55284 22.1872 1.41982 23.5377 1.67899 24.8406C1.93815 26.1435 2.57785 27.3403 3.5172 28.2796C4.45654 29.219 5.65334 29.8587 6.95625 30.1179C8.25915 30.377 9.60965 30.244 10.837 29.7356C12.0643 29.2273 13.1133 28.3664 13.8513 27.2618C14.5894 26.1573 14.9833 24.8587 14.9833 23.5302C14.9812 21.7495 14.2729 20.0423 13.0137 18.7831C11.7546 17.5239 10.0473 16.8156 8.2666 16.8136ZM8.2666 29.2136C7.14255 29.2136 6.04373 28.8803 5.10911 28.2558C4.17449 27.6313 3.44604 26.7437 3.01588 25.7052C2.58572 24.6667 2.47318 23.5239 2.69247 22.4215C2.91176 21.319 3.45305 20.3063 4.24788 19.5115C5.04271 18.7167 6.05538 18.1754 7.15784 17.9561C8.2603 17.7368 9.40303 17.8494 10.4415 18.2795C11.48 18.7097 12.3676 19.4381 12.9921 20.3727C13.6166 21.3074 13.9499 22.4062 13.9499 23.5302C13.9482 25.037 13.3488 26.4816 12.2834 27.547C11.2179 28.6125 9.77337 29.2118 8.2666 29.2136V29.2136ZM22.7333 0.796875C21.0983 0.796875 19.5 1.28171 18.1406 2.19006C16.7811 3.09842 15.7216 4.38949 15.0959 5.90003C14.4702 7.41057 14.3065 9.07272 14.6255 10.6763C14.9444 12.2799 15.7318 13.7529 16.8879 14.909C18.044 16.0651 19.517 16.8524 21.1205 17.1714C22.7241 17.4904 24.3863 17.3267 25.8968 16.701C27.4073 16.0753 28.6984 15.0157 29.6068 13.6563C30.5151 12.2968 31 10.6985 31 9.06355C30.9974 6.87189 30.1256 4.77074 28.5758 3.221C27.0261 1.67126 24.925 0.799473 22.7333 0.796875V0.796875ZM22.7333 16.2969C21.3027 16.2969 19.9042 15.8727 18.7147 15.0779C17.5251 14.283 16.598 13.1534 16.0506 11.8316C15.5031 10.5099 15.3598 9.05553 15.6389 7.6524C15.918 6.24927 16.6069 4.96041 17.6185 3.94881C18.6301 2.93721 19.919 2.2483 21.3221 1.9692C22.7253 1.6901 24.1796 1.83334 25.5014 2.38082C26.8231 2.92829 27.9528 3.85541 28.7476 5.04492C29.5424 6.23444 29.9666 7.63293 29.9666 9.06355C29.9646 10.9813 29.2018 12.82 27.8458 14.176C26.4897 15.5321 24.6511 16.2948 22.7333 16.2969V16.2969Z" fill="#3E3D42"/>
<path d="M23.7668 6.57524V5.9635H22.7334V6.48017H22.2167V5.9635H21.1834V6.48017C21.0464 6.48017 20.915 6.5346 20.8181 6.6315C20.7212 6.72839 20.6667 6.85981 20.6667 6.99684V11.1302C20.6667 11.2672 20.7212 11.3986 20.8181 11.4955C20.915 11.5924 21.0464 11.6468 21.1834 11.6468V12.1635H22.2167V11.6468H22.7334V12.1635H23.7668V11.5518C24.0073 11.4685 24.2234 11.3268 24.3956 11.1393C24.5678 10.9518 24.6907 10.7245 24.7532 10.4777C24.8158 10.2309 24.8159 9.97248 24.7538 9.72562C24.6916 9.47876 24.569 9.25123 24.3971 9.0635C24.569 8.87578 24.6916 8.64825 24.7538 8.40139C24.8159 8.15453 24.8158 7.89608 24.7532 7.64931C24.6907 7.40254 24.5678 7.17518 24.3956 6.98769C24.2234 6.8002 24.0073 6.65846 23.7668 6.57524V6.57524ZM21.7001 7.5135H23.2501C23.3871 7.5135 23.5185 7.56794 23.6154 7.66483C23.7123 7.76173 23.7668 7.89314 23.7668 8.03017C23.7668 8.1672 23.7123 8.29862 23.6154 8.39551C23.5185 8.4924 23.3871 8.54684 23.2501 8.54684H21.7001V7.5135ZM23.2501 10.6135H21.7001V9.58017H23.2501C23.3871 9.58017 23.5185 9.63461 23.6154 9.7315C23.7123 9.82839 23.7668 9.95981 23.7668 10.0968C23.7668 10.2339 23.7123 10.3653 23.6154 10.4622C23.5185 10.5591 23.3871 10.6135 23.2501 10.6135Z" fill="#3E3D42"/>
<path d="M22.7334 2.3468C21.4049 2.3468 20.1063 2.74073 19.0018 3.47877C17.8972 4.2168 17.0363 5.2658 16.528 6.49312C16.0196 7.72043 15.8866 9.07093 16.1458 10.3738C16.4049 11.6767 17.0446 12.8735 17.984 13.8129C18.9233 14.7522 20.1201 15.3919 21.423 15.6511C22.7259 15.9103 24.0764 15.7772 25.3037 15.2689C26.531 14.7605 27.58 13.8996 28.3181 12.7951C29.0561 11.6905 29.45 10.3919 29.45 9.06348C29.448 7.28273 28.7397 5.57551 27.4805 4.31634C26.2213 3.05716 24.5141 2.34885 22.7334 2.3468V2.3468ZM22.7334 14.7468C21.6093 14.7468 20.5105 14.4135 19.5759 13.789C18.6413 13.1645 17.9128 12.2769 17.4827 11.2384C17.0525 10.1999 16.9399 9.05717 17.1592 7.95471C17.3785 6.85225 17.9198 5.83958 18.7146 5.04475C19.5095 4.24992 20.5221 3.70863 21.6246 3.48934C22.7271 3.27005 23.8698 3.3826 24.9083 3.81276C25.9468 4.24291 26.8344 4.97136 27.4589 5.90598C28.0834 6.8406 28.4167 7.93942 28.4167 9.06348C28.4149 10.5702 27.8156 12.0148 26.7501 13.0802C25.6847 14.1457 24.2401 14.745 22.7334 14.7468V14.7468ZM26.1186 18.9349L23.3472 20.3237L23.8122 21.248L25.5477 20.3785C24.7944 22.2191 23.5519 23.8186 21.9548 25.0038C20.3577 26.189 18.4668 26.9147 16.4869 27.1024L16.5799 28.1316C18.7393 27.9265 20.8022 27.1372 22.5469 25.8484C24.2917 24.5596 25.6525 22.8199 26.4833 20.8161L27.2769 22.3997L28.2013 21.9347L26.8119 19.1633C26.7502 19.0412 26.6425 18.9485 26.5125 18.9057C26.3825 18.8629 26.2408 18.8734 26.1186 18.9349V18.9349ZM4.13335 13.7135C4.17781 13.7133 4.22207 13.7076 4.2651 13.6964L7.26177 12.9064L6.99827 11.9072L5.40539 12.3273C6.14593 10.459 7.38847 8.83186 8.99575 7.62549C10.603 6.41912 12.5125 5.68051 14.5132 5.49124L14.4202 4.46204C12.1997 4.67232 10.0825 5.50001 8.30811 6.85142C6.53375 8.20283 5.17314 10.024 4.38032 12.1087L3.84298 10.0694L2.84375 10.3329L3.63373 13.3296C3.66302 13.4397 3.72789 13.5371 3.81825 13.6065C3.90862 13.6759 4.0194 13.7136 4.13335 13.7135Z" fill="#3E3D42"/>
<path d="M26.8667 8.54688H25.8334V9.58021H26.8667V8.54688Z" fill="#3E3D42"/>
<path d="M19.6334 8.54688H18.6001V9.58021H19.6334V8.54688Z" fill="#3E3D42"/>
<path d="M12.4 23.0135H11.3667V24.0469H12.4V23.0135Z" fill="#3E3D42"/>
<path d="M5.16664 23.0135H4.1333V24.0469H5.16664V23.0135Z" fill="#3E3D42"/>
</svg>
