<svg width="31" height="32" viewBox="0 0 31 32" fill="none" xmlns="http://www.w3.org/2000/svg">
<path d="M13.5625 15.0312C17.3077 15.0312 20.3438 11.9952 20.3438 8.25C20.3438 4.50482 17.3077 1.46875 13.5625 1.46875C9.81732 1.46875 6.78125 4.50482 6.78125 8.25C6.78125 11.9952 9.81732 15.0312 13.5625 15.0312Z" fill="#FFD572"/>
<path d="M27.6093 25.6875L25.6718 23.75H19.1327C18.6831 23.75 18.2519 23.9286 17.934 24.2465C17.616 24.5645 17.4374 24.9957 17.4374 25.4453C17.4374 25.8949 17.616 26.3261 17.934 26.6441C18.2519 26.962 18.6831 27.1406 19.1327 27.1406H15.4999L9.50772 24.3748C9.30694 24.2823 9.08847 24.2343 8.86738 24.2344H8.79375C8.45563 24.2339 8.1269 24.3456 7.85908 24.552C7.59126 24.7584 7.39948 25.0478 7.31379 25.3749C7.2281 25.702 7.25334 26.0483 7.38556 26.3595C7.51778 26.6707 7.7495 26.9292 8.04443 27.0946L15.0156 31.0156H30.5156V25.6875H27.6093Z" fill="#F4A8B2"/>
<path d="M11.625 16.9688H15.5V20.3594H16.9531L13.5625 24.2344L10.1719 20.3594H11.625V16.9688Z" fill="#7BC2CC"/>
<path d="M11.3828 4.13281L8.23438 0.984375H5.32812L0.484375 3.40625V11.1562H9.6875C10.0729 11.1562 10.4425 11.0032 10.715 10.7306C10.9875 10.4581 11.1406 10.0885 11.1406 9.70312C11.1406 9.31773 10.9875 8.94812 10.715 8.67561C10.4425 8.4031 10.0729 8.25 9.6875 8.25H7.75L11.3828 4.13281Z" fill="#F4A8B2"/>
<path d="M13.5625 15.0312C17.3077 15.0312 20.3438 11.9952 20.3438 8.25C20.3438 4.50482 17.3077 1.46875 13.5625 1.46875C9.81732 1.46875 6.78125 4.50482 6.78125 8.25C6.78125 11.9952 9.81732 15.0312 13.5625 15.0312Z" fill="#FFD572"/>
<path d="M13.5625 6.79688C14.0975 6.79688 14.5312 6.36315 14.5312 5.82812C14.5312 5.2931 14.0975 4.85938 13.5625 4.85938C13.0275 4.85938 12.5938 5.2931 12.5938 5.82812C12.5938 6.36315 13.0275 6.79688 13.5625 6.79688Z" fill="#ED8383"/>
<path d="M16.9531 8.25C17.4882 8.25 17.9219 7.81628 17.9219 7.28125C17.9219 6.74622 17.4882 6.3125 16.9531 6.3125C16.4181 6.3125 15.9844 6.74622 15.9844 7.28125C15.9844 7.81628 16.4181 8.25 16.9531 8.25Z" fill="#ED8383"/>
<path d="M10.1719 8.25C10.7069 8.25 11.1406 7.81628 11.1406 7.28125C11.1406 6.74622 10.7069 6.3125 10.1719 6.3125C9.63685 6.3125 9.20312 6.74622 9.20312 7.28125C9.20312 7.81628 9.63685 8.25 10.1719 8.25Z" fill="#ED8383"/>
<path d="M5.8125 11.1562H9.6875C10.0729 11.1562 10.4425 11.0032 10.715 10.7306C10.9875 10.4581 11.1406 10.0885 11.1406 9.70312C11.1406 9.31773 10.9875 8.94812 10.715 8.67561C10.4425 8.4031 10.0729 8.25 9.6875 8.25H5.8125V11.1562Z" fill="#F4A8B2"/>
<path d="M13.5625 15.5156C17.5688 15.5156 20.8281 12.2563 20.8281 8.25C20.8281 4.24374 17.5688 0.984376 13.5625 0.984376C12.2787 0.984226 11.0182 1.3265 9.9108 1.97589L8.57683 0.641922C8.53192 0.596855 8.47855 0.561114 8.41978 0.536757C8.361 0.5124 8.29799 0.499908 8.23438 0.500001H5.32812C5.25305 0.500001 5.17845 0.517438 5.11161 0.55086L0.267859 2.97273C0.103656 3.05508 0 3.22267 0 3.40625V11.1563C0 11.2847 0.0510322 11.4079 0.14187 11.4988C0.232708 11.5896 0.355911 11.6406 0.484375 11.6406H7.14114C8.39373 14.0029 10.8781 15.5156 13.5625 15.5156ZM8.26102 11.6406H9.6875C10.1704 11.6406 10.6073 11.4566 10.9469 11.163L11.1406 11.3568V14.0533C9.95929 13.5581 8.95545 12.717 8.26102 11.6406ZM13.0781 5.82813C13.078 5.73219 13.1064 5.63838 13.1596 5.55857C13.2129 5.47876 13.2886 5.41654 13.3772 5.37978C13.4658 5.34302 13.5634 5.33338 13.6575 5.35208C13.7516 5.37077 13.838 5.41696 13.9058 5.48479C13.9737 5.55263 14.0199 5.63907 14.0386 5.73317C14.0572 5.82727 14.0476 5.9248 14.0108 6.01341C13.9741 6.10203 13.9119 6.17775 13.8321 6.23099C13.7522 6.28423 13.6584 6.3126 13.5625 6.3125C13.2951 6.3125 13.0781 6.09502 13.0781 5.82813ZM19.8594 8.25C19.8594 10.8642 18.2575 13.1102 15.9844 14.061V11.3568L17.2956 10.0456C17.3406 10.0007 17.3764 9.94728 17.4007 9.88851C17.4251 9.82974 17.4376 9.76674 17.4375 9.70313V8.64525C17.72 8.54567 17.9648 8.36111 18.1382 8.1169C18.3117 7.87269 18.4053 7.58079 18.4062 7.28125C18.4062 6.48009 17.7543 5.82813 16.9531 5.82813C16.152 5.82813 15.5 6.48009 15.5 7.28125C15.5 7.91191 15.9064 8.44472 16.4688 8.64525V9.50259L15.1575 10.8138C15.1125 10.8587 15.0768 10.9121 15.0524 10.9709C15.0281 11.0296 15.0156 11.0926 15.0156 11.1563V14.371C14.7008 14.4456 14.3777 14.497 14.0469 14.5227V7.19213C14.3294 7.09255 14.5741 6.90799 14.7476 6.66378C14.921 6.41956 15.0147 6.12766 15.0156 5.82813C15.0156 5.02697 14.3637 4.375 13.5625 4.375C12.7613 4.375 12.1094 5.02697 12.1094 5.82813C12.1094 6.45878 12.5158 6.99159 13.0781 7.19213V14.527C12.7516 14.5008 12.4277 14.4488 12.1094 14.3715V11.1563C12.1094 11.0926 12.0969 11.0296 12.0726 10.9709C12.0482 10.9121 12.0125 10.8587 11.9675 10.8138L11.5054 10.3517C11.5823 10.144 11.6228 9.92459 11.625 9.70313C11.6246 9.21427 11.4374 8.74403 11.1019 8.38853C11.2649 8.25358 11.3962 8.08444 11.4866 7.8931C11.577 7.70175 11.6243 7.49287 11.625 7.28125C11.625 6.48009 10.973 5.82813 10.1719 5.82813C9.37072 5.82813 8.71875 6.48009 8.71875 7.28125C8.71875 7.45175 8.75362 7.61353 8.80787 7.76563H7.29566C7.36682 6.80799 7.65708 5.87951 8.14402 5.05185C8.63095 4.22419 9.30156 3.51948 10.1041 2.99211C11.1297 2.31342 12.3326 1.95204 13.5625 1.95313C17.0345 1.95313 19.8594 4.778 19.8594 8.25ZM16.4688 7.28125C16.4687 7.18531 16.497 7.0915 16.5503 7.01169C16.6035 6.93189 16.6792 6.86967 16.7678 6.83291C16.8565 6.79615 16.954 6.78651 17.0481 6.8052C17.1422 6.82389 17.2286 6.87008 17.2965 6.93792C17.3643 7.00576 17.4105 7.0922 17.4292 7.18629C17.4479 7.28039 17.4382 7.37792 17.4015 7.46654C17.3647 7.55515 17.3025 7.63087 17.2227 7.68411C17.1429 7.73735 17.0491 7.76572 16.9531 7.76563C16.6857 7.76563 16.4688 7.54814 16.4688 7.28125ZM9.6875 7.28125C9.6874 7.18531 9.71577 7.0915 9.76901 7.01169C9.82225 6.93189 9.89797 6.86967 9.98659 6.83291C10.0752 6.79615 10.1727 6.78651 10.2668 6.8052C10.3609 6.82389 10.4474 6.87008 10.5152 6.93792C10.583 7.00576 10.6292 7.0922 10.6479 7.18629C10.6666 7.28039 10.657 7.37792 10.6202 7.46654C10.5835 7.55515 10.5212 7.63087 10.4414 7.68411C10.3616 7.73735 10.2678 7.76572 10.1719 7.76563C9.9045 7.76563 9.6875 7.54814 9.6875 7.28125ZM0.96875 3.70559L5.44244 1.46875H8.03384L9.09366 2.52905C8.28675 3.15607 7.62184 3.94692 7.1427 4.84951C6.66356 5.7521 6.38107 6.74596 6.31383 7.76563H5.8125V8.73438H9.6875C9.94519 8.73438 10.1883 8.83513 10.3719 9.0187C10.5555 9.20228 10.6562 9.44495 10.6562 9.70313C10.6562 10.2374 10.2218 10.6719 9.6875 10.6719H0.96875V3.70559ZM30.5156 25.2031H27.8099L26.0143 23.4075C25.9694 23.3625 25.916 23.3267 25.8573 23.3024C25.7985 23.278 25.7355 23.2655 25.6719 23.2656H19.1328C18.5549 23.2663 18.0009 23.4961 17.5922 23.9047C17.1836 24.3134 16.9538 24.8674 16.9531 25.4453C16.9531 25.8929 17.0887 26.3099 17.3212 26.6562H15.6066L9.71123 23.9355C9.44662 23.8136 9.15879 23.7503 8.86745 23.75H8.79431C8.26066 23.7505 7.749 23.9627 7.3716 24.34C6.9942 24.7173 6.78189 25.2289 6.78125 25.7626C6.78125 26.4887 7.17456 27.1605 7.80716 27.517L14.7783 31.438C14.8507 31.4787 14.9325 31.5001 15.0156 31.5H30.5156C30.6441 31.5 30.7673 31.449 30.8581 31.3581C30.949 31.2673 31 31.1441 31 31.0156V25.6875C31 25.559 30.949 25.4358 30.8581 25.345C30.7673 25.2542 30.6441 25.2031 30.5156 25.2031ZM30.0312 30.5312H15.1425L8.28233 26.6722C8.12094 26.5814 7.98659 26.4493 7.89305 26.2894C7.79952 26.1296 7.75015 25.9478 7.75 25.7626C7.75 25.1871 8.21839 24.7188 8.79383 24.7188H8.86697C9.01713 24.7188 9.16825 24.7517 9.30436 24.8151L15.2966 27.5804C15.3603 27.6099 15.4298 27.6251 15.5 27.625H23.7344V26.6562H19.1328C18.4649 26.6562 17.9219 26.1128 17.9219 25.4453C17.9219 24.7778 18.4649 24.2344 19.1328 24.2344H25.4713L27.2669 26.03C27.3118 26.075 27.3652 26.1108 27.424 26.1351C27.4827 26.1595 27.5458 26.172 27.6094 26.1719H30.0312V30.5312Z" fill="#6D6D6D"/>
<path d="M15.5 16.4844H11.625C11.4966 16.4844 11.3734 16.5354 11.2825 16.6262C11.1917 16.7171 11.1407 16.8403 11.1407 16.9688V19.875H10.1719C10.0788 19.8749 9.98764 19.9017 9.90934 19.9521C9.83104 20.0025 9.76893 20.0744 9.73044 20.1592C9.69195 20.244 9.67873 20.3381 9.69234 20.4302C9.70595 20.5223 9.74583 20.6085 9.80719 20.6786L13.1978 24.5536C13.2435 24.6053 13.2996 24.6466 13.3625 24.675C13.4254 24.7033 13.4936 24.718 13.5625 24.718C13.6315 24.718 13.6997 24.7033 13.7626 24.675C13.8255 24.6466 13.8816 24.6053 13.9273 24.5536L17.3179 20.6786C17.3793 20.6085 17.4191 20.5223 17.4328 20.4302C17.4464 20.3381 17.4331 20.244 17.3947 20.1592C17.3562 20.0744 17.2941 20.0025 17.2158 19.9521C17.1375 19.9017 17.0463 19.8749 16.9532 19.875H15.9844V16.9688C15.9844 16.8403 15.9334 16.7171 15.8426 16.6262C15.7517 16.5354 15.6285 16.4844 15.5 16.4844ZM13.5625 23.4986L11.2395 20.8438H11.625C11.7535 20.8438 11.8767 20.7927 11.9676 20.7019C12.0584 20.611 12.1094 20.4878 12.1094 20.3594V17.4531H15.0157V20.3594C15.0157 20.4878 15.0667 20.611 15.1575 20.7019C15.2484 20.7927 15.3716 20.8438 15.5 20.8438H15.8856L13.5625 23.4986Z" fill="#6D6D6D"/>
</svg>
