<svg width="18" height="18" viewBox="0 0 18 18" fill="none" xmlns="http://www.w3.org/2000/svg">
<path d="M6.00001 17L6.00001 4L7.20001 5.6C7.2788 5.70506 7.37751 5.79357 7.49051 5.86047C7.60351 5.92738 7.72858 5.97138 7.85858 5.98995C7.98859 6.00852 8.12097 6.00131 8.24819 5.96871C8.3754 5.93612 8.49495 5.87879 8.60001 5.8C8.7242 5.70685 8.82501 5.58607 8.89443 5.44721C8.96386 5.30836 9.00001 5.15524 9.00001 5C9.00001 4.78363 8.92983 4.5731 8.80001 4.4L5.80001 0.4C5.70668 0.277693 5.5864 0.178568 5.44851 0.110336C5.31062 0.0421047 5.15885 0.00660896 5.00501 0.00660896C4.85116 0.00660896 4.69939 0.0421047 4.5615 0.110336C4.42362 0.178568 4.30333 0.277693 4.21001 0.4L1.21001 4.26C1.0469 4.46952 0.973702 4.73525 1.00652 4.99874C1.03934 5.26223 1.17549 5.50189 1.38501 5.665C1.59453 5.82811 1.86026 5.9013 2.12375 5.86849C2.38724 5.83567 2.6269 5.69952 2.79001 5.49L4.00001 3.92L4.00001 17C4.00001 17.2652 4.10536 17.5196 4.2929 17.7071C4.48044 17.8946 4.73479 18 5.00001 18C5.26522 18 5.51958 17.8946 5.70711 17.7071C5.89465 17.5196 6.00001 17.2652 6.00001 17ZM13 1L13 14L11.8 12.4C11.6409 12.1878 11.404 12.0476 11.1414 12.0101C10.8789 11.9725 10.6122 12.0409 10.4 12.2C10.1878 12.3591 10.0476 12.596 10.0101 12.8586C9.97255 13.1211 10.0409 13.3878 10.2 13.6L13.2 17.6C13.2933 17.7223 13.4136 17.8214 13.5515 17.8897C13.6894 17.9579 13.8412 17.9934 13.995 17.9934C14.1489 17.9934 14.3006 17.9579 14.4385 17.8897C14.5764 17.8214 14.6967 17.7223 14.79 17.6L17.79 13.74C17.9255 13.5654 17.9993 13.3509 18 13.13C17.9996 12.9773 17.9643 12.8267 17.8967 12.6897C17.8291 12.5528 17.731 12.4332 17.61 12.34C17.4015 12.1776 17.1373 12.1043 16.8749 12.1362C16.6126 12.168 16.3736 12.3024 16.21 12.51L15 14.08L15 1C15 0.734783 14.8946 0.480429 14.7071 0.292892C14.5196 0.105356 14.2652 0 14 0C13.7348 0 13.4804 0.105356 13.2929 0.292892C13.1054 0.480429 13 0.734783 13 1Z" fill="white"/>
</svg>
